<svg width="93" height="93" viewBox="0 0 93 93" fill="none" xmlns="http://www.w3.org/2000/svg">
<g clip-path="url(#clip0_3_46)">
<path d="M92.1186 87.9404L68.1076 64.313C74.3953 57.4816 78.2587 48.4469 78.2587 38.5052C78.2556 17.238 60.7385 0 39.1284 0C17.5182 0 0.00106812 17.238 0.00106812 38.5052C0.00106812 59.7723 17.5182 77.0103 39.1284 77.0103C48.4654 77.0103 57.0292 73.7808 63.7559 68.4116L87.8602 92.1322C89.0347 93.2892 90.9414 93.2892 92.1159 92.1322C92.3953 91.8593 92.6173 91.5335 92.769 91.1736C92.9207 90.8138 92.9989 90.4273 92.9992 90.0369C92.9994 89.6464 92.9217 89.2598 92.7705 88.8998C92.6193 88.5398 92.3976 88.2136 92.1186 87.9404ZM39.1284 71.0861C20.8438 71.0861 6.02135 56.4992 6.02135 38.5052C6.02135 20.5112 20.8438 5.92425 39.1284 5.92425C57.413 5.92425 72.2354 20.5112 72.2354 38.5052C72.2354 56.4992 57.413 71.0861 39.1284 71.0861Z" fill="#202020"/>
</g>
<defs>
<clipPath id="clip0_3_46">
<rect width="93" height="93" fill="white"/>
</clipPath>
</defs>
</svg>
