<svg width="188" height="94" viewBox="0 0 188 94" fill="none" xmlns="http://www.w3.org/2000/svg">
<path d="M186.757 44.0028L144.031 1.48622C142.496 -0.297182 139.799 -0.50508 138.007 1.02256C136.215 2.54983 136.006 5.23388 137.541 7.01728C137.684 7.18352 137.84 7.33881 138.007 7.48094L173.427 42.7697H4.27252C1.91301 42.7697 0 44.6733 0 47.0216C0 49.3698 1.91301 51.2731 4.27252 51.2731H173.427L138.007 86.5191C136.215 88.0463 136.006 90.7304 137.541 92.5138C139.076 94.2972 141.773 94.5051 143.565 92.9774C143.732 92.8349 143.888 92.68 144.031 92.5138L186.758 49.9972C188.414 48.3395 188.414 45.6613 186.757 44.0028Z" fill="black"/>
</svg>
