<svg width="86" height="46" viewBox="0 0 86 46" fill="none" xmlns="http://www.w3.org/2000/svg">
<path d="M43.0002 46C42.4868 46.0005 41.9783 45.9016 41.504 45.7088C41.0298 45.5161 40.599 45.2333 40.2365 44.8768L1.14561 6.5437C-0.381869 5.04584 -0.381869 2.62031 1.14561 1.1234C2.67308 -0.373508 5.14655 -0.374467 6.67305 1.1234L43.0002 36.7464L79.3273 1.1234C80.8548 -0.374467 83.3283 -0.374467 84.8548 1.1234C86.3813 2.62127 86.3822 5.04679 84.8548 6.5437L45.7639 44.8768C45.4014 45.2333 44.9706 45.5161 44.4963 45.7088C44.022 45.9016 43.5136 46.0005 43.0002 46Z" fill="#202020"/>
</svg>
