<svg width="352" height="192" viewBox="0 0 352 192" fill="none" xmlns="http://www.w3.org/2000/svg">
<path d="M176.001 192.001C173.9 192.003 171.819 191.59 169.877 190.786C167.936 189.981 166.173 188.801 164.689 187.313L4.689 27.313C-1.563 21.061 -1.563 10.937 4.689 4.689C10.941 -1.559 21.065 -1.563 27.313 4.689L176.001 153.377L324.689 4.689C330.941 -1.563 341.065 -1.563 347.313 4.689C353.561 10.941 353.565 21.065 347.313 27.313L187.313 187.313C185.829 188.801 184.066 189.981 182.125 190.786C180.183 191.59 178.102 192.003 176.001 192.001Z" fill="#888888"/>
</svg>
