<svg width="69" height="69" viewBox="0 0 69 69" fill="none" xmlns="http://www.w3.org/2000/svg">
<g clip-path="url(#clip0_5_80)">
<path fill-rule="evenodd" clip-rule="evenodd" d="M34.5 69C53.5538 69 69 53.5538 69 34.5C69 15.4462 53.5538 0 34.5 0C15.4462 0 0 15.4462 0 34.5C0 53.5538 15.4462 69 34.5 69ZM34.5 41.4C33.2506 41.4 32.0497 40.9165 31.1489 40.0507C30.248 39.1851 29.7172 38.0043 29.6673 36.756L29.0299 20.6596C29.0043 20.0089 29.1103 19.3599 29.3417 18.7512C29.573 18.1426 29.9248 17.5868 30.376 17.1174C30.8274 16.648 31.3689 16.2746 31.9679 16.0195C32.5669 15.7643 33.2114 15.6328 33.8626 15.6328H35.1374C35.7886 15.6328 36.4331 15.7643 37.0321 16.0195C37.6311 16.2746 38.1726 16.648 38.624 17.1174C39.0752 17.5868 39.427 18.1426 39.6583 18.7512C39.8897 19.3599 39.9957 20.0089 39.9701 20.6596L39.3327 36.756C39.2828 38.0043 38.752 39.1851 37.8511 40.0507C36.9503 40.9165 35.7494 41.4 34.5 41.4ZM34.5 43.7099C37.1667 43.7099 39.3287 45.8718 39.3287 48.5385C39.3287 51.2053 37.1667 53.3672 34.5 53.3672C31.8333 53.3672 29.6713 51.2053 29.6713 48.5385C29.6713 45.8718 31.8333 43.7099 34.5 43.7099Z" fill="#d24500"/>
</g>
<defs>
<clipPath id="clip0_5_80">
<rect width="69" height="69" fill="white"/>
</clipPath>
</defs>
</svg>
