<svg width="101" height="90" viewBox="0 0 101 90" fill="none" xmlns="http://www.w3.org/2000/svg">
<path d="M50.5 90C49.0619 90 47.6759 89.4782 46.5955 88.5304C42.5153 84.957 38.5816 81.599 35.1109 78.6369L35.0932 78.6215C24.9178 69.9365 16.131 62.4363 10.0173 55.0478C3.18327 46.7885 0 38.9569 0 30.4015C0 22.0894 2.84575 14.4208 8.01234 8.80764C13.2407 3.12806 20.4146 0 28.2151 0C34.0453 0 39.3845 1.84617 44.0843 5.48674C46.4561 7.32422 48.6059 9.57325 50.5 12.1965C52.3947 9.57325 54.5439 7.32422 56.9165 5.48674C61.6163 1.84617 66.9555 0 72.7857 0C80.5854 0 87.7601 3.12806 92.9884 8.80764C98.155 14.4208 101 22.0894 101 30.4015C101 38.9567 97.8175 46.7883 90.9834 55.047C84.8696 62.4363 76.0836 69.9357 65.9098 78.6199C62.433 81.5867 58.4932 84.9501 54.4037 88.532C53.3229 89.4788 51.9358 90.0004 50.5 90ZM28.2151 5.92576C22.0868 5.92576 16.4571 8.37553 12.3615 12.824C8.20507 17.3399 5.9156 23.5821 5.9156 30.4015C5.9156 37.5969 8.58559 44.0321 14.5722 51.267C20.3584 58.2601 28.9649 65.606 38.93 74.112L38.9483 74.1274C42.432 77.1009 46.3813 80.4722 50.4915 84.0719C54.6264 80.4653 58.5818 77.0887 62.0724 74.1104C72.0367 65.6044 80.6424 58.2601 86.4286 51.267C92.4144 44.0321 95.0844 37.5969 95.0844 30.4015C95.0844 23.5819 92.7949 17.3397 88.6385 12.824C84.5437 8.37553 78.9133 5.92576 72.7857 5.92576C68.2963 5.92576 64.1745 7.35524 60.5351 10.1737C57.2919 12.6867 55.0326 15.8634 53.7077 18.0861C53.0268 19.2291 51.8278 19.9113 50.5 19.9113C49.1722 19.9113 47.9732 19.2291 47.2921 18.0861C45.9684 15.8634 43.7089 12.6867 40.4647 10.1737C36.8255 7.35524 32.7037 5.92576 28.2151 5.92576Z" fill="#202020"/>
</svg>
