<svg width="512" height="158" viewBox="0 0 512 158" fill="none" xmlns="http://www.w3.org/2000/svg">
<path d="M205.008 2.81116L178.987 155.51H220.603L246.645 2.81116H205.008ZM144.093 2.98242L103.333 107.119L98.9877 91.3949C90.9492 72.4493 68.129 45.2406 41.3376 28.0933L78.6079 155.435L122.643 155.36L188.181 2.95031L144.093 2.98242Z" fill="#ffffff"/>
<path d="M83.189 13.9108C80.77 4.60934 73.7591 1.83708 65.057 1.50527H0.535184L0 4.54512C50.211 16.7259 83.4352 46.0754 97.2216 81.3655L83.189 13.9108ZM330.99 32.0857C341.666 31.848 352.274 33.8384 362.138 37.9299L365.895 39.696L371.525 6.60022C363.283 3.50685 350.364 0.188721 334.244 0.188721C293.12 0.188721 264.135 20.9003 263.91 50.5816C263.642 72.5135 284.557 84.7585 300.356 92.0691C316.572 99.5617 322.01 104.325 321.935 111.015C321.806 121.237 309.005 125.925 297.049 125.925C280.383 125.925 271.531 123.624 257.862 117.929L252.5 115.489L246.645 149.666C256.385 153.936 274.357 157.608 293.013 157.8C336.759 157.8 365.188 137.335 365.488 105.62C365.67 88.2693 354.57 75.0289 330.519 64.1646C315.962 57.0788 307.057 52.3692 307.142 45.2191C307.142 38.8718 314.699 32.0857 330.99 32.0857ZM478.326 2.98238H446.172C436.186 2.98238 428.757 5.70111 424.369 15.6555L362.577 155.595H406.28C406.28 155.595 413.408 136.778 415.025 132.658L468.318 132.722C469.56 138.052 473.392 155.595 473.392 155.595H512L478.326 2.98238ZM427.002 101.403C430.427 92.6364 443.582 58.7272 443.582 58.7272C443.357 59.1446 446.975 49.8966 449.127 44.1487L451.931 57.3143L461.575 101.403H427.002Z" fill="#ffffff"/>
</svg>
