<svg width="417" height="240" viewBox="0 0 417 240" fill="none" xmlns="http://www.w3.org/2000/svg">
<path d="M121 240C146.6 240 170.6 232 189.8 218C195.8 214 196.6 205.6 191.8 200.4C172.6 179.2 161 150.8 161 120C161 89.2 172.6 60.8 191.8 39.6C196.6 34.4 195.8 26 189.8 22C168.6 6.80002 142.2 -1.19998 113.8 0.400019C53.8 4.00002 5.00003 52.4 1.00003 112.4C-2.99997 182 52.2 240 121 240ZM416.6 112.4C413 52.4 363.8 4.00002 303.8 0.400019C275.4 -1.19998 249 7.20002 227.8 22C221.8 26 221 34.4 225.8 39.6C245.4 60.8 257 89.2 257 120C257 150.8 245.4 179.2 226.2 200.4C221.4 205.6 222.2 214 228.2 218C247.4 232 271.4 240 297 240C365.8 240 421 182 416.6 112.4Z" fill="#ffffff"/>
</svg>
