<svg width="87" height="87" viewBox="0 0 87 87" fill="none" xmlns="http://www.w3.org/2000/svg">
<path d="M33.6623 63.5769C32.7854 63.575 31.9443 63.229 31.32 62.6132L17.738 49.2286C17.1621 48.5961 16.8503 47.767 16.8666 46.9117C16.883 46.0565 17.2264 45.2399 17.8261 44.6299C18.4258 44.0199 19.2364 43.6628 20.0912 43.6319C20.9461 43.601 21.7804 43.8986 22.4226 44.4637L33.6322 55.506L64.5507 24.4269C64.8585 24.1066 65.227 23.8507 65.6347 23.6743C66.0424 23.4979 66.4812 23.4044 66.9254 23.3993C67.3696 23.3943 67.8104 23.4777 68.222 23.6448C68.6337 23.8119 69.0079 24.0593 69.3229 24.3725C69.6379 24.6857 69.8874 25.0586 70.0568 25.4693C70.2263 25.88 70.3122 26.3203 70.3096 26.7645C70.3071 27.2087 70.2161 27.648 70.042 28.0567C69.8679 28.4655 69.6141 28.8354 69.2955 29.145L36.0347 62.6065C35.7225 62.9163 35.3522 63.1614 34.9451 63.3279C34.538 63.4944 34.1021 63.579 33.6623 63.5769Z" fill="#d24500"/>
<path d="M76.9615 87H10.0385C7.3761 87 4.82277 85.9424 2.9402 84.0598C1.05762 82.1772 0 79.6239 0 76.9615V10.0385C0 7.3761 1.05762 4.82277 2.9402 2.9402C4.82277 1.05762 7.3761 0 10.0385 0H76.9615C79.6239 0 82.1772 1.05762 84.0598 2.9402C85.9424 4.82277 87 7.3761 87 10.0385V76.9615C87 79.6239 85.9424 82.1772 84.0598 84.0598C82.1772 85.9424 79.6239 87 76.9615 87ZM10.0385 6.69231C9.15101 6.69231 8.2999 7.04485 7.67237 7.67237C7.04485 8.2999 6.69231 9.15101 6.69231 10.0385V76.9615C6.69231 77.849 7.04485 78.7001 7.67237 79.3276C8.2999 79.9552 9.15101 80.3077 10.0385 80.3077H76.9615C77.849 80.3077 78.7001 79.9552 79.3276 79.3276C79.9552 78.7001 80.3077 77.849 80.3077 76.9615V10.0385C80.3077 9.15101 79.9552 8.2999 79.3276 7.67237C78.7001 7.04485 77.849 6.69231 76.9615 6.69231H10.0385Z" fill="#d24500"/>
</svg>
