<svg width="55" height="55" viewBox="0 0 55 55" fill="none" xmlns="http://www.w3.org/2000/svg">
<path fill-rule="evenodd" clip-rule="evenodd" d="M27.5 0C12.3228 0 0 12.3228 0 27.5C0 42.6773 12.3228 55 27.5 55C42.6773 55 55 42.6773 55 27.5C55 12.3228 42.6773 0 27.5 0ZM27.5 3.66667C40.6542 3.66667 51.3333 14.3458 51.3333 27.5C51.3333 40.6542 40.6542 51.3333 27.5 51.3333C14.3458 51.3333 3.66667 40.6542 3.66667 27.5C3.66667 14.3458 14.3458 3.66667 27.5 3.66667Z" fill="#d24500"/>
<path fill-rule="evenodd" clip-rule="evenodd" d="M12.6555 28.8237L21.8222 37.9903C22.166 38.334 22.6322 38.5271 23.1183 38.5271C23.6045 38.5271 24.0707 38.334 24.4145 37.9903L42.2868 20.1181C42.6207 19.7723 42.8055 19.3092 42.8013 18.8285C42.7972 18.3478 42.6043 17.888 42.2644 17.5481C41.9245 17.2082 41.4647 17.0154 40.984 17.0112C40.5033 17.007 40.0402 17.1918 39.6944 17.5257L23.1183 34.1018L15.2478 26.2313C14.9021 25.8974 14.439 25.7126 13.9583 25.7168C13.4776 25.7209 13.0178 25.9137 12.6778 26.2537C12.3379 26.5936 12.1451 27.0534 12.1409 27.5341C12.1368 28.0148 12.3216 28.4779 12.6555 28.8237Z" fill="#d24500"/>
</svg>
