<svg width="96" height="114" viewBox="0 0 96 114" fill="none" xmlns="http://www.w3.org/2000/svg">
<path d="M46.8361 54.9143C54.3801 54.9143 60.9119 52.2083 66.2506 46.8697C71.5874 41.5322 74.294 35.0013 74.294 27.4564C74.294 19.9137 71.5883 13.3821 66.2497 8.04255C60.9111 2.70571 54.3792 0 46.8361 0C39.291 0 32.7598 2.70571 27.4223 8.04344C22.0848 13.3812 19.378 19.913 19.378 27.4564C19.378 35.0013 22.0846 41.5331 27.4225 46.8708C32.7618 52.2077 39.2936 54.9143 46.8359 54.9143H46.8361ZM32.1468 12.7671C36.2424 8.67133 41.047 6.68057 46.8361 6.68057C52.6243 6.68057 57.4296 8.67133 61.526 12.7671C65.6218 16.8635 67.6134 21.6689 67.6134 27.4561C67.6134 33.2452 65.6218 38.0499 61.526 42.1463C57.4296 46.2429 52.6243 48.2337 46.8361 48.2337C41.0486 48.2337 36.2444 46.2421 32.1468 42.1463C28.0502 38.0508 26.0585 33.2454 26.0585 27.4564C26.0585 21.6689 28.0502 16.8635 32.1468 12.7671ZM94.8801 87.6603C94.726 85.439 94.4147 83.0157 93.9563 80.4571C93.4936 77.879 92.898 75.442 92.1846 73.2146C91.4472 70.9123 90.4461 68.639 89.2066 66.4601C87.9219 64.1988 86.4123 62.2296 84.7179 60.6094C82.9462 58.9143 80.7771 57.5514 78.2686 56.557C75.7691 55.5684 72.9988 55.0675 70.0357 55.0675C68.8719 55.0675 67.7466 55.5448 65.573 56.96C64.028 57.9661 62.4784 58.9651 60.9242 59.957C59.4308 60.9086 57.4078 61.8001 54.9089 62.6073C52.4711 63.3961 49.9958 63.7962 47.5517 63.7962C45.1096 63.7962 42.6341 63.3961 40.1945 62.6073C37.6985 61.8008 35.6746 60.9095 34.1837 59.9579C32.4536 58.8524 30.8884 57.8435 29.5306 56.9589C27.3588 55.5439 26.2333 55.0663 25.0697 55.0663C22.1055 55.0663 19.3363 55.5682 16.8375 56.5581C14.3308 57.5505 12.1608 58.9134 10.3873 60.6103C8.69315 62.2314 7.18332 64.1995 5.89949 66.4601C4.66197 68.6388 3.66002 70.9114 2.92236 73.2155C2.20986 75.4429 1.61425 77.879 1.15158 80.4571C0.692237 83.0123 0.381855 85.4364 0.227777 87.6629C0.0763709 89.8398 0 92.1056 0 94.3947C0 100.346 1.89168 105.163 5.62206 108.716C9.30634 112.222 14.1805 114 20.1094 114H75.0012C80.9283 114 85.8024 112.222 89.4876 108.716C93.2189 105.166 95.1105 100.347 95.1105 94.3938C95.1097 92.0969 95.0324 89.8312 94.8801 87.6603ZM84.8815 103.876C82.447 106.193 79.2149 107.319 75 107.319H20.1096C15.8941 107.319 12.662 106.193 10.2284 103.877C7.84105 101.604 6.68079 98.5018 6.68079 94.3947C6.68079 92.2586 6.75115 90.1496 6.89231 88.1247C7.02947 86.1382 7.31046 83.9559 7.72727 81.6372C8.13852 79.3472 8.66198 77.1981 9.28475 75.2525C9.88236 73.3867 10.6973 71.5395 11.7079 69.7601C12.6725 68.0639 13.7822 66.6088 15.0068 65.4365C16.1523 64.3397 17.5963 63.4422 19.2974 62.7691C20.8706 62.1461 22.639 61.8053 24.5585 61.7538C24.7923 61.8785 25.2091 62.1159 25.884 62.5558C27.2573 63.4509 28.8402 64.472 30.5902 65.5895C32.563 66.8473 35.1041 67.9831 38.1405 68.9632C41.2445 69.9669 44.4105 70.4766 47.5528 70.4766C50.6954 70.4766 53.862 69.9669 56.9645 68.9641C60.0033 67.9822 62.5438 66.8473 64.5192 65.5877C66.31 64.4433 67.8486 63.4518 69.2217 62.5558C69.8968 62.1165 70.3134 61.8783 70.5474 61.754C72.4678 61.8052 74.2359 62.1461 75.8101 62.7689C77.5105 63.4422 78.9544 64.3406 80.0998 65.4363C81.3244 66.6079 82.4341 68.0632 83.3986 69.761C84.4101 71.5395 85.2262 73.3878 85.8227 75.2517C86.4463 77.1999 86.9707 79.3481 87.3813 81.6363C87.797 83.9595 88.0789 86.1426 88.2162 88.1256V88.1274C88.3581 90.1442 88.4293 92.2525 88.4302 94.3947C88.4293 98.5027 87.2691 101.604 84.8817 103.876H84.8815Z" fill="#202020"/>
</svg>
