<?xml version="1.0" encoding="UTF-8"?>
<svg id="_Слой_1" data-name="Слой 1" xmlns="http://www.w3.org/2000/svg" viewBox="0 0 50.33 49.5">
  <defs>
    <style>
      .cls-1 {
        fill: #999;
      }
    </style>
  </defs>
  <path class="cls-1" d="M35.65,20.92c0,.58-.47,1.05-1.05,1.05h-8.39v8.37c0,.58-.47,1.05-1.05,1.05s-1.05-.47-1.05-1.05v-8.37h-8.39c-.58,0-1.05-.47-1.05-1.05s.47-1.05,1.05-1.05h8.39v-8.37c0-.58.47-1.05,1.05-1.05s1.05.47,1.05,1.05v8.37h8.39c.58,0,1.05.47,1.05,1.05ZM50.33,7.32v27.19c0,4.04-3.29,7.32-7.34,7.32h-7.41l-8.36,6.89c-.57.5-1.3.77-2.05.77-.77,0-1.52-.28-2.1-.79l-8.17-6.87h-7.56c-4.05,0-7.34-3.28-7.34-7.32V7.32C0,3.28,3.29,0,7.34,0h35.65c4.05,0,7.34,3.28,7.34,7.32ZM48.23,7.32c0-2.88-2.35-5.23-5.24-5.23H7.34c-2.89,0-5.24,2.34-5.24,5.23v27.19c0,2.88,2.35,5.23,5.24,5.23h7.95c.25,0,.49.09.68.25l8.49,7.13c.4.37,1.01.37,1.42.02l8.68-7.16c.19-.16.42-.24.67-.24h7.78c2.89,0,5.24-2.35,5.24-5.23V7.32Z"/>
</svg>