<svg width="512" height="512" viewBox="0 0 512 512" fill="none" xmlns="http://www.w3.org/2000/svg">
<g clip-path="url(#clip0_2105_465)">
<path d="M208 480H112C94.352 480 80 465.648 80 448V131.84C80 123.456 83.424 115.2 89.392 109.232L157.232 41.392C163.237 35.4062 171.361 32.0312 179.84 32H400C417.648 32 432 46.352 432 64V192C432 196.243 433.686 200.313 436.686 203.314C439.687 206.314 443.757 208 448 208C452.243 208 456.313 206.314 459.314 203.314C462.314 200.313 464 196.243 464 192V64C464 28.704 435.296 0 400 0H179.84C162.88 0.055703 146.626 6.79986 134.608 18.768L66.768 86.608C54.8072 98.6306 48.0643 114.881 48 131.84V448C48 483.296 76.704 512 112 512H208C212.243 512 216.313 510.314 219.314 507.314C222.314 504.313 224 500.243 224 496C224 491.757 222.314 487.687 219.314 484.686C216.313 481.686 212.243 480 208 480Z" fill="black"/>
<path d="M493.248 289.6L470.624 266.992C446.432 242.784 404.272 242.816 380.128 266.992L266.992 380.112C254.896 392.208 248.24 408.272 248.24 425.376C248.24 442.48 254.896 458.544 266.992 470.624L289.616 493.248C295.543 499.211 302.595 503.938 310.361 507.157C318.128 510.376 326.457 512.022 334.864 512C343.272 512.025 351.601 510.38 359.368 507.161C367.135 503.942 374.186 499.213 380.112 493.248L436.688 436.688C445.68 427.68 450.73 415.472 450.73 402.744C450.73 390.016 445.68 377.808 436.688 368.8C418.56 350.656 386.912 350.688 368.816 368.8L323.536 414.064C322.05 415.551 320.872 417.315 320.069 419.257C319.265 421.199 318.852 423.28 318.853 425.382C318.853 427.483 319.268 429.564 320.073 431.505C320.878 433.447 322.057 435.211 323.544 436.696C325.031 438.182 326.795 439.36 328.737 440.163C330.679 440.967 332.76 441.38 334.862 441.379C336.963 441.378 339.044 440.964 340.985 440.159C342.927 439.354 344.69 438.175 346.176 436.688L391.456 391.408C394.503 388.502 398.553 386.883 402.763 386.886C406.974 386.889 411.021 388.514 414.064 391.424C420.304 397.664 420.304 407.824 414.064 414.064L357.488 470.624C345.392 482.72 324.32 482.72 312.24 470.624L289.6 448C283.552 441.952 280.224 433.92 280.224 425.376C280.224 416.832 283.552 408.784 289.6 402.736L402.72 289.616C414.832 277.52 435.888 277.52 447.984 289.616L470.608 312.24C476.656 318.288 479.984 326.32 479.984 334.864C479.984 343.408 476.656 351.44 470.608 357.488C469.08 358.964 467.861 360.729 467.022 362.682C466.184 364.634 465.742 366.733 465.724 368.858C465.706 370.982 466.11 373.089 466.915 375.055C467.719 377.022 468.907 378.808 470.41 380.31C471.912 381.813 473.698 383.001 475.665 383.805C477.631 384.61 479.738 385.014 481.862 384.996C483.987 384.978 486.086 384.536 488.038 383.698C489.991 382.859 491.756 381.64 493.232 380.112C499.196 374.188 503.926 367.141 507.148 359.376C510.369 351.612 512.019 343.286 512 334.88C512.023 326.472 510.377 318.144 507.158 310.377C503.939 302.61 499.211 295.559 493.248 289.632V289.6ZM352 160C352 155.757 350.314 151.687 347.314 148.686C344.313 145.686 340.243 144 336 144H176C171.757 144 167.687 145.686 164.686 148.686C161.686 151.687 160 155.757 160 160C160 164.243 161.686 168.313 164.686 171.314C167.687 174.314 171.757 176 176 176H336C340.243 176 344.313 174.314 347.314 171.314C350.314 168.313 352 164.243 352 160ZM176 224C171.757 224 167.687 225.686 164.686 228.686C161.686 231.687 160 235.757 160 240C160 244.243 161.686 248.313 164.686 251.314C167.687 254.314 171.757 256 176 256H256C260.243 256 264.313 254.314 267.314 251.314C270.314 248.313 272 244.243 272 240C272 235.757 270.314 231.687 267.314 228.686C264.313 225.686 260.243 224 256 224H176Z" fill="black"/>
</g>
<defs>
<clipPath id="clip0_2105_465">
<rect width="512" height="512" fill="white"/>
</clipPath>
</defs>
</svg>
