<svg width="512" height="360" viewBox="0 0 512 360" fill="none" xmlns="http://www.w3.org/2000/svg">
<path d="M331.756 201.251L288.875 244.277C271.486 261.727 240.89 262.103 223.125 244.277L180.242 201.251L26.2256 355.767C31.9586 358.418 38.2796 360 44.9996 360H467C473.72 360 480.039 358.42 485.77 355.768L331.756 201.251Z" fill="white"/>
<path d="M467 0H45C38.28 0 31.959 1.582 26.228 4.233L190.805 169.356C190.816 169.367 190.829 169.369 190.84 169.38C190.847 169.387 190.851 169.396 190.853 169.406L244.366 223.096C250.05 228.78 261.952 228.78 267.636 223.096L321.138 169.415C321.138 169.415 321.151 169.391 321.162 169.38C321.162 169.38 321.186 169.367 321.197 169.356L485.77 4.232C480.039 1.58 473.72 0 467 0ZM4.786 25.212C1.82 31.21 0 37.868 0 45V315C0 322.132 1.818 328.79 4.785 334.788L159.068 180.005L4.786 25.212ZM507.214 25.21L352.933 180.005L507.214 334.79C510.18 328.792 512 322.134 512 315V45C512 37.866 510.18 31.208 507.214 25.21Z" fill="white"/>
</svg>
