<svg width="107" height="95" viewBox="0 0 107 95" fill="none" xmlns="http://www.w3.org/2000/svg">
<path d="M3.65625 6.14753e-05H10.9687C12.9294 -0.0072903 14.8356 0.644946 16.3807 1.85189C17.9259 3.05883 19.0202 4.75035 19.4878 6.65444L21.4256 14.6251H97.5487C98.9094 14.6356 100.248 14.9733 101.45 15.6096C102.653 16.246 103.685 17.1623 104.459 18.2813C105.201 19.2582 105.701 20.3974 105.917 21.6051C106.133 22.8128 106.06 24.0545 105.702 25.2282L96.9637 60.1819C96.3798 61.8508 95.2847 63.2931 93.8341 64.3039C92.3835 65.3147 90.6512 65.8426 88.8834 65.8126H32.9062L33.4912 68.3719C33.59 68.706 33.7995 68.9965 34.0852 69.1958C34.3709 69.3952 34.7158 69.4914 35.0634 69.4688H88.5909C89.5606 69.4688 90.4906 69.854 91.1763 70.5397C91.862 71.2254 92.2472 72.1554 92.2472 73.1251C92.2472 74.0948 91.862 75.0247 91.1763 75.7104C90.4906 76.3961 89.5606 76.7813 88.5909 76.7813H34.9537C32.9408 76.7892 30.9839 76.1189 29.3985 74.8785C27.8132 73.6381 26.6918 71.8999 26.2153 69.9441L12.5044 8.26319C12.4179 7.93878 12.2108 7.65967 11.9253 7.48295C11.6399 7.30624 11.2977 7.24529 10.9687 7.31256H3.65625C2.68655 7.31256 1.75657 6.92735 1.07089 6.24167C0.385206 5.55599 -2.20537e-06 4.62601 -2.20537e-06 3.65631C-2.20537e-06 2.68661 0.385206 1.75663 1.07089 1.07095C1.75657 0.385273 2.68655 6.14753e-05 3.65625 6.14753e-05ZM31.1878 58.5001H88.8834C89.0848 58.5073 89.2851 58.4681 89.4689 58.3857C89.6527 58.3033 89.8152 58.1798 89.9437 58.0248L98.7187 23.0344C98.7733 22.9399 98.802 22.8328 98.802 22.7237C98.802 22.6145 98.7733 22.5074 98.7187 22.4129C98.5867 22.2333 98.4074 22.0938 98.2009 22.0099C97.9944 21.926 97.7686 21.901 97.5487 21.9376H23.0344L31.1878 58.5001ZM80.8762 80.1085C82.298 80.1526 83.676 80.6105 84.8415 81.426C86.007 82.2415 86.9093 83.3792 87.438 84.6997C87.9667 86.0203 88.0987 87.4664 87.8179 88.8608C87.5372 90.2553 86.8558 91.5376 85.8573 92.5507C84.8587 93.5638 83.5864 94.2636 82.1962 94.5645C80.8059 94.8654 79.3581 94.7543 78.03 94.2448C76.7019 93.7352 75.5513 92.8494 74.719 91.6959C73.8868 90.5423 73.4091 89.171 73.3444 87.7501C73.3249 86.7504 73.5055 85.757 73.8757 84.8283C74.246 83.8995 74.7983 83.0542 75.5001 82.3422C76.2019 81.6301 77.0392 81.0657 77.9624 80.6821C78.8857 80.2984 79.8764 80.1034 80.8762 80.1085ZM38.3906 80.1085C39.8142 80.1456 41.196 80.5975 42.3663 81.4088C43.5367 82.2201 44.4447 83.3555 44.9788 84.6755C45.513 85.9956 45.6501 87.4429 45.3733 88.8398C45.0965 90.2367 44.4179 91.5224 43.4207 92.539C42.4235 93.5557 41.1512 94.259 39.7599 94.5628C38.3686 94.8665 36.9189 94.7574 35.5888 94.2488C34.2587 93.7402 33.1059 92.8543 32.2722 91.6999C31.4384 90.5454 30.9599 89.1727 30.8953 87.7501C30.8759 86.7535 31.0554 85.7631 31.4233 84.8368C31.7913 83.9105 32.3403 83.0668 33.0383 82.3553C33.7362 81.6437 34.5691 81.0785 35.4881 80.6927C36.4071 80.3069 37.3939 80.1083 38.3906 80.1085Z" fill="#202020"/>
</svg>
