<svg width="122" height="122" viewBox="0 0 122 122" fill="none" xmlns="http://www.w3.org/2000/svg">
<path d="M61 122C27.4078 122 0 94.5922 0 61C0 27.4078 27.4078 0 61 0C94.5922 0 122 27.4078 122 61C122 94.5922 94.5922 122 61 122ZM61 5.62212C30.5 5.62212 5.62212 30.5 5.62212 61C5.62212 91.5 30.5 116.378 61 116.378C91.5 116.378 116.378 91.5 116.378 61C116.378 30.5 91.5 5.62212 61 5.62212ZM61 112.442C59.4539 112.442 58.1889 111.177 58.1889 109.631V101.339C58.1889 99.7926 59.4539 98.5276 61 98.5276C62.5461 98.5276 63.8111 99.7926 63.8111 101.339V109.631C63.8111 111.177 62.5461 112.442 61 112.442ZM95.4355 98.2465C94.7327 98.2465 94.0299 97.9654 93.4677 97.4032L87.5645 91.5C86.4401 90.3756 86.4401 88.6889 87.5645 87.5645C88.6889 86.4401 90.3756 86.4401 91.5 87.5645L97.4032 93.4677C98.5276 94.5922 98.5276 96.2788 97.4032 97.4032C96.841 97.9654 96.1382 98.2465 95.4355 98.2465ZM26.5645 98.2465C25.8617 98.2465 25.159 97.9654 24.5968 97.4032C23.4723 96.2788 23.4723 94.5922 24.5968 93.4677L30.5 87.5645C31.6244 86.4401 33.3111 86.4401 34.4355 87.5645C35.5599 88.6889 35.5599 90.3756 34.4355 91.5L28.5323 97.4032C27.97 97.9654 27.2673 98.2465 26.5645 98.2465ZM74.6336 80.818C73.9309 80.818 73.2281 80.5369 72.6659 79.9747L59.0323 66.341C58.47 65.7788 58.1889 65.076 58.1889 64.3733V31.6244C58.1889 30.0783 59.4539 28.8134 61 28.8134C62.5461 28.8134 63.8111 30.0783 63.8111 31.6244V63.1083L76.6014 75.8986C77.7258 77.023 77.7258 78.7097 76.6014 79.8341C76.0392 80.5369 75.3364 80.818 74.6336 80.818ZM109.631 63.8111H101.339C99.7926 63.8111 98.5276 62.5461 98.5276 61C98.5276 59.4539 99.7926 58.1889 101.339 58.1889H109.631C111.177 58.1889 112.442 59.4539 112.442 61C112.442 62.5461 111.177 63.8111 109.631 63.8111ZM20.6613 63.8111H12.3687C10.8226 63.8111 9.5576 62.5461 9.5576 61C9.5576 59.4539 10.8226 58.1889 12.3687 58.1889H20.6613C22.2074 58.1889 23.4723 59.4539 23.4723 61C23.4723 62.5461 22.2074 63.8111 20.6613 63.8111ZM89.5323 35.2788C88.8295 35.2788 88.1267 34.9977 87.5645 34.4355C86.4401 33.3111 86.4401 31.6244 87.5645 30.5L93.4677 24.5968C94.5922 23.4723 96.2788 23.4723 97.4032 24.5968C98.5276 25.7212 98.5276 27.4078 97.4032 28.5323L91.5 34.4355C91.0783 34.9977 90.235 35.2788 89.5323 35.2788ZM32.4677 35.2788C31.765 35.2788 31.0622 34.9977 30.5 34.4355L24.5968 28.5323C23.4723 27.4078 23.4723 25.7212 24.5968 24.5968C25.7212 23.4723 27.4078 23.4723 28.5323 24.5968L34.4355 30.5C35.5599 31.6244 35.5599 33.3111 34.4355 34.4355C33.8733 34.9977 33.1705 35.2788 32.4677 35.2788ZM61 23.4723C59.4539 23.4723 58.1889 22.2074 58.1889 20.6613V12.3687C58.1889 10.8226 59.4539 9.5576 61 9.5576C62.5461 9.5576 63.8111 10.8226 63.8111 12.3687V20.6613C63.8111 22.2074 62.5461 23.4723 61 23.4723Z" fill="#202020"/>
</svg>
