<svg width="481" height="447" viewBox="0 0 481 447" fill="none" xmlns="http://www.w3.org/2000/svg">
<path d="M425.781 177.652C421.832 178.246 418.281 180.385 415.909 183.598C413.537 186.81 412.538 190.834 413.132 194.783C431.16 309.887 338.768 417.358 222.077 416.346C-34.0883 405.748 -34.0672 40.701 222.077 30.1176C265.17 30.1176 305.925 43.9989 339.937 70.2585C343.098 72.6995 347.1 73.7846 351.062 73.2752C355.023 72.7657 358.62 70.7034 361.061 67.5418C363.502 64.3803 364.587 60.3786 364.078 56.4169C363.569 52.4553 361.506 48.8584 358.345 46.4173C319.011 16.0497 271.892 0 222.077 0C-74.0273 12.2368 -74.0243 434.233 222.077 446.464C356.968 447.624 463.799 323.379 442.909 190.298C442.617 188.342 441.942 186.462 440.922 184.767C439.903 183.072 438.559 181.595 436.968 180.42C435.376 179.245 433.569 178.395 431.649 177.92C429.729 177.444 427.734 177.352 425.778 177.649L425.781 177.652Z" fill="black"/>
<path d="M476.294 37.3309C474.893 35.935 473.231 34.8289 471.402 34.0758C469.573 33.3228 467.614 32.9375 465.636 32.9419C463.658 32.9464 461.701 33.3406 459.876 34.1019C458.05 34.8633 456.393 35.9769 454.998 37.3791L223.119 270.267L146.59 193.388C143.754 190.652 139.957 189.136 136.016 189.167C132.074 189.197 128.302 190.772 125.508 193.552C122.714 196.333 121.122 200.097 121.072 204.039C121.022 207.98 122.52 211.784 125.243 214.633L212.446 302.234C213.845 303.64 215.508 304.755 217.339 305.516C219.171 306.278 221.134 306.67 223.118 306.67C225.101 306.67 227.065 306.278 228.896 305.516C230.728 304.755 232.391 303.64 233.79 302.234L476.339 58.6271C479.157 55.7971 480.734 51.9642 480.726 47.9711C480.717 43.9781 479.123 40.1488 476.294 37.3309Z" fill="black"/>
</svg>
