<svg width="512" height="512" viewBox="0 0 512 512" fill="none" xmlns="http://www.w3.org/2000/svg">
<path fill-rule="evenodd" clip-rule="evenodd" d="M285.797 469.353C211.344 469.353 144.637 427.328 111.667 362.511C103.577 346.621 98.3681 323.301 107.992 305.534C112.381 297.43 121.807 287.304 141.702 285.149C165.286 282.598 186.914 270.119 201.033 250.884C203.557 247.447 208.383 246.706 211.82 249.231C215.257 251.756 215.997 256.582 213.472 260.019C196.802 282.73 171.248 297.47 143.368 300.484C132.726 301.634 125.402 305.799 121.569 312.871C115.223 324.597 118.938 342.734 125.429 355.505C156.297 416.21 217.755 453.912 285.797 453.912C384.945 453.912 465.612 373.246 465.612 274.098C465.612 174.95 384.945 94.283 285.797 94.283C250.183 94.283 211.555 102.995 205.58 122.454C200.134 140.155 229.706 159.483 232.681 194.898C233.037 199.142 229.878 202.883 225.634 203.227C221.391 203.57 217.65 200.424 217.306 196.181C214.609 164.043 182.379 145.404 190.827 117.907C201.971 81.6449 266.338 78.8291 285.797 78.8291C393.459 78.8291 481.04 166.41 481.04 274.071C481.053 381.772 393.459 469.353 285.797 469.353Z" fill="black"/>
<path fill-rule="evenodd" clip-rule="evenodd" d="M312.792 198.005C291.68 198.005 274.495 180.833 274.495 159.707C274.495 138.596 291.667 121.41 312.792 121.41C333.917 121.41 351.09 138.582 351.09 159.707C351.09 180.833 333.904 198.005 312.792 198.005ZM312.792 136.851C300.194 136.851 289.935 147.109 289.935 159.707C289.935 172.306 300.194 182.564 312.792 182.564C325.391 182.564 335.649 172.306 335.649 159.707C335.649 147.109 325.391 136.851 312.792 136.851ZM394.834 279.029C373.722 279.029 356.536 261.856 356.536 240.731C356.536 219.619 373.709 202.434 394.834 202.434C415.946 202.434 433.131 219.606 433.131 240.731C433.131 261.856 415.946 279.029 394.834 279.029ZM394.834 217.887C382.235 217.887 371.977 228.146 371.977 240.744C371.977 253.343 382.235 263.601 394.834 263.601C407.432 263.601 417.691 253.343 417.691 240.744C417.691 228.133 407.445 217.887 394.834 217.887ZM371.937 394.873C350.825 394.873 333.64 377.701 333.64 356.576C333.64 335.464 350.812 318.278 371.937 318.278C393.062 318.278 410.235 335.451 410.235 356.576C410.221 377.701 393.049 394.873 371.937 394.873ZM371.937 333.732C359.339 333.732 349.08 343.99 349.08 356.589C349.08 369.187 359.339 379.446 371.937 379.446C384.536 379.446 394.794 369.187 394.794 356.589C394.794 343.977 384.536 333.732 371.937 333.732ZM237.36 423.243C216.248 423.243 199.063 406.07 199.063 384.945C199.063 363.82 216.235 346.648 237.36 346.648C258.485 346.648 275.658 363.82 275.658 384.945C275.658 406.07 258.485 423.243 237.36 423.243ZM237.36 362.101C224.762 362.101 214.503 372.36 214.503 384.958C214.503 397.557 224.762 407.815 237.36 407.815C249.959 407.815 260.217 397.557 260.217 384.958C260.217 372.347 249.972 362.101 237.36 362.101ZM167.494 234.981C137.948 201.759 58.1538 111.376 37.1608 72.2326C32.4943 63.534 28.5284 53.791 34.5301 47.5249C41.4573 40.2805 53.593 45.608 69.6814 55.8269C110.834 81.9623 185.764 147.664 222.303 180.172C225.489 183.001 225.767 187.879 222.938 191.065C220.109 194.251 215.231 194.528 212.045 191.699C182.459 165.379 84.4214 78.697 49.0983 61.7625C66.1385 97.2707 153.151 195.625 179.022 224.722C181.851 227.908 181.573 232.786 178.387 235.615C175.228 238.431 170.35 238.18 167.494 234.981Z" fill="black"/>
<path fill-rule="evenodd" clip-rule="evenodd" d="M213.842 266.814C198.798 262.385 178.295 243.494 168.538 235.959C164.837 233.09 164.546 227.657 167.798 224.392L211.714 180.476C215.006 177.184 220.439 177.541 223.281 181.216C230.83 190.986 249.708 211.463 254.136 226.52C255.339 230.605 252.999 234.901 248.914 236.104C244.829 237.307 240.533 234.968 239.33 230.883C236.514 221.325 222.686 204.998 216.566 197.463L184.772 229.257C192.36 235.417 208.634 249.205 218.192 252.021C222.277 253.224 224.617 257.507 223.414 261.605C222.211 265.69 217.901 268.017 213.842 266.814Z" fill="black"/>
<path fill-rule="evenodd" clip-rule="evenodd" d="M227.644 288.613C222.118 288.613 216.579 286.511 212.362 282.294C203.941 273.873 203.941 260.164 212.362 251.73L239.039 225.053C247.447 216.645 261.156 216.618 269.603 225.053C278.024 233.474 278.024 247.182 269.603 255.617L242.926 282.294C238.722 286.498 233.183 288.613 227.644 288.613ZM254.334 234.161C252.669 234.161 251.122 234.795 249.972 235.959L223.281 262.636C220.875 265.042 220.875 268.968 223.281 271.374C225.687 273.78 229.613 273.78 232.019 271.374L258.697 244.697C262.583 240.81 259.82 234.161 254.334 234.161Z" fill="black"/>
<path fill-rule="evenodd" clip-rule="evenodd" d="M297.907 331.049C284.885 331.049 270.357 327.492 255.841 318.159C255.656 318.04 255.485 317.908 255.299 317.776C230.936 298.978 232.601 279.069 235.761 268.889C237.03 264.818 241.353 262.544 245.411 263.8C249.483 265.069 251.757 269.392 250.501 273.45C247.024 284.687 251.717 295.408 264.474 305.349C290.504 321.94 315.846 315.515 327.096 306.579C308.826 302.904 299.374 289.512 291.601 278.5C281.356 263.972 276.147 257.811 260.085 264.249C256.132 265.836 251.638 263.906 250.051 259.953C248.465 256 250.395 251.505 254.348 249.919C282.4 238.696 294.496 255.828 304.212 269.603C312.131 280.827 319.6 291.416 335.53 292.077C336.231 292.103 336.931 292.235 337.605 292.447C348.194 295.897 351.116 309.937 332.542 321.61C323.95 327.003 311.787 331.049 297.907 331.049ZM94.6137 146.409C87.8055 146.409 84.2891 138.107 89.154 133.242L120.339 102.056C123.353 99.0424 128.245 99.0424 131.246 102.056C134.26 105.071 134.26 109.962 131.246 112.963L100.073 144.148C98.5664 145.655 96.5967 146.409 94.6137 146.409Z" fill="black"/>
</svg>
