<svg width="512" height="512" viewBox="0 0 512 512" fill="none" xmlns="http://www.w3.org/2000/svg">
<path d="M510.4 340.07C510.4 340.06 510.4 340.06 510.4 340.07C505.36 321.27 491.69 304.42 472.89 293.81C464.203 288.899 454.734 285.523 444.9 283.83C452.57 277.447 459.085 269.792 464.16 261.2C475.14 242.62 478.55 221.18 473.53 202.38V202.37C466.84 177.51 441.18 162.69 416.31 169.34C405.29 172.3 395.92 179.07 389.62 188.52L370.23 116.17C369.681 114.125 368.343 112.381 366.51 111.32C364.671 110.264 362.489 109.977 360.44 110.52L294.85 128.1C290.59 129.24 288.06 133.63 289.2 137.89L316.57 240.05H7.99977C3.58977 240.05 0.00976562 243.63 0.00976562 248.04V486.01C0.00976563 490.43 3.58977 494 7.99977 494H326.76C331.17 494 334.75 490.42 334.75 486.01V307.95L383.01 488.08C383.466 489.779 384.47 491.281 385.865 492.353C387.261 493.425 388.97 494.007 390.73 494.01C391.41 494.01 392.11 493.92 392.8 493.74L458.39 476.17C460.437 475.621 462.182 474.281 463.242 472.445C464.301 470.609 464.588 468.428 464.04 466.38L444.66 394.05C451.15 397.26 458.16 398.89 465.25 398.89C469.29 398.89 473.35 398.36 477.35 397.28C489.37 394.07 499.43 386.33 505.68 375.5C511.94 364.66 513.61 352.08 510.4 340.07ZM15.9898 256.04H134.11V478.02H15.9898V256.04ZM150.1 478.02V256.04H184.63V478.02H150.1ZM318.76 478.02H200.62V256.04H318.77V478.02H318.76ZM342.73 275.92L392.87 262.48L401.33 294.04L401.7 295.4L402.41 298.03L410.53 328.33L360.4 341.76L342.73 275.92ZM401.81 199.14C405.93 192 412.55 186.9 420.44 184.79C423.026 184.095 425.692 183.742 428.37 183.74C441.93 183.74 454.39 192.81 458.08 206.52C465.29 233.51 449.27 269.79 414.97 283.13L409.85 264.05L398.71 222.41C396.59 214.54 397.69 206.28 401.81 199.14ZM356.85 128.04L388.74 247.05L338.59 260.49L306.7 141.48L356.85 128.04ZM396.39 476.23L364.51 357.23L414.66 343.79L446.54 462.79L396.39 476.23ZM491.84 367.5C487.72 374.63 481.11 379.72 473.22 381.83C465.33 383.95 457.06 382.85 449.93 378.73C442.8 374.61 437.7 368 435.6 360.1L428.12 332.21L428.06 331.93L419.34 299.42C455.71 293.81 487.71 317.23 494.96 344.2C497.06 352.09 495.96 360.37 491.84 367.5ZM101.05 86.4002L128.22 106.05L117.78 137.9C115.8 143.95 117.94 150.53 123.05 154.22C125.63 156.12 128.66 157.07 131.69 157.07C134.71 157.07 137.72 156.13 140.29 154.24L167.37 134.51L194.43 154.25C199.59 157.99 206.48 158 211.61 154.26C216.78 150.54 218.91 143.98 216.93 137.9L206.52 106.05L233.62 86.4302C238.81 82.7202 240.97 76.1402 238.98 70.0502C238.028 67.1118 236.168 64.5509 233.669 62.7361C231.169 60.9212 228.159 59.9458 225.07 59.9502L191.54 60.0302L181.25 28.1402C179.32 22.0702 173.73 17.9902 167.34 17.9902C161.01 17.9902 155.42 22.0502 153.44 28.1202L143.14 60.0302L109.62 59.9502C103.27 59.9502 97.6698 64.0102 95.6998 70.0502C93.7598 76.1002 95.8898 82.6702 101.05 86.4002ZM144.15 76.0102C150.5 76.0102 156.1 71.9502 158.08 65.8802L167.37 37.1002L176.67 65.9102C177.626 68.8531 179.49 71.4171 181.995 73.2336C184.499 75.0502 187.516 76.0258 190.61 76.0202L220.88 75.9402L196.41 93.6602C191.21 97.3702 189.06 103.97 191.05 110.07L200.45 138.83L176 120.99C170.83 117.23 163.9 117.24 158.8 121L134.33 138.83L143.75 110.07C145.73 104 143.59 97.4202 138.43 93.6902L113.89 75.9402L144.15 76.0102ZM259.41 157.48C263.83 157.48 267.4 161.06 267.4 165.47C267.4 169.88 263.82 173.46 259.41 173.46C235.42 173.46 215.9 192.98 215.9 216.97C215.9 221.39 212.32 224.96 207.91 224.96C203.5 224.96 199.92 221.38 199.92 216.97C199.91 184.17 226.6 157.48 259.41 157.48ZM67.3598 165.48C67.3598 161.06 70.9398 157.49 75.3498 157.49C108.16 157.49 134.85 184.18 134.85 216.99C134.85 221.41 131.27 224.98 126.86 224.98C122.45 224.98 118.87 221.4 118.87 216.99C118.87 193 99.3498 173.48 75.3598 173.48C70.9398 173.47 67.3598 169.89 67.3598 165.48Z" fill="black"/>
</svg>
