<svg width="512" height="512" viewBox="0 0 512 512" fill="none" xmlns="http://www.w3.org/2000/svg">
<g clip-path="url(#clip0_57_13)">
<path d="M403.894 237.332C376.278 232.524 345.686 239.59 315.421 257.769C310.708 260.604 306.11 263.628 301.64 266.832C293.059 256.658 283.617 246.382 273.531 236.295C262.529 225.293 251.303 215.06 240.229 205.874C244.007 199.762 247.507 193.483 250.719 187.055C271.604 145.142 274.389 105.717 258.776 73.0461C258.316 72.0835 257.671 71.2209 256.878 70.5076C256.085 69.7943 255.159 69.2443 254.153 68.8889C253.147 68.5336 252.081 68.38 251.016 68.4368C249.951 68.4936 248.907 68.7598 247.945 69.2201C246.001 70.1489 244.506 71.8117 243.789 73.8427C243.071 75.8737 243.19 78.1066 244.119 80.0501C263.616 120.848 245.359 165.839 227.349 195.62C216.706 187.501 206.346 180.487 196.633 174.897C169.449 159.256 150.592 156.396 140.584 166.402C140.28 166.706 139.988 167.019 139.708 167.34C138.668 168.187 137.854 169.277 137.337 170.514L136.546 172.412C136.454 172.628 136.36 172.842 136.275 173.063L98.2388 264.339L98.2348 264.348L98.1338 264.591L52.2068 374.801L52.2038 374.808L29.7308 428.733L29.7248 428.75L0.624813 498.578C0.110974 499.813 -0.0902355 501.155 0.0390355 502.486C0.168306 503.816 0.624061 505.095 1.36586 506.207C2.10767 507.32 3.11258 508.232 4.29146 508.863C5.47033 509.494 6.78671 509.824 8.12381 509.824C9.19554 509.824 10.2566 509.612 11.2458 509.199L101.063 471.771C101.072 471.767 101.081 471.764 101.091 471.761L172.368 442.057L172.372 442.055L247.802 410.622L247.848 410.606L330.436 376.189L330.45 376.181L339.311 372.488C340.584 371.955 341.699 371.107 342.553 370.023C342.844 369.765 343.145 369.519 343.423 369.241C353.43 359.234 350.572 340.377 334.928 313.192C328.822 302.58 321.025 291.2 311.931 279.518C332.897 264.686 366.192 247.251 401.106 253.334C402.157 253.517 403.233 253.492 404.274 253.259C405.315 253.026 406.3 252.591 407.173 251.977C408.046 251.363 408.789 250.584 409.36 249.683C409.931 248.782 410.319 247.777 410.502 246.726C410.685 245.675 410.659 244.599 410.426 243.558C410.193 242.517 409.757 241.533 409.144 240.66C408.53 239.788 407.751 239.045 406.85 238.474C405.949 237.903 404.945 237.515 403.894 237.332ZM23.2088 486.617L41.0698 443.756C53.2568 451.107 65.5548 457.821 77.8428 463.849L23.2088 486.617ZM169.026 425.853C149.168 418.79 129.07 409.765 109.236 398.96C108.299 398.45 107.271 398.129 106.211 398.016C105.15 397.903 104.077 398 103.054 398.301C102.031 398.603 101.077 399.103 100.247 399.773C99.4176 400.443 98.7279 401.27 98.2178 402.207C97.7074 403.144 97.3865 404.172 97.2735 405.232C97.1604 406.293 97.2574 407.366 97.5589 408.389C97.8605 409.412 98.3606 410.366 99.0308 411.195C99.701 412.025 100.528 412.715 101.465 413.225C116.617 421.48 131.935 428.753 147.206 434.946L98.0678 455.423C81.1848 447.84 64.1768 438.836 47.3868 428.597L63.3768 390.225C66.5195 392.311 69.684 394.363 72.8698 396.382C74.689 397.495 76.873 397.848 78.9503 397.365C81.0276 396.882 82.8317 395.602 83.973 393.8C85.1144 391.998 85.5015 389.82 85.0507 387.736C84.6 385.651 83.3475 383.827 81.5638 382.658C77.5906 380.139 73.6516 377.566 69.7478 374.94L86.0608 335.793C130.203 367.73 175.063 390.828 219.821 404.687L169.026 425.853ZM244.049 394.587C193.592 382.119 142.674 357.196 92.5708 320.45L109.108 280.532C138.843 303.813 169.298 323.261 199.771 338.42C201.699 339.38 203.93 339.533 205.972 338.848C208.015 338.163 209.701 336.694 210.66 334.766C211.62 332.837 211.774 330.606 211.088 328.564C210.403 326.522 208.934 324.836 207.006 323.876C176.308 308.604 145.577 288.785 115.582 264.939L140.433 205.305C141.072 206.82 141.741 208.321 142.441 209.809L142.491 209.917C142.805 210.586 143.132 211.262 143.466 211.944L143.66 212.344C143.955 212.941 144.26 213.545 144.57 214.151C144.679 214.367 144.784 214.579 144.896 214.794C145.181 215.347 145.478 215.907 145.774 216.468C145.916 216.735 146.052 217 146.196 217.268C146.506 217.846 146.827 218.432 147.149 219.018C147.285 219.266 147.416 219.511 147.555 219.76C147.975 220.516 148.407 221.281 148.848 222.051L148.975 222.275C149.009 222.333 149.04 222.391 149.075 222.45C149.154 222.588 149.242 222.728 149.321 222.865C149.709 223.534 150.096 224.204 150.499 224.883C150.676 225.18 150.867 225.484 151.046 225.782C151.921 227.239 152.81 228.687 153.713 230.127C154.634 231.593 155.571 233.05 156.523 234.497C157.492 235.972 158.474 237.438 159.469 238.895C160.23 240.01 160.998 241.12 161.774 242.224L162.548 243.319C163.419 244.544 164.297 245.764 165.182 246.978L165.768 247.776C166.743 249.104 167.726 250.427 168.718 251.742C168.854 251.923 168.994 252.105 169.132 252.287C170.204 253.702 171.286 255.109 172.378 256.508L172.65 256.853C173.81 258.336 174.98 259.811 176.161 261.278L176.317 261.471C177.551 263.003 178.796 264.526 180.052 266.04L180.167 266.176C181.453 267.726 182.75 269.268 184.058 270.8L184.189 270.953C185.506 272.496 186.834 274.031 188.172 275.557L188.414 275.829C189.733 277.33 191.06 278.824 192.397 280.309C192.558 280.488 192.724 280.666 192.885 280.846C194.159 282.258 195.441 283.662 196.732 285.059C197.04 285.391 197.355 285.723 197.664 286.055C198.834 287.316 200.011 288.572 201.195 289.82C201.712 290.364 202.239 290.904 202.759 291.448C203.762 292.495 204.761 293.544 205.779 294.588C206.847 295.684 207.931 296.773 209.013 297.865C209.503 298.359 209.983 298.855 210.476 299.348C210.946 299.817 211.418 300.275 211.888 300.742C213.003 301.849 214.119 302.958 215.239 304.049C216.271 305.054 217.306 306.042 218.341 307.033C218.896 307.565 219.449 308.104 220.004 308.632C221.268 309.829 222.538 311.02 223.814 312.204C224.13 312.498 224.445 312.798 224.762 313.09C226.166 314.388 227.578 315.677 228.998 316.958C229.17 317.114 229.342 317.273 229.515 317.429C231.004 318.77 232.502 320.102 234.008 321.425L234.266 321.653C235.798 322.998 237.34 324.332 238.891 325.656L239.019 325.766C240.567 327.087 242.124 328.397 243.69 329.696L243.772 329.765C245.351 331.075 246.939 332.373 248.536 333.66C250.116 334.932 251.705 336.193 253.304 337.442C254.714 338.542 256.133 339.632 257.558 340.713L258.072 341.104C259.395 342.103 260.726 343.093 262.064 344.073C262.322 344.263 262.58 344.453 262.837 344.64C264.069 345.539 265.296 346.418 266.518 347.285C266.876 347.538 267.234 347.794 267.591 348.044L268.003 348.335C256.531 344.833 245.231 340.787 234.143 336.212C233.157 335.806 232.1 335.597 231.033 335.6C229.967 335.602 228.911 335.814 227.926 336.224C226.942 336.634 226.047 337.234 225.295 337.99C224.542 338.746 223.946 339.643 223.54 340.629C223.134 341.615 222.926 342.672 222.928 343.738C222.93 344.805 223.142 345.86 223.552 346.845C223.963 347.829 224.563 348.723 225.318 349.476C226.074 350.229 226.971 350.825 227.957 351.231C251.312 360.85 274.509 367.939 297.241 372.421L244.049 394.587ZM320.849 321.296C335.096 346.055 333.684 356.01 331.938 357.756C331.835 357.855 331.721 357.944 331.6 358.019L331.597 358.02C331.498 358.084 331.395 358.141 331.289 358.192C331.205 358.232 331.119 358.27 331.033 358.305L330.94 358.343C330.84 358.381 330.734 358.416 330.624 358.45L330.559 358.471C326.607 359.625 315.622 358.291 295.26 346.541C294.29 345.978 293.325 345.407 292.364 344.828C290.997 344.01 289.639 343.176 288.291 342.326C287.369 341.747 286.451 341.161 285.537 340.569C285.088 340.278 284.636 339.982 284.183 339.686C283.14 339.002 282.102 338.31 281.069 337.612C280.728 337.381 280.385 337.146 280.042 336.912C277.34 335.067 274.668 333.178 272.028 331.245L271.639 330.959C270.246 329.938 268.861 328.906 267.484 327.863L267.367 327.774C258.48 321.037 249.353 313.455 240.228 305.223L240.015 305.028C238.561 303.716 237.115 302.394 235.678 301.063C235.452 300.853 235.224 300.637 234.998 300.426C233.698 299.22 232.404 298.006 231.118 296.785C230.647 296.337 230.177 295.879 229.706 295.427C228.65 294.416 227.593 293.405 226.539 292.378C225.534 291.398 224.532 290.401 223.529 289.407C223.007 288.889 222.483 288.38 221.962 287.859C221.432 287.329 220.916 286.798 220.391 286.267C219.405 285.273 218.417 284.28 217.445 283.282C216.412 282.222 215.396 281.159 214.378 280.096C213.933 279.631 213.48 279.168 213.039 278.703C211.823 277.421 210.614 276.132 209.412 274.837C209.195 274.604 208.974 274.372 208.759 274.14C207.434 272.709 206.118 271.269 204.811 269.821L204.6 269.589C196.371 260.466 188.791 251.34 182.055 242.455L181.962 242.333C180.921 240.959 179.89 239.576 178.871 238.185L178.579 237.788C177.652 236.52 176.734 235.244 175.826 233.962L175.326 233.257C174.506 232.094 173.707 230.937 172.92 229.786C172.684 229.439 172.446 229.093 172.213 228.747C171.213 227.268 170.228 225.78 169.257 224.282C168.314 222.824 167.387 221.357 166.474 219.88C165.974 219.07 165.484 218.264 165.003 217.463C164.422 216.499 163.849 215.531 163.284 214.558C151.529 194.188 150.201 183.202 151.359 179.256L151.367 179.231C151.405 179.105 151.445 178.987 151.487 178.876C151.496 178.852 151.507 178.831 151.515 178.807C151.554 178.708 151.595 178.614 151.637 178.528L151.653 178.497C151.703 178.401 151.753 178.31 151.806 178.227L151.809 178.22C151.893 178.089 151.98 177.974 152.069 177.885C152.622 177.332 153.997 176.813 156.403 176.813C161.6 176.813 171.608 179.235 188.529 188.974C197.955 194.398 208.056 201.266 218.463 209.26C209.992 221.381 203.197 228.837 202.911 229.147C202.185 229.928 201.619 230.845 201.247 231.845C200.875 232.844 200.704 233.907 200.743 234.973C200.782 236.039 201.03 237.087 201.474 238.057C201.918 239.027 202.549 239.9 203.33 240.626C204.831 242.025 206.807 242.802 208.859 242.8C211.037 242.8 213.209 241.928 214.81 240.207C215.3 239.681 222.35 232.037 231.215 219.501C241.448 228.065 251.831 237.567 262.045 247.781C271.652 257.388 280.636 267.147 288.798 276.788C282.119 282.392 278.248 286.368 277.941 286.684C276.446 288.233 275.626 290.312 275.663 292.464C275.7 294.616 276.59 296.666 278.138 298.162C279.651 299.629 281.676 300.448 283.784 300.445C284.873 300.447 285.95 300.229 286.953 299.805C287.956 299.38 288.863 298.759 289.62 297.976C289.752 297.84 293.152 294.384 299.07 289.426C307.707 300.518 315.09 311.286 320.849 321.296Z" fill="black"/>
<path d="M336.705 116.46C332.29 115.791 328.138 118.822 327.447 123.246C327.378 123.69 319.982 168.208 274.762 213.427C273.274 214.958 272.449 217.012 272.464 219.146C272.479 221.281 273.333 223.323 274.842 224.833C276.352 226.342 278.394 227.197 280.529 227.212C282.663 227.227 284.717 226.402 286.248 224.914C335.487 175.674 343.202 127.706 343.507 125.688C344.174 121.261 341.131 117.138 336.705 116.46ZM211.694 55.4181C211.694 46.4011 208.182 37.9241 201.806 31.5491C195.431 25.1721 186.953 21.6611 177.936 21.6611C168.919 21.6611 160.443 25.1721 154.066 31.5471C147.691 37.9221 144.178 46.4001 144.178 55.4171C144.178 64.4341 147.69 72.9111 154.066 79.2861C160.443 85.6621 168.919 89.1731 177.936 89.1731C186.953 89.1731 195.43 85.6621 201.806 79.2861C208.182 72.9111 211.694 64.4351 211.694 55.4181ZM190.321 67.8021C188.698 69.4332 186.768 70.7273 184.643 71.6075C182.517 72.4878 180.238 72.9376 177.937 72.9311C173.26 72.9311 168.862 71.1091 165.554 67.8021C162.246 64.4951 160.425 60.0981 160.425 55.4191C160.419 53.1183 160.869 50.839 161.749 48.7133C162.629 46.5876 163.923 44.6576 165.554 43.0351C167.176 41.404 169.106 40.1109 171.232 39.2307C173.357 38.3505 175.636 37.9006 177.937 37.9071C182.614 37.9071 187.012 39.7291 190.321 43.0361C191.952 44.6584 193.246 46.5883 194.126 48.7138C195.006 50.8394 195.456 53.1184 195.45 55.4191C195.45 60.0971 193.628 64.4951 190.321 67.8021ZM359.344 31.5491C346.182 18.3881 324.766 18.3881 311.605 31.5491C305.23 37.9241 301.717 46.4021 301.717 55.4191C301.717 64.4361 305.229 72.9131 311.605 79.2891C318.185 85.8691 326.83 89.1591 335.475 89.1591C344.119 89.1591 352.763 85.8691 359.345 79.2891C365.72 72.9141 369.233 64.4361 369.233 55.4191C369.233 46.4021 365.719 37.9241 359.344 31.5491ZM347.857 67.8021C341.029 74.6321 329.919 74.6301 323.091 67.8021C319.784 64.4951 317.962 60.0981 317.962 55.4191C317.962 50.7401 319.784 46.3431 323.091 43.0361C326.505 39.6211 330.989 37.9151 335.474 37.9151C339.959 37.9151 344.443 39.6231 347.858 43.0361C349.489 44.6584 350.783 46.5883 351.663 48.7138C352.543 50.8394 352.993 53.1184 352.987 55.4191C352.993 57.7198 352.543 59.9988 351.662 62.1243C350.781 64.2498 349.488 66.1796 347.857 67.8021ZM454.85 330.348C441.688 317.188 420.272 317.188 407.111 330.348C393.949 343.51 393.949 364.926 407.111 378.088C413.692 384.668 422.336 387.958 430.981 387.958C439.626 387.958 448.27 384.668 454.851 378.088C468.012 364.926 468.012 343.51 454.85 330.348ZM443.363 366.601C436.535 373.431 425.425 373.431 418.597 366.601C411.769 359.773 411.769 348.664 418.597 341.836C422.011 338.421 426.496 336.715 430.981 336.715C435.466 336.715 439.95 338.422 443.365 341.836C450.191 348.663 450.191 359.773 443.363 366.601ZM453.12 142.948C452.993 141.889 452.658 140.866 452.134 139.936C451.611 139.007 450.91 138.19 450.07 137.531C449.231 136.873 448.27 136.387 447.243 136.1C446.216 135.814 445.142 135.732 444.083 135.861C442.347 136.07 400.976 141.59 349.867 192.698C348.379 194.229 347.554 196.283 347.569 198.417C347.584 200.552 348.438 202.594 349.947 204.104C351.457 205.613 353.499 206.468 355.634 206.483C357.768 206.498 359.822 205.673 361.353 204.185C385.813 179.724 407.563 166.83 421.503 160.319C436.497 153.316 445.901 152.004 446.071 151.981C448.202 151.713 450.139 150.613 451.46 148.92C452.781 147.227 453.378 145.08 453.12 142.948ZM470.517 35.2381L456.919 29.1441C453.106 27.4361 450.056 24.3849 448.348 20.5721L442.254 6.97508C441.613 5.54548 440.572 4.33177 439.257 3.48019C437.942 2.62862 436.409 2.17554 434.842 2.17554C433.275 2.17554 431.742 2.62862 430.427 3.48019C429.112 4.33177 428.071 5.54548 427.43 6.97508L421.336 20.5731C419.629 24.3861 416.578 27.4371 412.765 29.1441L399.168 35.2381C397.738 35.8789 396.524 36.9196 395.672 38.2348C394.821 39.55 394.367 41.0835 394.368 42.6504C394.368 44.2173 394.821 45.7508 395.673 47.0658C396.525 48.3809 397.739 49.4215 399.169 50.0621L412.767 56.1561C416.58 57.8634 419.631 60.9148 421.338 64.7281L427.432 78.3251C428.073 79.7547 429.114 80.9684 430.429 81.82C431.744 82.6715 433.277 83.1246 434.844 83.1246C436.411 83.1246 437.944 82.6715 439.259 81.82C440.574 80.9684 441.615 79.7547 442.256 78.3251L448.349 64.7281C450.056 60.9148 453.107 57.8634 456.92 56.1561L470.517 50.0621C471.947 49.4214 473.161 48.3807 474.013 47.0656C474.865 45.7505 475.318 44.217 475.318 42.6501C475.318 41.0832 474.865 39.5497 474.013 38.2346C473.161 36.9194 471.947 35.8788 470.517 35.2381ZM434.844 55.4581C431.845 50.0843 427.411 45.6499 422.037 42.6501C427.411 39.6502 431.845 35.2159 434.844 29.8421C437.844 35.2156 442.278 39.6499 447.651 42.6501C442.277 45.6499 437.843 50.0843 434.844 55.4581ZM108.669 145.631L95.071 139.537C91.2582 137.829 88.2073 134.778 86.5 130.965L80.406 117.368C79.765 115.938 78.7242 114.725 77.4092 113.873C76.0941 113.022 74.5608 112.569 72.994 112.569C71.4273 112.569 69.894 113.022 68.5789 113.873C67.2638 114.725 66.223 115.938 65.582 117.368L59.488 130.965C57.7811 134.778 54.7301 137.83 50.917 139.537L37.32 145.631C35.8901 146.272 34.676 147.312 33.8241 148.628C32.9723 149.943 32.519 151.476 32.519 153.043C32.519 154.61 32.9723 156.143 33.8241 157.459C34.676 158.774 35.8901 159.814 37.32 160.455L50.918 166.549C54.7308 168.256 57.7817 171.307 59.489 175.12L65.583 188.718C66.224 190.148 67.2648 191.361 68.5799 192.213C69.895 193.065 71.4283 193.518 72.995 193.518C74.5618 193.518 76.0951 193.065 77.4102 192.213C78.7252 191.361 79.766 190.148 80.407 188.718L86.5 175.12C88.2074 171.307 91.2588 168.256 95.072 166.549L108.669 160.455C110.099 159.814 111.313 158.774 112.165 157.459C113.017 156.143 113.47 154.61 113.47 153.043C113.47 151.476 113.017 149.943 112.165 148.628C111.313 147.312 110.099 146.272 108.669 145.631ZM72.995 165.851C69.995 160.478 65.5611 156.044 60.188 153.044C65.5614 150.044 69.9953 145.61 72.995 140.236C75.9945 145.61 80.4285 150.044 85.802 153.044C80.4287 156.044 75.9948 160.478 72.995 165.851ZM336.092 444.6L322.494 438.506C318.681 436.798 315.63 433.747 313.923 429.934L307.829 416.337C307.188 414.908 306.147 413.694 304.832 412.842C303.517 411.991 301.984 411.538 300.417 411.538C298.85 411.538 297.317 411.991 296.002 412.842C294.687 413.694 293.646 414.908 293.005 416.337L286.911 429.934C285.204 433.747 282.153 436.799 278.34 438.506L264.743 444.6C263.313 445.241 262.099 446.281 261.247 447.597C260.395 448.912 259.942 450.445 259.942 452.012C259.942 453.579 260.395 455.112 261.247 456.428C262.099 457.743 263.313 458.783 264.743 459.424L278.341 465.518C282.154 467.226 285.205 470.277 286.912 474.09L293.006 487.687C293.647 489.117 294.688 490.33 296.003 491.182C297.318 492.034 298.851 492.487 300.418 492.487C301.985 492.487 303.518 492.034 304.833 491.182C306.148 490.33 307.189 489.117 307.83 487.687L313.924 474.09C315.631 470.277 318.682 467.225 322.495 465.518L336.092 459.424C337.522 458.783 338.736 457.743 339.588 456.428C340.44 455.112 340.893 453.579 340.893 452.012C340.893 450.445 340.44 448.912 339.588 447.597C338.736 446.281 337.522 445.241 336.092 444.6ZM300.419 464.82C297.42 459.446 292.986 455.012 287.612 452.012C292.986 449.012 297.42 444.578 300.419 439.204C303.418 444.578 307.852 449.012 313.226 452.012C307.853 455.012 303.419 459.447 300.419 464.82ZM507.2 209.611L493.602 203.517C489.789 201.81 486.738 198.759 485.031 194.946L478.937 181.348C478.296 179.918 477.255 178.705 475.94 177.853C474.625 177.002 473.092 176.549 471.525 176.549C469.958 176.549 468.425 177.002 467.11 177.853C465.795 178.705 464.754 179.918 464.113 181.348L458.02 194.946C456.312 198.759 453.261 201.809 449.448 203.517L435.851 209.611C434.421 210.252 433.207 211.292 432.355 212.608C431.503 213.923 431.05 215.456 431.05 217.023C431.05 218.59 431.503 220.123 432.355 221.439C433.207 222.754 434.421 223.794 435.851 224.435L449.447 230.529C453.26 232.237 456.311 235.288 458.019 239.101L464.113 252.698C464.754 254.128 465.795 255.341 467.11 256.193C468.425 257.045 469.958 257.498 471.525 257.498C473.092 257.498 474.625 257.045 475.94 256.193C477.255 255.341 478.296 254.128 478.937 252.698L485.03 239.101C486.738 235.288 489.789 232.237 493.602 230.529L507.199 224.435C508.629 223.794 509.843 222.754 510.695 221.439C511.547 220.124 512 218.59 512.001 217.023C512.001 215.456 511.547 213.923 510.696 212.608C509.844 211.293 508.63 210.252 507.2 209.611ZM471.528 229.831C468.528 224.457 464.094 220.023 458.72 217.023C464.094 214.023 468.528 209.589 471.528 204.216C474.528 209.589 478.962 214.023 484.336 217.023C478.962 220.023 474.528 224.457 471.528 229.831Z" fill="black"/>
</g>
<defs>
<clipPath id="clip0_57_13">
<rect width="512" height="512" fill="white"/>
</clipPath>
</defs>
</svg>
