<svg width="428" height="512" viewBox="0 0 428 512" fill="none" xmlns="http://www.w3.org/2000/svg">
<path d="M111.601 384H128.667C130.931 384 133.101 383.101 134.701 381.501C136.302 379.9 137.201 377.73 137.201 375.467C137.201 373.204 136.302 371.033 134.701 369.433C133.101 367.832 130.931 366.933 128.667 366.933H111.601C109.338 366.933 107.167 367.832 105.567 369.433C103.966 371.033 103.067 373.204 103.067 375.467C103.067 377.73 103.966 379.9 105.567 381.501C107.167 383.101 109.338 384 111.601 384Z" fill="black"/>
<path d="M367.6 366.933H162.8C160.537 366.933 158.366 367.832 156.766 369.433C155.166 371.033 154.267 373.204 154.267 375.467C154.267 377.73 155.166 379.9 156.766 381.501C158.366 383.101 160.537 384 162.8 384H367.6C369.863 384 372.034 383.101 373.634 381.501C375.234 379.9 376.133 377.73 376.133 375.467C376.133 373.204 375.234 371.033 373.634 369.433C372.034 367.832 369.863 366.933 367.6 366.933Z" fill="black"/>
<path d="M111.601 332.8H128.667C130.931 332.8 133.101 331.901 134.701 330.301C136.302 328.7 137.201 326.53 137.201 324.267C137.201 322.004 136.302 319.833 134.701 318.233C133.101 316.632 130.931 315.733 128.667 315.733H111.601C109.338 315.733 107.167 316.632 105.567 318.233C103.966 319.833 103.067 322.004 103.067 324.267C103.067 326.53 103.966 328.7 105.567 330.301C107.167 331.901 109.338 332.8 111.601 332.8Z" fill="black"/>
<path d="M367.6 315.733H162.8C160.537 315.733 158.366 316.632 156.766 318.233C155.166 319.833 154.267 322.004 154.267 324.267C154.267 326.53 155.166 328.7 156.766 330.301C158.366 331.901 160.537 332.8 162.8 332.8H367.6C369.863 332.8 372.034 331.901 373.634 330.301C375.234 328.7 376.133 326.53 376.133 324.267C376.133 322.004 375.234 319.833 373.634 318.233C372.034 316.632 369.863 315.733 367.6 315.733Z" fill="black"/>
<path d="M111.601 281.6H128.667C130.931 281.6 133.101 280.701 134.701 279.101C136.302 277.5 137.201 275.33 137.201 273.067C137.201 270.803 136.302 268.633 134.701 267.033C133.101 265.432 130.931 264.533 128.667 264.533H111.601C109.338 264.533 107.167 265.432 105.567 267.033C103.966 268.633 103.067 270.803 103.067 273.067C103.067 275.33 103.966 277.5 105.567 279.101C107.167 280.701 109.338 281.6 111.601 281.6Z" fill="black"/>
<path d="M367.6 264.533H162.8C160.537 264.533 158.366 265.432 156.766 267.033C155.166 268.633 154.267 270.803 154.267 273.067C154.267 275.33 155.166 277.5 156.766 279.101C158.366 280.701 160.537 281.6 162.8 281.6H367.6C369.863 281.6 372.034 280.701 373.634 279.101C375.234 277.5 376.133 275.33 376.133 273.067C376.133 270.803 375.234 268.633 373.634 267.033C372.034 265.432 369.863 264.533 367.6 264.533Z" fill="black"/>
<path d="M111.601 230.4H128.667C130.931 230.4 133.101 229.501 134.701 227.901C136.302 226.3 137.201 224.13 137.201 221.867C137.201 219.603 136.302 217.433 134.701 215.833C133.101 214.232 130.931 213.333 128.667 213.333H111.601C109.338 213.333 107.167 214.232 105.567 215.833C103.966 217.433 103.067 219.603 103.067 221.867C103.067 224.13 103.966 226.3 105.567 227.901C107.167 229.501 109.338 230.4 111.601 230.4Z" fill="black"/>
<path d="M367.6 213.333H162.8C160.537 213.333 158.366 214.232 156.766 215.833C155.166 217.433 154.267 219.603 154.267 221.867C154.267 224.13 155.166 226.3 156.766 227.901C158.366 229.501 160.537 230.4 162.8 230.4H367.6C369.863 230.4 372.034 229.501 373.634 227.901C375.234 226.3 376.133 224.13 376.133 221.867C376.133 219.603 375.234 217.433 373.634 215.833C372.034 214.232 369.863 213.333 367.6 213.333Z" fill="black"/>
<path d="M111.601 179.2H128.667C130.931 179.2 133.101 178.301 134.701 176.701C136.302 175.1 137.201 172.93 137.201 170.667C137.201 168.403 136.302 166.233 134.701 164.633C133.101 163.032 130.931 162.133 128.667 162.133H111.601C109.338 162.133 107.167 163.032 105.567 164.633C103.966 166.233 103.067 168.403 103.067 170.667C103.067 172.93 103.966 175.1 105.567 176.701C107.167 178.301 109.338 179.2 111.601 179.2Z" fill="black"/>
<path d="M154.267 170.667C154.267 172.93 155.166 175.1 156.766 176.701C158.366 178.301 160.537 179.2 162.8 179.2H367.6C369.863 179.2 372.034 178.301 373.634 176.701C375.234 175.1 376.133 172.93 376.133 170.667C376.133 168.403 375.234 166.233 373.634 164.633C372.034 163.032 369.863 162.133 367.6 162.133H162.8C160.537 162.133 158.366 163.032 156.766 164.633C155.166 166.233 154.267 168.403 154.267 170.667Z" fill="black"/>
<path d="M9.20033 512H367.6C369.864 512 372.034 511.101 373.634 509.501C375.235 507.9 376.134 505.73 376.134 503.467V460.8H418.8C421.064 460.8 423.234 459.901 424.834 458.301C426.435 456.7 427.334 454.53 427.334 452.267V128C427.334 127.812 427.24 127.65 427.223 127.462C427.18 126.715 427.034 125.977 426.788 125.269C426.694 124.996 426.625 124.732 426.506 124.467C426.091 123.539 425.513 122.692 424.799 121.967L305.333 2.50027C304.608 1.78688 303.761 1.20889 302.832 0.7936C302.568 0.674133 302.303 0.605867 302.039 0.512C301.325 0.266601 300.582 0.117377 299.829 0.0682667C299.684 0.0938667 299.521 0 299.334 0H60.4003C58.1371 0 55.9667 0.899045 54.3664 2.49936C52.766 4.09967 51.867 6.27015 51.867 8.53333V34.1333H9.20033C6.93715 34.1333 4.76666 35.0324 3.16635 36.6327C1.56604 38.233 0.666992 40.4035 0.666992 42.6667V503.467C0.666992 505.73 1.56604 507.9 3.16635 509.501C4.76666 511.101 6.93715 512 9.20033 512ZM398.201 119.467H307.867V29.1328L398.201 119.467ZM68.9337 17.0667H290.8V128C290.8 130.263 291.699 132.434 293.3 134.034C294.9 135.634 297.07 136.533 299.334 136.533H410.267V443.733H68.9337V17.0667ZM17.7337 51.2H51.867V452.267C51.867 454.53 52.766 456.7 54.3664 458.301C55.9667 459.901 58.1371 460.8 60.4003 460.8H359.067V494.933H17.7337V51.2Z" fill="black"/>
<path d="M111.601 145.067H162.801C165.064 145.067 167.234 144.168 168.835 142.567C170.435 140.967 171.334 138.797 171.334 136.533V85.3334C171.334 83.0702 170.435 80.8997 168.835 79.2994C167.234 77.6991 165.064 76.8 162.801 76.8H111.601C109.338 76.8 107.167 77.6991 105.567 79.2994C103.966 80.8997 103.067 83.0702 103.067 85.3334V136.533C103.067 138.797 103.966 140.967 105.567 142.567C107.167 144.168 109.338 145.067 111.601 145.067ZM120.134 93.8667H154.267V128H120.134V93.8667Z" fill="black"/>
</svg>
