<svg width="420" height="494" viewBox="0 0 420 494" fill="none" xmlns="http://www.w3.org/2000/svg">
<path d="M411.021 67.013L213.829 0.627004C211.344 -0.209001 208.655 -0.209001 206.171 0.627004L8.97862 67.013C6.59749 67.8147 4.52805 69.3435 3.06208 71.384C1.59611 73.4244 0.807559 75.8735 0.807617 78.386V243.211C0.807617 365.291 87.8296 470.673 207.728 493.783C209.228 494.073 210.769 494.073 212.27 493.783C332.167 470.673 419.19 365.291 419.19 243.211V78.386C419.19 75.8736 418.402 73.4244 416.937 71.3839C415.471 69.3434 413.402 67.8145 411.021 67.013ZM395.191 243.211C395.191 353.04 317.453 447.948 210 469.768C102.547 447.948 24.8086 353.04 24.8086 243.211V87.008L210 24.662L395.191 87.008V243.211ZM187.725 290.563L313.998 169.663C318.785 165.08 326.381 165.245 330.965 170.032C335.548 174.819 335.383 182.415 330.596 186.999L196.194 315.682C193.961 317.823 190.987 319.017 187.894 319.014C184.887 319.017 181.99 317.888 179.778 315.853L104.821 247.015C99.9396 242.532 99.6166 234.941 104.099 230.059C108.582 225.178 116.174 224.856 121.055 229.337L187.725 290.563Z" fill="black"/>
</svg>
