<svg width="512" height="512" viewBox="0 0 512 512" fill="none" xmlns="http://www.w3.org/2000/svg">
<g clip-path="url(#clip0_57_9)">
<path d="M500.87 133.269H344.198C358.089 126.212 371.512 117.531 382.331 106.712C406.773 82.2699 406.773 42.5119 382.331 18.0689C358.645 -5.61711 317.374 -5.63911 293.688 18.0689C276.235 35.5209 263.925 59.5189 256 81.8239C248.075 59.5189 235.765 35.5209 218.312 18.0689C194.604 -5.63911 153.31 -5.61711 129.669 18.0689C105.227 42.5109 105.227 82.2689 129.669 106.712C140.488 117.531 153.911 126.212 167.802 133.269H11.13C4.986 133.269 0 138.255 0 144.399V233.442C0 239.586 4.986 244.572 11.13 244.572H22.26V500.572C22.26 506.716 27.246 511.702 33.39 511.702H478.607C484.751 511.702 489.737 506.716 489.737 500.572V244.572H500.867C507.011 244.572 511.997 239.586 511.997 233.442V144.399C512 138.255 507.014 133.269 500.87 133.269ZM200.348 489.443H44.522V244.573H200.348V489.443ZM200.348 222.312H22.261V155.53H200.348V222.312ZM145.408 90.9729C129.647 75.2119 129.647 49.5679 145.408 33.8069C153.043 26.1489 163.194 21.9639 173.991 21.9639C184.788 21.9639 194.916 26.1489 202.574 33.8069C231.179 62.4119 244.625 115.504 244.936 132.912C244.936 133.023 244.914 133.179 244.914 133.268H243.69C225.592 132.646 173.657 119.2 145.408 90.9729ZM289.391 489.443H222.608V244.573H289.391V489.443ZM289.391 222.312H222.608V155.53H289.391V222.312ZM268.31 133.269H267.086C267.086 133.18 267.064 133.024 267.064 132.913C267.376 115.505 280.821 62.4129 309.426 33.8079C317.084 26.1499 327.212 21.9649 338.009 21.9649C348.806 21.9649 358.957 26.1499 366.592 33.8079C382.353 49.5689 382.353 75.2129 366.592 90.9739C338.343 119.2 286.408 132.646 268.31 133.269ZM467.478 489.443H311.652V244.573H467.478V489.443ZM489.739 222.312H311.652V155.53H489.739V222.312Z" fill="black"/>
</g>
<defs>
<clipPath id="clip0_57_9">
<rect width="512" height="512" fill="white"/>
</clipPath>
</defs>
</svg>
