<svg width="512" height="512" viewBox="0 0 512 512" fill="none" xmlns="http://www.w3.org/2000/svg">
<path d="M496 184H272C267.2 184 264 187.2 264 192V245.6L244 240.8L222.4 219.2C246.4 196.8 248 149.6 248 136C277.6 136 298.4 128 306.4 113.6C309.6 107.2 312 96.8 303.2 83.2C294.4 70.4 283.2 64 268 64H239.2C236.8 49.6 227.2 19.2 189.6 10.4C181.6 8.8 170.4 8 168 8C84.8 8 72 48 72 72V112C72 117.6 74.4 124 79.2 128.8C75.2 133.6 72 141.6 72 152C72 172 85.6 180.8 97.6 183.2C101.6 195.2 107.2 204 112.8 211.2L83.2 240.8C76.8 248 84.8 255.2 84.8 255.2L50.4 289.6C47.2 293.6 16 325.6 16 352C16 353.6 16 354.4 16.8 355.2L56.8 435.2C57.6 437.6 60 438.4 61.6 439.2C62.4 439.2 69.6 441.6 80 441.6C80 442.4 79.2 487.2 79.2 487.2C79.2 492 82.4 495.2 87.2 495.2C92 495.2 95.2 492 95.2 487.2V464.8C107.2 479.2 126.4 495.2 151.2 495.2C176 495.2 221.6 479.2 261.6 464.8C268.8 462.4 275.2 460 281.6 457.6C283.2 456.8 284.8 456.8 287.2 456V488C287.2 492.8 290.4 496 295.2 496C300 496 303.2 492.8 303.2 488V452C317.6 448.8 331.2 447.2 343.2 448H399.2C412.8 448 431.2 443.2 436.8 428.8C438.4 424.8 439.2 420.8 439.2 416H495.2C500 416 503.2 412.8 503.2 408V192C504 187.2 500.8 184 496 184ZM408 200V243.2L387.2 232.8C386.4 232 385.6 232 384 232C382.4 232 381.6 232 380.8 232.8L360 243.2V200H408ZM174.4 244C173.6 242.4 169.6 240 169.6 240C179.2 240 187.2 238.4 195.2 236L192 245.6L184 266.4C184 266.4 175.2 244 174.4 244ZM213.6 232.8L230.4 249.6L222.4 264.8L208.8 246.4L213.6 232.8ZM228 80C220.8 85.6 214.4 92.8 209.6 99.2C196 119.2 184 120 184 120H141.6C144.8 116.8 148 112.8 150.4 108.8C160 94.4 177.6 80 192 80H228ZM289.6 92.8C293.6 98.4 294.4 103.2 292 106.4C288.8 112.8 275.2 120 248 120H247.2C245.6 105.6 243.2 95.2 241.6 89.6C250.4 84 259.2 80 268 80C276.8 80 284 84 289.6 92.8ZM88 72C88 43.2 111.2 31.2 137.6 26.4C124 40.8 120 59.2 120 72C120 76.8 123.2 80 128 80C132 80 136 76.8 136 72C136 67.2 137.6 28.8 176.8 24.8C211.2 28 220.8 52 223.2 64H192C170.4 64 148.8 81.6 137.6 99.2C124 119.2 112 120 112 120H96C89.6 120 88 116 88 112V72ZM104 168C101.6 168 88 167.2 88 152C88 137.6 94.4 136 96 136H184C186.4 136 204.8 135.2 222.4 108.8C224 106.4 225.6 104 228 101.6C229.6 108.8 232 120.8 232 136.8C232 137.6 235.2 181.6 212 207.2C201.6 218.4 186.4 224 168 224C167.2 224 125.6 223.2 112 173.6C110.4 170.4 107.2 168 104 168ZM120.8 226.4L156 249.6L134.4 276.8L99.2 248L120.8 226.4ZM32 350.4C33.6 333.6 53.6 309.6 61.6 301.6L96.8 266.4L130.4 294.4C132 296 133.6 296 135.2 296H136C138.4 296 140 294.4 141.6 292.8L164.8 263.2L176 290.4C177.6 293.6 180 295.2 183.2 295.2C186.4 295.2 189.6 293.6 190.4 290.4L200.8 264L216 284.8C217.6 287.2 220 288 223.2 288C225.6 288 228 286.4 229.6 284L242.4 257.6L262.4 262.4V389.6C250.4 393.6 236 398.4 220.8 403.2C208.8 407.2 196.8 411.2 185.6 415.2C172 420 156 414.4 148.8 401.6L117.6 348C115.2 344 110.4 343.2 106.4 345.6C102.4 348 101.6 352.8 104 356.8L126.4 393.6C113.6 431.2 79.2 428 68.8 425.6L32 350.4ZM422.4 422.4C420 428.8 408.8 432 400 432H344.8C318.4 430.4 291.2 438.4 277.6 443.2C271.2 445.6 264 448 257.6 450.4C220 463.2 174.4 480 152 480C124 480 104 451.2 97.6 440.8C111.2 437.6 126.4 430.4 137.6 411.2C146.4 424.8 161.6 432.8 177.6 432.8C182.4 432.8 187.2 432 192 430.4C202.4 427.2 214.4 423.2 227.2 418.4C262.4 406.4 305.6 392 316.8 392H372.8C375.2 392 380 393.6 380.8 400H360C355.2 400 352 403.2 352 408C352 412.8 355.2 416 360 416C360 416 420.8 416.8 424 416.8C424 418.4 423.2 420.8 422.4 422.4ZM488 400H396.8C396 382.4 382.4 376 372.8 376H316.8C309.6 376 297.6 379.2 280 384V200H344V256C344 258.4 345.6 261.6 348 263.2C350.4 264.8 353.6 264.8 356 263.2L384.8 248.8L413.6 263.2C413.6 264 414.4 264 416 264C417.6 264 419.2 264 420 263.2C422.4 261.6 424 259.2 424 256V200H488V400Z" fill="black"/>
<path d="M344 344H312C307.2 344 304 347.2 304 352C304 356.8 307.2 360 312 360H344C348.8 360 352 356.8 352 352C352 347.2 348.8 344 344 344ZM312 336H328C332.8 336 336 332.8 336 328C336 323.2 332.8 320 328 320H312C307.2 320 304 323.2 304 328C304 332.8 307.2 336 312 336Z" fill="black"/>
</svg>
