<svg width="512" height="512" viewBox="0 0 512 512" fill="none" xmlns="http://www.w3.org/2000/svg">
<path d="M394.992 482.608C388.56 482.608 381.504 480.496 373.872 476.288L201.024 348.672C200.073 347.964 199.291 347.055 198.733 346.009C198.176 344.963 197.856 343.807 197.798 342.624C197.74 341.44 197.945 340.258 198.397 339.163C198.85 338.067 199.539 337.086 200.416 336.288L405.152 152.048C406.728 150.629 408.804 149.894 410.922 150.005C413.041 150.116 415.028 151.064 416.448 152.64C417.867 154.217 418.602 156.292 418.491 158.411C418.38 160.529 417.432 162.517 415.856 163.936L218.416 341.632L382.48 462.848C386.816 465.168 394.144 468.112 399.36 465.696C404.672 463.264 407.296 455.504 408.576 449.424L478.576 119.552C481.296 108.656 479.984 99.8881 475.136 95.8561C471.44 92.7841 465.936 92.5601 459.984 95.2481L48.5279 253.936C35.9039 259.008 31.9359 264.224 31.9999 265.952C32.0479 267.088 34.7679 270.224 42.8799 272.704L144.88 304.544L256.864 233.888C258.654 232.865 260.769 232.572 262.77 233.071C264.77 233.57 266.501 234.822 267.6 236.565C268.7 238.309 269.085 240.41 268.673 242.43C268.262 244.45 267.086 246.234 265.392 247.408L150.288 320.032C149.307 320.648 148.204 321.046 147.056 321.198C145.907 321.35 144.739 321.252 143.632 320.912L38.1599 287.984C19.4399 282.256 16.2399 272.144 16.0159 266.624C15.6959 259.056 20.0639 248.112 42.6879 239.056L453.808 80.5281C464.96 75.4401 476.928 76.5281 485.392 83.5841C495.2 91.7601 498.4 106.192 494.176 123.168L424.24 452.736C421.296 466.784 415.184 476.048 406.048 480.24C402.58 481.828 398.806 482.637 394.992 482.608Z" fill="#263238"/>
<path d="M394.992 482.608C388.56 482.608 381.504 480.496 373.872 476.288L266.352 396.944C265.475 396.333 264.73 395.552 264.16 394.647C263.59 393.743 263.207 392.733 263.034 391.679C262.86 390.624 262.9 389.545 263.151 388.506C263.402 387.466 263.858 386.488 264.493 385.628C265.129 384.768 265.93 384.045 266.849 383.5C267.769 382.955 268.789 382.6 269.848 382.455C270.907 382.311 271.984 382.38 273.016 382.659C274.048 382.939 275.014 383.422 275.856 384.08L382.48 462.848C386.816 465.168 394.144 468.112 399.36 465.696C404.672 463.264 407.296 455.504 408.576 449.424L478.576 119.552C481.296 108.656 479.984 99.8881 475.136 95.8561C471.44 92.7841 465.936 92.5601 459.984 95.2481L48.5279 253.936C35.9039 259.008 31.9359 264.224 31.9999 265.952C32.0479 267.088 34.7679 270.224 42.8799 272.704L148.384 305.632C149.629 306.023 150.76 306.711 151.679 307.636C152.599 308.562 153.28 309.697 153.664 310.944L189.936 430.32C190.912 432.992 191.664 435.648 192.32 437.952C192.832 439.776 193.472 442.048 193.904 442.72C193.84 442.64 195.12 443.024 198.528 443.04C205.68 443.04 208.4 440.368 213.84 435.072L240.4 409.248C241.926 407.794 243.964 407.001 246.071 407.042C248.179 407.082 250.185 407.953 251.654 409.464C253.123 410.975 253.937 413.005 253.918 415.113C253.898 417.221 253.048 419.236 251.552 420.72L225.44 446.08C219.008 452.368 212.192 459.024 198.528 459.024C182.848 459.024 179.68 452.08 176.912 442.288C176.352 440.304 175.712 438.016 174.752 435.376L139.584 319.648L38.1599 287.984C19.4399 282.256 16.2399 272.144 16.0159 266.624C15.6959 259.056 20.0639 248.112 42.6879 239.056L453.808 80.5281C464.96 75.4401 476.928 76.5281 485.392 83.5841C495.2 91.7601 498.4 106.192 494.176 123.168L424.24 452.736C421.296 466.784 415.184 476.048 406.048 480.24C402.58 481.828 398.806 482.637 394.992 482.608Z" fill="#263238"/>
<path d="M296 224C296 228.4 292.4 232 288 232C285.88 231.996 283.847 231.152 282.348 229.652C280.848 228.153 280.004 226.12 280 224C280 219.6 283.6 216 288 216C292.4 216 296 219.6 296 224Z" fill="#263238"/>
</svg>
