<svg width="512" height="300" viewBox="0 0 512 300" fill="none" xmlns="http://www.w3.org/2000/svg">
<g clip-path="url(#clip0_79_39)">
<path d="M479.992 299.658H415.989C411.13 299.669 406.334 298.569 401.965 296.442C397.597 294.316 393.773 291.218 390.784 287.387L328.383 207.787C327.017 206.04 325.14 204.763 323.014 204.133C320.889 203.503 318.619 203.551 316.522 204.271C314.426 204.989 312.605 206.342 311.313 208.143C310.022 209.944 309.324 212.102 309.316 214.318V246.32C309.316 275.791 280.646 299.658 245.313 299.658C231.499 299.784 217.94 295.943 206.244 288.592C116.639 231.253 55.8348 158.85 3.03531 46.5802C0.746372 41.7053 -0.275309 36.3316 0.0649028 30.9569C0.405114 25.5821 2.09621 20.3801 4.98156 15.8328C7.86691 11.2854 11.8532 7.53978 16.5711 4.94276C21.2891 2.34575 26.5862 0.981379 31.9717 0.976024H95.9747C102.239 0.961033 108.371 2.78488 113.608 6.22147C118.846 9.65806 122.961 14.5563 125.441 20.3089L132.64 37.1107C143.519 62.3521 158.128 85.8158 175.978 106.716C176.56 107.341 177.388 107.684 178.244 107.649C178.633 107.686 179.026 107.641 179.397 107.517C179.768 107.392 180.108 107.191 180.397 106.927C180.686 106.664 180.917 106.343 181.075 105.985C181.232 105.626 181.313 105.239 181.311 104.848V63.1119C166.67 57.8817 157.911 42.885 160.54 27.5633C163.169 12.2426 176.429 1.02803 191.979 0.976024H277.313C294.986 0.976024 309.315 15.3047 309.315 32.9775V107.649C309.318 109.967 310.078 112.221 311.477 114.07C312.876 115.918 314.84 117.26 317.07 117.893C319.301 118.526 321.676 118.415 323.838 117.576C325.999 116.738 327.829 115.218 329.05 113.247L388.65 16.3087C391.491 11.6055 395.503 7.7201 400.295 5.03249C405.087 2.34488 410.495 0.94715 415.989 0.976024H479.992C485.795 0.978337 491.488 2.55864 496.462 5.54779C501.436 8.53694 505.503 12.8224 508.229 17.9455C510.955 23.0686 512.236 28.8364 511.936 34.6317C511.635 40.427 509.765 46.0315 506.524 50.8454L439.321 144.05C437.997 145.872 437.284 148.066 437.284 150.318C437.284 152.569 437.997 154.763 439.321 156.585L505.993 248.988C509.426 253.77 511.473 259.407 511.91 265.278C512.346 271.149 511.155 277.026 508.468 282.264C505.78 287.502 501.7 291.897 496.676 294.965C491.652 298.034 485.879 299.658 479.992 299.658ZM319.984 182.317C324.842 182.307 329.638 183.407 334.005 185.534C338.373 187.66 342.196 190.757 345.184 194.587L407.585 274.188C408.579 275.471 409.853 276.51 411.309 277.226C412.765 277.942 414.366 278.317 415.989 278.321H479.992C481.961 278.327 483.894 277.787 485.576 276.761C487.257 275.736 488.622 274.265 489.519 272.512C490.417 270.758 490.811 268.791 490.658 266.827C490.506 264.863 489.813 262.98 488.656 261.386L421.989 168.984C418.05 163.532 415.93 156.977 415.93 150.251C415.93 143.524 418.05 136.969 421.989 131.517L489.058 38.5798C490.113 36.9024 490.667 34.9589 490.656 32.9775C490.656 27.0872 485.882 22.309 479.992 22.309H415.989C414.171 22.3104 412.383 22.7767 410.796 23.6636C409.209 24.5505 407.875 25.8285 406.921 27.3763L347.317 124.314C339.856 136.572 325.144 142.366 311.327 138.482C297.51 134.603 287.971 121.998 287.983 107.649V32.9775C287.983 27.0872 283.204 22.309 277.314 22.309H191.978C186.083 22.309 181.31 27.0872 181.31 32.9775C181.31 38.8678 186.083 43.646 191.978 43.646H202.643V104.849C202.583 109.793 201.024 114.603 198.17 118.642C195.316 122.68 191.303 125.756 186.662 127.463C182.02 129.168 176.97 129.424 172.181 128.195C167.391 126.966 163.087 124.312 159.84 120.583C140.622 98.0795 124.892 72.8192 113.173 45.6461L105.837 28.8453C105.021 26.9042 103.65 25.2477 101.894 24.0846C100.139 22.9215 98.0792 22.3037 95.9737 22.309H31.9707C28.3305 22.329 24.9503 24.2041 23.0052 27.2823C22.0484 28.7968 21.4885 30.5279 21.3771 32.316C21.2658 34.104 21.6067 35.8912 22.3682 37.5127C73.9726 147.248 130.639 214.853 217.842 270.724C226.105 275.784 235.624 278.417 245.313 278.321C268.779 278.321 287.983 263.922 287.983 246.32V214.318C287.983 196.645 302.307 182.317 319.984 182.317Z" fill="black"/>
</g>
<defs>
<clipPath id="clip0_79_39">
<rect width="512" height="300" fill="white"/>
</clipPath>
</defs>
</svg>
