<svg width="448" height="336" viewBox="0 0 448 336" fill="none" xmlns="http://www.w3.org/2000/svg">
<path d="M416 0.8078H32C23.5163 0.818385 15.3831 4.19321 9.38427 10.1921C3.3854 16.1909 0.0105848 24.3241 0 32.8078V303.2C0.0105848 311.684 3.3854 319.817 9.38427 325.816C15.3831 331.814 23.5163 335.189 32 335.2H416C424.484 335.189 432.617 331.814 438.616 325.816C444.615 319.817 447.989 311.684 448 303.2V32.7998C447.989 24.3161 444.615 16.1829 438.616 10.1841C432.617 4.1852 424.484 0.818385 416 0.8078ZM416 16.8078C417.38 16.8263 418.752 17.0253 420.08 17.3998L237.384 200.104C233.83 203.646 229.017 205.634 224 205.634C218.983 205.634 214.17 203.646 210.616 200.104L27.92 17.3998C34.296 15.2398 409.992 17.7198 416 16.8078ZM432 303.2C431.996 307.442 430.309 311.509 427.309 314.509C424.309 317.509 420.242 319.196 416 319.2H32C27.7578 319.196 23.6906 317.509 20.691 314.509C17.6913 311.509 16.0042 307.442 16 303.2V32.7998C16.0195 31.4141 16.2212 30.0369 16.6 28.7038L199.304 211.408C205.858 217.949 214.74 221.623 224 221.623C233.26 221.623 242.142 217.949 248.696 211.408L431.4 28.7198C431.777 30.0477 431.979 31.4194 432 32.7998V303.2Z" fill="black"/>
<path d="M306.696 187.384C305.187 185.927 303.166 185.12 301.069 185.138C298.971 185.157 296.965 185.998 295.482 187.481C293.998 188.965 293.157 190.971 293.139 193.069C293.121 195.166 293.927 197.187 295.384 198.696L397.544 300.856C399.053 302.313 401.074 303.119 403.171 303.101C405.269 303.083 407.275 302.242 408.759 300.758C410.242 299.275 411.083 297.269 411.102 295.171C411.12 293.074 410.313 291.053 408.856 289.544L306.696 187.384ZM141.304 187.384L39.1441 289.544C37.6869 291.053 36.8805 293.074 36.8987 295.171C36.917 297.269 37.7583 299.275 39.2416 300.758C40.7249 302.242 42.7313 303.083 44.8289 303.101C46.9265 303.119 48.9473 302.313 50.4561 300.856L152.616 198.696C154.073 197.187 154.88 195.166 154.862 193.069C154.843 190.971 154.002 188.965 152.519 187.481C151.035 185.998 149.029 185.157 146.931 185.138C144.834 185.12 142.813 185.927 141.304 187.384Z" fill="black"/>
</svg>
