<svg width="512" height="512" viewBox="0 0 512 512" fill="none" xmlns="http://www.w3.org/2000/svg">
<g clip-path="url(#clip0_64_58)">
<path d="M217.6 266.7L228.2 245.8C228.2 245.7 228.3 245.6 228.3 245.5C234.9 231.1 220.5 211.8 180.2 181.1C178.5 179.8 176.3 179.3 174.2 179.8C172.1 180.3 170.3 181.7 169.3 183.6L158.7 204.5C157.1 207.6 158 211.5 160.8 213.6C179 227.5 189.7 237.6 196 244.7C184.8 245.3 169.7 244.4 149.7 242C141.8 241.1 136.1 241.4 131.8 243.1C128.9 244.3 126.4 246.5 124.9 249.3L123.6 251.7L114.5 269C105.8 281.2 121.6 300.8 141.5 325.3C149.4 335 157.5 345 163.2 353.7C152.8 353.5 140.1 351.7 126.6 349.8C94.5998 345.3 64.2998 341 52.9998 356.3C52.7998 356.6 52.4998 357 52.3998 357.3L50.4998 360.9L40.1998 380.9L39.8998 381.5C39.0998 383.3 38.5998 385.3 38.3998 387.5C36.4998 405.2 51.7998 427.7 85.3998 456.3C109 476.4 132.7 491.8 133.7 492.4C134.9 493.2 136.3 493.6 137.7 493.6C138.3 493.6 139 493.5 139.6 493.3C141.6 492.8 143.3 491.4 144.2 489.6L154.8 468.6C156.5 465.3 155.4 461.2 152.3 459.2C122.7 440 79.2998 405.6 66.8998 381.4C68.6998 381.2 70.7998 381.1 73.1998 381.1H73.5998C85.1998 381.1 99.8998 383.2 114 385.2C141.2 389 164.7 392.3 177.1 384.4C179.8 382.7 182 380.2 183.5 377.3L192.6 359.4L193.1 358.3C203 343.9 184.6 321.3 163.4 295.1C158.7 289.3 154.2 283.8 150.3 278.6C160.9 279.6 170.1 280.1 177.9 280.1C201.1 280.4 213.3 276 217.6 266.7ZM174.5 205.7L178.4 198C217.4 228.9 215.5 238.4 215.2 239.4L215.1 239.7C214.7 240.3 213.9 241 212.3 241.7C205.2 231.8 192.8 220 174.5 205.7ZM148 256.5C173.2 259.5 191.6 260.3 204.6 258.5C204.8 259.7 204.6 260.3 204.5 260.4C203.8 262 199 264.9 185.6 265.6C174.5 266.2 159.6 265.4 139.8 263C138.1 259.8 137.6 257.9 137.4 257L137.6 256.6C138.9 256.2 141.8 255.8 148 256.5ZM96.1998 435.6C113.3 450.2 130.5 462.3 139 468.1L135 475.9C126.3 469.9 110.5 458.6 94.9998 445.4C66.9998 421.5 51.6998 401.1 52.9998 389.2C53.0998 388.5 53.1998 388 53.3998 387.4L53.5998 387.1C60.2998 401 74.3998 417 96.1998 435.6ZM169.4 372.3C161.5 377.3 137.4 374 116.1 371C101 368.9 86.2998 366.8 73.7998 366.8C70.2998 366.8 66.9998 367 63.8998 367.3V367.1L65.0998 364.8C71.9998 357 102.4 361.3 124.7 364.4C142 366.8 158 369.1 170.5 368.3C170.8 369.5 170.8 370.3 170.7 370.7L170.6 370.9C170.3 371.5 169.9 372 169.4 372.3ZM175.7 335.8C182.8 347.3 181.2 350.4 181.2 350.4C180.9 350.8 180.3 351.3 179.1 351.9C173.5 342.1 164.4 330.5 152.9 316.3C145.4 307.1 138.4 298.4 133.3 290.8C127.8 282.5 126.9 278.8 126.7 277.6C127.3 277.4 128.7 277.1 131.2 277C136.3 284.7 143.5 293.7 152.2 304.5C161 315.3 170 326.5 175.7 335.8ZM509.4 201.4L491.4 186.3C488.6 183.9 484.3 184 481.7 186.6C481.5 186.8 461.1 206.3 436.9 224.1C416.4 239.1 398.9 248.7 386.4 251.8C386.7 250 387 248 387.6 245.7C390.2 234.3 395.7 220.4 400.9 206.9C410.9 181.3 419.5 159.2 414.6 145.3C413.5 142.3 411.7 139.5 409.1 137.4L393.5 124.2L392.9 123.7C381.2 110.8 354.9 123.5 324.6 138.1C317.9 141.3 311.5 144.4 305.5 147.1C318.9 107.7 319.8 87.6002 309.1 78.9002L309 78.8002L291.9 64.4002L291.2 63.8002C291.1 63.7002 291 63.7002 291 63.6002C278.4 53.9002 256.4 63.5002 217.3 95.7002C215.6 97.1002 214.7 99.1002 214.6 101.3C214.6 103.5 215.5 105.5 217.2 106.9L235.2 122C236.6 123.1 238.2 123.7 239.9 123.7C241.5 123.7 243.2 123.1 244.5 122C262.2 107.4 274.4 99.3002 282.8 94.9002C280.8 105.9 276.5 120.4 269.6 139.3C266.9 146.7 265.9 152.4 266.6 157C267.1 160.1 268.7 163 271.1 165.1L273.2 166.9L282.7 175.1L288 179.7C290.9 183 294.9 184.4 299.7 184.4C311.6 184.4 328.8 176.1 349 166.3C360.2 160.9 371.9 155.3 381.6 151.7C379 161.8 374.4 173.7 369.5 186.4C357.8 216.5 346.7 245 358.9 259.6C359.2 259.9 359.4 260.2 359.8 260.5L378.6 276.5L380 277.7C380.2 277.8 380.3 278 380.5 278.1C382.1 279.3 384 280.2 386 280.9C389.2 282 392.6 282.6 396.4 282.6C412.7 282.6 434.9 272.1 463.8 250.9C488.8 232.5 509.2 213 510 212.2C511.5 210.8 512.3 208.8 512.2 206.7C511.9 204.6 511 202.7 509.4 201.4ZM239.8 106.9L233.2 101.3C272.3 70.4002 281 74.4002 281.9 75.0002L282.1 75.2002C282.6 75.7002 283.1 76.7002 283.4 78.4002C272.2 82.9002 257.9 92.3002 239.8 106.9ZM283.1 144.3C291.8 120.5 296.8 102.7 298.1 89.7002C299.3 89.8002 299.8 90.1002 299.9 90.2002C301.3 91.3002 303 96.6002 300.7 109.8C298.8 120.7 294.5 135.1 287.7 153.8C284.2 154.7 282.3 154.8 281.3 154.7L280.9 154.4C280.8 153.1 281 150.1 283.1 144.3ZM342.5 153.2C331.8 158.4 321.7 163.2 313.2 166.4C303.9 169.9 300.1 169.9 298.8 169.8C298.7 169.1 298.7 167.8 299.3 165.3C308 162.1 318.4 157.2 330.9 151.2C343.4 145.2 356.3 138.9 366.7 135.5C379.4 131.3 382.1 133.4 382.1 133.5C382.4 133.9 382.8 134.6 383.1 135.8C372.3 139 359 145.2 342.5 153.2ZM382.9 191.7C389.2 175.4 395.1 160.4 397.2 148C398.4 148 399.2 148.2 399.6 148.3L399.7 148.4C400.2 148.8 400.6 149.4 400.8 149.9C403.9 158.8 395.1 181.5 387.3 201.5C380.2 219.7 373.4 237.3 371.7 251.5C371.6 251.5 371.6 251.4 371.5 251.4L369.5 249.7C363.6 241.4 374.7 212.7 382.9 191.7ZM390.6 267.2C390 267 389.4 266.7 389 266.4L388.7 266.2C403.7 262.8 422.5 252.7 445.6 235.8C463.7 222.5 479.4 208.5 487 201.6L493.8 207.3C462.2 236.2 411 274.4 390.6 267.2ZM148.4 132.9C162.7 132.9 174.3 121.3 174.3 107C174.3 92.7002 162.7 81.1002 148.4 81.1002C134.1 81.1002 122.5 92.7002 122.5 107C122.6 121.3 134.2 132.9 148.4 132.9ZM148.4 95.7002C154.6 95.7002 159.7 100.8 159.7 107C159.7 113.2 154.6 118.3 148.4 118.3C142.2 118.3 137.1 113.2 137.1 107C137.1 100.8 142.2 95.7002 148.4 95.7002ZM384.7 360.7C370.8 360.7 359.5 372 359.5 385.9C359.5 399.8 370.8 411.1 384.7 411.1C398.6 411.1 409.9 399.8 409.9 385.9C409.9 372 398.6 360.7 384.7 360.7ZM384.7 396.6C378.8 396.6 374 391.8 374 385.9C374 380 378.8 375.2 384.7 375.2C390.6 375.2 395.4 380 395.4 385.9C395.3 391.8 390.5 396.6 384.7 396.6ZM56.2998 286.8C57.1998 286.8 58.1998 286.7 59.0998 286.4C62.4998 285.3 64.9998 282.5 65.4998 278.9L69.0998 256.1L89.8998 246.1C93.0998 244.6 95.0998 241.4 95.1998 237.8C95.1998 234.2 93.2998 231 90.0998 229.4L69.4998 219L66.3998 196.1C65.8998 192.6 63.4998 189.7 60.0998 188.5C56.6998 187.4 52.9998 188.2 50.4998 190.8L34.1998 207.2L11.4998 203.1C7.99977 202.5 4.49977 203.8 2.39977 206.7C0.299774 209.6 -0.00022614 213.3 1.59977 216.5L12.0998 237.1L1.09977 257.4C-0.600226 260.5 -0.400226 264.3 1.69977 267.2C3.79977 270.1 7.19977 271.6 10.7998 271L33.5998 267.3L49.5998 284C51.3998 285.8 53.7998 286.8 56.2998 286.8ZM35.4998 252.3C34.9998 252.3 34.4998 252.3 33.9998 252.4L18.9998 254.8L26.1998 241.4C27.6998 238.7 27.6998 235.5 26.2998 232.7L19.3998 219.2L34.3998 221.9C37.3998 222.4 40.4998 221.5 42.6998 219.3L53.3998 208.5L55.3998 223.6C55.7998 226.6 57.6998 229.3 60.3998 230.7L73.9998 237.6L60.2998 244.2C57.4998 245.5 55.5998 248.1 55.0998 251.2L52.7998 266.2L42.2998 255.2C40.4998 253.3 37.9998 252.3 35.4998 252.3ZM365.8 76.4002C394.1 82.8002 397.7 86.4002 404.1 114.7C404.9 118 407.8 120.4 411.2 120.4C414.6 120.4 417.6 118 418.3 114.7C424.7 86.4002 428.3 82.8002 456.6 76.4002C459.9 75.6002 462.3 72.7002 462.3 69.3002C462.3 65.9002 459.9 62.9002 456.6 62.2002C428.3 55.8002 424.7 52.2002 418.3 23.9002C417.5 20.6002 414.6 18.2002 411.2 18.2002C407.8 18.2002 404.8 20.6002 404.1 23.9002C397.7 52.2002 394.1 55.8002 365.8 62.2002C362.5 63.0002 360.1 65.9002 360.1 69.3002C360.1 72.7002 362.5 75.6002 365.8 76.4002ZM411.2 50.1002C415.5 59.3002 421.1 65.0002 430.3 69.2002C421.1 73.5002 415.4 79.1002 411.2 88.3002C406.9 79.1002 401.3 73.4002 392.1 69.2002C401.2 65.0002 406.9 59.3002 411.2 50.1002ZM306 409.9C281.7 404.4 279 401.7 273.5 377.4C272.7 374.1 269.8 371.7 266.4 371.7C263 371.7 260 374.1 259.3 377.4C253.8 401.7 251.1 404.4 226.8 409.9C223.5 410.7 221.1 413.6 221.1 417C221.1 420.4 223.5 423.4 226.8 424.1C251.1 429.6 253.8 432.3 259.3 456.6C260.1 459.9 263 462.3 266.4 462.3C269.8 462.3 272.8 459.9 273.5 456.6C279 432.3 281.7 429.6 306 424.1C309.3 423.3 311.7 420.4 311.7 417C311.6 413.6 309.3 410.6 306 409.9ZM266.3 431.4C262.9 424.8 258.5 420.4 251.9 417C258.5 413.6 262.9 409.2 266.3 402.6C269.7 409.2 274.1 413.6 280.7 417C274.1 420.4 269.7 424.8 266.3 431.4ZM291.9 235.7C289.1 232.9 284.4 232.9 281.6 235.7L251.5 265.8C248.7 268.6 248.7 273.3 251.5 276.1L281.6 306.2C283 307.6 284.9 308.3 286.8 308.3C288.7 308.3 290.5 307.6 292 306.2L322.1 276.1C324.9 273.3 324.9 268.6 322.1 265.8L291.9 235.7ZM286.7 290.7L267 270.9L286.8 251.1L306.6 270.9L286.7 290.7Z" fill="black"/>
</g>
<defs>
<clipPath id="clip0_64_58">
<rect width="512" height="512" fill="white"/>
</clipPath>
</defs>
</svg>
