<svg width="512" height="512" viewBox="0 0 512 512" fill="none" xmlns="http://www.w3.org/2000/svg">
<path d="M449.73 498.162H62.2704C56.7654 498.162 51.4858 495.975 47.5932 492.082C43.7005 488.19 41.5137 482.91 41.5137 477.405V207.567C41.5137 205.732 42.2426 203.972 43.5402 202.675C44.8377 201.377 46.5976 200.648 48.4326 200.648C50.2676 200.648 52.0275 201.377 53.325 202.675C54.6226 203.972 55.3515 205.732 55.3515 207.567V477.405C55.3515 479.24 56.0805 481 57.378 482.298C58.6756 483.595 60.4354 484.324 62.2704 484.324H449.73C451.565 484.324 453.325 483.595 454.622 482.298C455.92 481 456.649 479.24 456.649 477.405V207.567C456.649 205.732 457.378 203.972 458.675 202.675C459.973 201.377 461.733 200.648 463.568 200.648C465.403 200.648 467.163 201.377 468.46 202.675C469.758 203.972 470.487 205.732 470.487 207.567V477.405C470.487 482.91 468.3 488.19 464.407 492.082C460.515 495.975 455.235 498.162 449.73 498.162Z" fill="black"/>
<path d="M484.324 214.486H361.929C360.094 214.486 358.334 213.757 357.036 212.46C355.739 211.162 355.01 209.403 355.01 207.568C355.01 205.733 355.739 203.973 357.036 202.675C358.334 201.378 360.094 200.649 361.929 200.649H484.324V131.459H27.6757V200.649H150.071C151.906 200.649 153.666 201.378 154.964 202.675C156.261 203.973 156.99 205.733 156.99 207.568C156.99 209.403 156.261 211.162 154.964 212.46C153.666 213.757 151.906 214.486 150.071 214.486H27.6757C24.0057 214.486 20.486 213.029 17.8909 210.433C15.2958 207.838 13.8379 204.319 13.8379 200.649V131.459C13.8379 127.789 15.2958 124.27 17.8909 121.675C20.486 119.079 24.0057 117.622 27.6757 117.622H484.324C487.994 117.622 491.514 119.079 494.109 121.675C496.704 124.27 498.162 127.789 498.162 131.459V200.649C498.162 204.319 496.704 207.838 494.109 210.433C491.514 213.029 487.994 214.486 484.324 214.486Z" fill="black"/>
<path d="M256 131.459C254.78 131.458 253.582 131.135 252.527 130.521C251.472 129.908 250.598 129.026 249.994 127.966C249.39 126.906 249.077 125.705 249.087 124.485C249.096 123.265 249.429 122.069 250.05 121.019C265.223 95.3356 302.758 34.2693 323.494 21.8982C329.896 17.8318 337.048 15.0901 344.527 13.8353C352.007 12.5804 359.662 12.8378 367.04 14.5923C374.418 16.3468 381.37 19.5627 387.484 24.05C393.598 28.5373 398.75 34.2048 402.636 40.7176C406.522 47.2303 409.063 54.456 410.108 61.9676C411.154 69.4792 410.682 77.1241 408.723 84.4504C406.763 91.7768 403.354 98.6358 398.697 104.622C394.041 110.608 388.232 115.6 381.613 119.303C373.158 124.354 356.013 128.429 330.628 131.411C329.716 131.536 328.789 131.478 327.9 131.24C327.012 131.002 326.179 130.59 325.452 130.027C324.724 129.464 324.117 128.761 323.664 127.96C323.211 127.159 322.923 126.276 322.816 125.362C322.709 124.449 322.785 123.523 323.04 122.639C323.295 121.755 323.723 120.931 324.301 120.214C324.878 119.498 325.592 118.904 326.402 118.467C327.211 118.03 328.1 117.759 329.015 117.67C359.728 114.058 370.702 109.706 374.514 107.43C379.382 104.538 383.627 100.709 387.002 96.1631C390.378 91.6176 392.817 86.447 394.178 80.9512C396.236 72.7307 395.81 64.0847 392.955 56.106C390.1 48.1273 384.943 41.1741 378.137 36.1254C371.331 31.0767 363.181 28.159 354.718 27.7412C346.254 27.3233 337.856 29.4241 330.586 33.778C315.876 42.5581 285.495 88.2368 261.964 128.055C261.352 129.093 260.48 129.952 259.434 130.549C258.388 131.146 257.204 131.46 256 131.459Z" fill="black"/>
<path d="M256 131.459C254.796 131.461 253.613 131.148 252.567 130.552C251.521 129.957 250.649 129.098 250.036 128.062C226.512 88.2368 196.124 42.5581 181.421 33.7849C176.58 30.6685 171.162 28.5584 165.488 27.5803C159.815 26.6022 154.002 26.7761 148.398 28.0917C142.793 29.4073 137.51 31.8377 132.864 35.238C128.218 38.6383 124.305 42.939 121.356 47.8838C118.408 52.8286 116.484 58.3164 115.702 64.0201C114.919 69.7238 115.292 75.5268 116.799 81.0832C118.306 86.6396 120.916 91.8359 124.474 96.3623C128.031 100.889 132.464 104.653 137.507 107.43C141.312 109.706 152.286 114.058 183.006 117.67C183.921 117.759 184.81 118.03 185.619 118.467C186.429 118.904 187.143 119.498 187.72 120.214C188.298 120.931 188.726 121.755 188.981 122.639C189.236 123.523 189.312 124.449 189.205 125.362C189.098 126.276 188.809 127.159 188.357 127.96C187.904 128.761 187.297 129.464 186.569 130.027C185.842 130.59 185.009 131.002 184.121 131.24C183.232 131.478 182.305 131.536 181.393 131.411C156.022 128.429 138.863 124.354 130.408 119.303C123.789 115.6 117.98 110.608 113.324 104.622C108.667 98.6358 105.258 91.7768 103.298 84.4504C101.338 77.1241 100.867 69.4792 101.913 61.9676C102.958 54.456 105.499 47.2303 109.385 40.7176C113.271 34.2048 118.423 28.5373 124.537 24.05C130.651 19.5627 137.603 16.3468 144.981 14.5923C152.359 12.8378 160.014 12.5804 167.494 13.8353C174.973 15.0901 182.125 17.8318 188.527 21.8982C209.284 34.2693 246.784 95.3356 261.964 121.019C262.586 122.07 262.918 123.267 262.927 124.488C262.937 125.71 262.622 126.912 262.016 127.972C261.411 129.033 260.535 129.914 259.478 130.527C258.421 131.139 257.221 131.461 256 131.459ZM290.595 498.162H221.406C219.571 498.162 217.811 497.433 216.513 496.136C215.216 494.838 214.487 493.078 214.487 491.243V201.479C214.487 199.644 215.216 197.884 216.513 196.586C217.811 195.289 219.571 194.56 221.406 194.56C223.241 194.56 225 195.289 226.298 196.586C227.595 197.884 228.324 199.644 228.324 201.479V484.324H283.676V201.479C283.676 199.644 284.405 197.884 285.702 196.586C287 195.289 288.76 194.56 290.595 194.56C292.43 194.56 294.19 195.289 295.487 196.586C296.785 197.884 297.514 199.644 297.514 201.479V491.243C297.514 493.078 296.785 494.838 295.487 496.136C294.19 497.433 292.43 498.162 290.595 498.162Z" fill="black"/>
<path d="M290.18 207.567H221.821C219.986 207.567 218.226 206.838 216.928 205.541C215.631 204.243 214.902 202.483 214.902 200.648C214.902 198.813 215.631 197.054 216.928 195.756C218.226 194.458 219.986 193.729 221.821 193.729H290.18C292.015 193.729 293.775 194.458 295.072 195.756C296.37 197.054 297.099 198.813 297.099 200.648C297.099 202.483 296.37 204.243 295.072 205.541C293.775 206.838 292.015 207.567 290.18 207.567Z" fill="black"/>
<path d="M323.058 280.652C321.725 280.652 320.42 280.267 319.301 279.542C318.181 278.818 317.295 277.786 316.748 276.57L249.69 127.377C248.965 125.708 248.926 123.82 249.583 122.123C250.24 120.425 251.539 119.055 253.199 118.309C254.859 117.563 256.746 117.5 258.451 118.136C260.157 118.771 261.543 120.053 262.31 121.704L321.903 254.284L330.828 225.82C331.121 224.886 331.608 224.025 332.257 223.293C332.907 222.562 333.704 221.976 334.597 221.575C335.489 221.174 336.457 220.968 337.435 220.968C338.413 220.969 339.381 221.177 340.273 221.578L366.357 233.341L316.797 127.481C316.411 126.658 316.192 125.767 316.151 124.859C316.11 123.951 316.249 123.044 316.558 122.189C316.868 121.335 317.343 120.55 317.956 119.879C318.569 119.208 319.308 118.664 320.132 118.279C320.955 117.894 321.846 117.674 322.754 117.633C323.662 117.593 324.569 117.731 325.423 118.041C326.278 118.35 327.063 118.825 327.734 119.438C328.405 120.051 328.949 120.791 329.334 121.614L386.809 244.376C387.406 245.656 387.597 247.087 387.357 248.478C387.117 249.869 386.458 251.154 385.467 252.159C384.476 253.164 383.201 253.842 381.813 254.102C380.426 254.362 378.992 254.192 377.704 253.613L341.726 237.395L329.687 275.795C329.268 277.135 328.451 278.317 327.345 279.182C326.239 280.047 324.896 280.555 323.494 280.638L323.058 280.652Z" fill="black"/>
<path d="M188.942 280.652H188.527C187.125 280.568 185.782 280.06 184.676 279.195C183.57 278.33 182.753 277.149 182.334 275.809L170.296 237.409L134.317 253.626C133.029 254.205 131.596 254.376 130.208 254.116C128.82 253.856 127.546 253.178 126.555 252.172C125.564 251.167 124.904 249.883 124.664 248.491C124.424 247.1 124.615 245.669 125.212 244.39L182.66 121.607C183.438 119.944 184.844 118.659 186.57 118.033C188.296 117.408 190.199 117.494 191.862 118.272C193.524 119.05 194.81 120.456 195.435 122.182C196.061 123.908 195.975 125.811 195.197 127.474L145.637 233.333L171.721 221.571C172.613 221.169 173.58 220.961 174.558 220.961C175.537 220.96 176.504 221.167 177.397 221.568C178.289 221.969 179.087 222.554 179.736 223.286C180.386 224.018 180.873 224.879 181.165 225.812L190.091 254.277L249.69 121.703C250.457 120.053 251.844 118.771 253.549 118.136C255.255 117.5 257.142 117.562 258.802 118.308C260.462 119.055 261.761 120.425 262.418 122.122C263.074 123.82 263.036 125.708 262.31 127.377L195.252 276.57C194.705 277.786 193.819 278.818 192.7 279.542C191.58 280.266 190.275 280.652 188.942 280.652Z" fill="black"/>
</svg>
