<svg width="512" height="512" viewBox="0 0 512 512" fill="none" xmlns="http://www.w3.org/2000/svg">
<path d="M330.471 446.823H38.4004C36.4994 446.823 34.6761 446.067 33.3319 444.723C31.9876 443.379 31.2324 441.556 31.2324 439.655V140.887C31.2324 138.986 31.9876 137.163 33.3319 135.819C34.6761 134.474 36.4994 133.719 38.4004 133.719H468.439C470.341 133.719 472.164 134.474 473.508 135.819C474.852 137.163 475.607 138.986 475.607 140.887V359.025C475.607 360.926 474.852 362.749 473.508 364.093C472.164 365.438 470.341 366.193 468.439 366.193C466.538 366.193 464.715 365.438 463.371 364.093C462.027 362.749 461.271 360.926 461.271 359.025V148.081H45.5684V432.487H330.471C332.372 432.487 334.195 433.242 335.539 434.586C336.884 435.93 337.639 437.754 337.639 439.655C337.639 441.556 336.884 443.379 335.539 444.723C334.195 446.067 332.372 446.823 330.471 446.823Z" fill="black"/>
<path d="M132.491 232.853H92.0733C90.1722 232.853 88.349 232.098 87.0047 230.753C85.6605 229.409 84.9053 227.586 84.9053 225.685V185.268C84.9053 183.366 85.6605 181.543 87.0047 180.199C88.349 178.855 90.1722 178.1 92.0733 178.1H132.491C134.392 178.1 136.215 178.855 137.559 180.199C138.903 181.543 139.659 183.366 139.659 185.268V225.685C139.659 227.586 138.903 229.409 137.559 230.753C136.215 232.098 134.392 232.853 132.491 232.853ZM99.2413 218.517H125.323V192.436H99.2413V218.517ZM226.581 232.853H186.164C184.262 232.853 182.439 232.098 181.095 230.753C179.751 229.409 178.996 227.586 178.996 225.685V185.268C178.996 183.366 179.751 181.543 181.095 180.199C182.439 178.855 184.262 178.1 186.164 178.1H226.581C228.482 178.1 230.305 178.855 231.649 180.199C232.994 181.543 233.749 183.366 233.749 185.268V225.685C233.749 227.586 232.994 229.409 231.649 230.753C230.305 232.098 228.482 232.853 226.581 232.853ZM193.332 218.517H219.413V192.436H193.332V218.517ZM320.671 232.853H280.254C278.353 232.853 276.529 232.098 275.185 230.753C273.841 229.409 273.086 227.586 273.086 225.685V185.268C273.086 183.366 273.841 181.543 275.185 180.199C276.529 178.855 278.353 178.1 280.254 178.1H320.671C322.572 178.1 324.395 178.855 325.74 180.199C327.084 181.543 327.839 183.366 327.839 185.268V225.685C327.839 227.586 327.084 229.409 325.74 230.753C324.395 232.098 322.572 232.853 320.671 232.853ZM287.422 218.517H313.503V192.436H287.422V218.517ZM414.761 232.853H374.344C372.443 232.853 370.62 232.098 369.275 230.753C367.931 229.409 367.176 227.586 367.176 225.685V185.268C367.176 183.366 367.931 181.543 369.275 180.199C370.62 178.855 372.443 178.1 374.344 178.1H414.761C416.662 178.1 418.486 178.855 419.83 180.199C421.174 181.543 421.929 183.366 421.929 185.268V225.685C421.929 227.586 421.174 229.409 419.83 230.753C418.486 232.098 416.662 232.853 414.761 232.853ZM381.512 218.517H407.593V192.436H381.512V218.517ZM132.491 317.65H92.0733C90.1722 317.65 88.349 316.895 87.0047 315.551C85.6605 314.207 84.9053 312.383 84.9053 310.482V270.065C84.9053 268.164 85.6605 266.341 87.0047 264.996C88.349 263.652 90.1722 262.897 92.0733 262.897H132.491C134.392 262.897 136.215 263.652 137.559 264.996C138.903 266.341 139.659 268.164 139.659 270.065V310.482C139.659 312.383 138.903 314.207 137.559 315.551C136.215 316.895 134.392 317.65 132.491 317.65ZM99.2413 303.314H125.323V277.233H99.2413V303.314ZM226.581 317.65H186.164C184.262 317.65 182.439 316.895 181.095 315.551C179.751 314.207 178.996 312.383 178.996 310.482V270.065C178.996 268.164 179.751 266.341 181.095 264.996C182.439 263.652 184.262 262.897 186.164 262.897H226.581C228.482 262.897 230.305 263.652 231.649 264.996C232.994 266.341 233.749 268.164 233.749 270.065V310.482C233.749 312.383 232.994 314.207 231.649 315.551C230.305 316.895 228.482 317.65 226.581 317.65ZM193.332 303.314H219.413V277.233H193.332V303.314ZM320.671 317.65H280.254C278.353 317.65 276.529 316.895 275.185 315.551C273.841 314.207 273.086 312.383 273.086 310.482V270.065C273.086 268.164 273.841 266.341 275.185 264.996C276.529 263.652 278.353 262.897 280.254 262.897H320.671C322.572 262.897 324.395 263.652 325.74 264.996C327.084 266.341 327.839 268.164 327.839 270.065V310.482C327.839 312.383 327.084 314.207 325.74 315.551C324.395 316.895 322.572 317.65 320.671 317.65ZM287.422 303.314H313.503V277.233H287.422V303.314ZM414.761 316.749C412.86 316.749 411.037 315.994 409.693 314.65C408.348 313.305 407.593 311.482 407.593 309.581V277.233H381.512V308.552C381.512 310.453 380.757 312.276 379.413 313.621C378.068 314.965 376.245 315.72 374.344 315.72C372.443 315.72 370.62 314.965 369.275 313.621C367.931 312.276 367.176 310.453 367.176 308.552V270.065C367.176 268.164 367.931 266.341 369.275 264.996C370.62 263.652 372.443 262.897 374.344 262.897H414.761C416.662 262.897 418.486 263.652 419.83 264.996C421.174 266.341 421.929 268.164 421.929 270.065V309.581C421.929 311.482 421.174 313.305 419.83 314.65C418.486 315.994 416.662 316.749 414.761 316.749ZM132.491 402.432H92.0733C90.1722 402.432 88.349 401.677 87.0047 400.333C85.6605 398.989 84.9053 397.165 84.9053 395.264V354.857C84.9053 352.956 85.6605 351.133 87.0047 349.789C88.349 348.444 90.1722 347.689 92.0733 347.689H132.491C134.392 347.689 136.215 348.444 137.559 349.789C138.903 351.133 139.659 352.956 139.659 354.857V395.264C139.659 397.165 138.903 398.989 137.559 400.333C136.215 401.677 134.392 402.432 132.491 402.432ZM99.2413 388.096H125.323V362.025H99.2413V388.096ZM226.581 402.432H186.164C184.262 402.432 182.439 401.677 181.095 400.333C179.751 398.989 178.996 397.165 178.996 395.264V354.857C178.996 352.956 179.751 351.133 181.095 349.789C182.439 348.444 184.262 347.689 186.164 347.689H226.581C228.482 347.689 230.305 348.444 231.649 349.789C232.994 351.133 233.749 352.956 233.749 354.857V395.264C233.749 397.165 232.994 398.989 231.649 400.333C230.305 401.677 228.482 402.432 226.581 402.432ZM193.332 388.096H219.413V362.025H193.332V388.096ZM311.865 402.432H280.254C278.353 402.432 276.529 401.677 275.185 400.333C273.841 398.989 273.086 397.165 273.086 395.264V354.857C273.086 352.956 273.841 351.133 275.185 349.789C276.529 348.444 278.353 347.689 280.254 347.689H318.362C320.263 347.689 322.086 348.444 323.43 349.789C324.775 351.133 325.53 352.956 325.53 354.857C325.53 356.758 324.775 358.582 323.43 359.926C322.086 361.27 320.263 362.025 318.362 362.025H287.422V388.096H311.865C313.766 388.096 315.589 388.852 316.933 390.196C318.277 391.54 319.033 393.363 319.033 395.264C319.033 397.165 318.277 398.989 316.933 400.333C315.589 401.677 313.766 402.432 311.865 402.432ZM360.658 84.6851H276.055C274.154 84.6851 272.331 83.9299 270.987 82.5857C269.643 81.2414 268.887 79.4182 268.887 77.5171C268.887 75.616 269.643 73.7928 270.987 72.4486C272.331 71.1043 274.154 70.3491 276.055 70.3491H360.658C362.559 70.3491 364.383 71.1043 365.727 72.4486C367.071 73.7928 367.826 75.616 367.826 77.5171C367.826 79.4182 367.071 81.2414 365.727 82.5857C364.383 83.9299 362.559 84.6851 360.658 84.6851Z" fill="black"/>
<path d="M468.434 148.055H38.4004C36.4994 148.055 34.6761 147.3 33.3319 145.956C31.9876 144.612 31.2324 142.788 31.2324 140.887V103.998C31.2446 95.0764 34.7943 86.5241 41.1032 80.2162C47.412 73.9084 55.9649 70.36 64.8862 70.3491H100.905C102.806 70.3491 104.63 71.1043 105.974 72.4486C107.318 73.7928 108.073 75.616 108.073 77.5171C108.073 79.4182 107.318 81.2414 105.974 82.5857C104.63 83.9299 102.806 84.6851 100.905 84.6851H64.8862C59.7653 84.6905 54.8557 86.7268 51.2343 90.3473C47.6128 93.9678 45.5752 98.8769 45.5684 103.998V133.719H461.266V103.998C461.261 98.8774 459.224 93.9683 455.604 90.3477C451.983 86.727 447.074 84.6905 441.954 84.6851H405.929C404.028 84.6851 402.205 83.9299 400.861 82.5857C399.517 81.2414 398.761 79.4182 398.761 77.5171C398.761 75.616 399.517 73.7928 400.861 72.4486C402.205 71.1043 404.028 70.3491 405.929 70.3491H441.954C450.875 70.36 459.427 73.9086 465.735 80.2166C472.043 86.5246 475.592 95.0769 475.602 103.998V140.887C475.602 142.788 474.847 144.612 473.503 145.956C472.159 147.3 470.335 148.055 468.434 148.055Z" fill="black"/>
<path d="M230.785 84.6851H146.177C144.276 84.6851 142.453 83.9299 141.108 82.5857C139.764 81.2414 139.009 79.4182 139.009 77.5171C139.009 75.616 139.764 73.7928 141.108 72.4486C142.453 71.1043 144.276 70.3491 146.177 70.3491H230.785C232.686 70.3491 234.509 71.1043 235.853 72.4486C237.198 73.7928 237.953 75.616 237.953 77.5171C237.953 79.4182 237.198 81.2414 235.853 82.5857C234.509 83.9299 232.686 84.6851 230.785 84.6851ZM392.551 475.766C343.911 475.766 304.334 436.189 304.334 387.549C304.334 338.909 343.906 299.331 392.551 299.331C441.196 299.331 480.769 338.903 480.769 387.549C480.769 436.194 441.196 475.766 392.551 475.766ZM392.551 313.667C351.811 313.667 318.67 346.809 318.67 387.549C318.67 428.288 351.811 461.43 392.551 461.43C433.291 461.43 466.433 428.288 466.433 387.549C466.433 346.809 433.291 313.667 392.551 313.667Z" fill="black"/>
<path d="M408.95 411.136C408.009 411.136 407.077 410.951 406.207 410.591C405.337 410.231 404.547 409.703 403.881 409.037L387.497 392.653C386.832 391.987 386.304 391.197 385.944 390.327C385.583 389.458 385.398 388.526 385.398 387.584V340.152C385.398 338.251 386.153 336.428 387.498 335.084C388.842 333.74 390.665 332.984 392.566 332.984C394.467 332.984 396.29 333.74 397.635 335.084C398.979 336.428 399.734 338.251 399.734 340.152V384.579L414.034 398.879C415.037 399.881 415.72 401.159 415.996 402.549C416.273 403.94 416.131 405.381 415.588 406.691C415.046 408.001 414.127 409.12 412.948 409.908C411.769 410.695 410.383 411.116 408.965 411.116L408.95 411.136ZM123.541 118.784C115.64 118.773 108.065 115.63 102.479 110.043C96.8916 104.456 93.7481 96.8817 93.7373 88.9806V66.0481C93.7373 58.1438 96.8773 50.5631 102.467 44.9739C108.056 39.3846 115.636 36.2446 123.541 36.2446C131.445 36.2446 139.026 39.3846 144.615 44.9739C150.204 50.5631 153.344 58.1438 153.344 66.0481V89.0062C153.328 96.9033 150.182 104.472 144.596 110.053C139.009 115.635 131.438 118.775 123.541 118.784ZM123.541 50.555C119.436 50.5605 115.501 52.1953 112.601 55.1004C109.7 58.0055 108.072 61.9431 108.073 66.0481V89.0062C108.085 93.1024 109.72 97.0269 112.619 99.9209C115.517 102.815 119.445 104.443 123.541 104.448C127.641 104.443 131.572 102.811 134.472 99.9118C137.372 97.0123 139.003 93.0812 139.008 88.9806V66.0481C139.007 61.9454 137.377 58.0109 134.477 55.1088C131.577 52.2068 127.644 50.5745 123.541 50.5704V50.555ZM253.44 118.784C245.539 118.775 237.964 115.632 232.377 110.044C226.789 104.457 223.646 96.8821 223.637 88.9806V66.0481C223.637 58.1438 226.777 50.5631 232.366 44.9739C237.955 39.3846 245.536 36.2446 253.44 36.2446C261.345 36.2446 268.925 39.3846 274.515 44.9739C280.104 50.5631 283.244 58.1438 283.244 66.0481V89.0062C283.226 96.9028 280.08 104.471 274.494 110.052C268.907 115.633 261.337 118.773 253.44 118.784ZM253.44 50.555C251.406 50.5544 249.391 50.9547 247.511 51.7331C245.632 52.5115 243.924 53.6528 242.485 55.0917C241.047 56.5305 239.906 58.2388 239.128 60.1188C238.351 61.9988 237.951 64.0136 237.952 66.0481V89.0062C237.952 91.0375 238.352 93.0488 239.13 94.9254C239.907 96.802 241.046 98.5071 242.483 99.9434C243.919 101.38 245.624 102.519 247.501 103.296C249.377 104.074 251.389 104.474 253.42 104.474C255.451 104.474 257.462 104.074 259.339 103.296C261.216 102.519 262.921 101.38 264.357 99.9434C265.793 98.5071 266.933 96.802 267.71 94.9254C268.487 93.0488 268.887 91.0375 268.887 89.0062V66.0481C268.886 61.9489 267.259 58.0175 264.363 55.1161C261.468 52.2146 257.54 50.5799 253.44 50.5704V50.555ZM383.294 118.784C375.392 118.775 367.817 115.632 362.23 110.044C356.643 104.457 353.5 96.8821 353.49 88.9806V66.0481C353.49 58.1438 356.63 50.5631 362.22 44.9739C367.809 39.3846 375.389 36.2446 383.294 36.2446C391.198 36.2446 398.779 39.3846 404.368 44.9739C409.957 50.5631 413.097 58.1438 413.097 66.0481V89.0062C413.081 96.9033 409.935 104.472 404.349 110.053C398.762 115.635 391.191 118.775 383.294 118.784ZM383.294 50.555C379.188 50.5591 375.253 52.1935 372.352 55.0989C369.451 58.0043 367.824 61.9427 367.826 66.0481V89.0062C367.826 91.0375 368.226 93.0488 369.004 94.9254C369.781 96.802 370.92 98.5071 372.357 99.9434C373.793 101.38 375.498 102.519 377.375 103.296C379.251 104.074 381.263 104.474 383.294 104.474C385.325 104.474 387.336 104.074 389.213 103.296C391.09 102.519 392.795 101.38 394.231 99.9434C395.667 98.5071 396.807 96.802 397.584 94.9254C398.361 93.0488 398.761 91.0375 398.761 89.0062V66.0481C398.76 61.9454 397.13 58.0109 394.23 55.1088C391.33 52.2068 387.397 50.5745 383.294 50.5704V50.555Z" fill="black"/>
</svg>
