<svg width="512" height="512" viewBox="0 0 512 512" fill="none" xmlns="http://www.w3.org/2000/svg">
<path d="M492.365 202.52L451.995 129.72C449.834 125.827 446.672 122.583 442.835 120.323C438.998 118.064 434.627 116.871 430.175 116.87H335.295V97.4202C335.295 88.6102 328.135 81.4502 319.325 81.4502H59.8248C55.9648 81.4502 52.8248 84.5802 52.8248 88.4502C52.8248 92.3102 55.9648 95.4502 59.8248 95.4502H319.325C320.415 95.4502 321.295 96.3302 321.295 97.4202V311.42H59.8248C55.9648 311.42 52.8248 314.56 52.8248 318.42V362.02C52.8248 370.82 59.9948 377.99 68.8048 377.99H82.3348C85.8148 407.54 111.025 430.55 141.495 430.55C171.975 430.55 197.185 407.54 200.655 377.99H321.705C325.175 407.54 350.385 430.55 380.865 430.55C411.335 430.55 436.545 407.54 440.025 377.99H494.155C502.965 377.99 510.125 370.82 510.125 362.02V271.18C510.125 247.22 503.985 223.47 492.365 202.52ZM66.8248 362.02V325.42H103.175C91.8748 334.94 84.1448 348.57 82.3348 363.99H68.8048C67.7148 363.99 66.8248 363.1 66.8248 362.02ZM141.495 416.55C116.375 416.55 95.9248 396.11 95.9248 370.99C95.9248 345.86 116.375 325.42 141.495 325.42C166.625 325.42 187.065 345.86 187.065 370.99C187.065 396.11 166.625 416.55 141.495 416.55ZM321.295 363.99H200.655C198.845 348.57 191.125 334.94 179.815 325.42H321.295V363.99ZM380.865 416.55C355.735 416.55 335.295 396.11 335.295 370.99C335.295 345.86 355.735 325.42 380.865 325.42C405.985 325.42 426.435 345.86 426.435 370.99C426.435 396.11 405.985 416.55 380.865 416.55ZM496.125 331.45C488.585 328.61 483.205 321.32 483.205 312.8V291.42C483.205 290.33 484.095 289.45 485.175 289.45H496.125V331.45ZM496.125 275.45H485.175C476.375 275.45 469.205 282.61 469.205 291.42V312.8C469.205 329.11 480.775 342.76 496.125 345.99V362.02C496.125 363.1 495.245 363.99 494.155 363.99H440.025C436.545 334.43 411.335 311.42 380.865 311.42C362.595 311.42 346.225 319.68 335.295 332.67V130.87H430.175C434.155 130.87 437.825 133.03 439.745 136.51L480.115 209.31C490.601 228.247 496.109 249.534 496.125 271.18V275.45ZM380.864 393.661C368.362 393.661 358.191 383.49 358.191 370.988C358.191 358.486 368.362 348.315 380.864 348.315C393.366 348.315 403.537 358.486 403.537 370.988C403.537 383.49 393.366 393.661 380.864 393.661ZM380.864 362.316C376.082 362.316 372.191 366.207 372.191 370.989C372.191 375.771 376.082 379.662 380.864 379.662C385.646 379.662 389.537 375.771 389.537 370.989C389.537 366.207 385.646 362.316 380.864 362.316ZM141.496 393.661C128.994 393.661 118.823 383.49 118.823 370.988C118.823 358.486 128.994 348.315 141.496 348.315C153.998 348.315 164.169 358.486 164.169 370.988C164.169 383.49 153.998 393.661 141.496 393.661ZM141.496 362.316C136.714 362.316 132.823 366.207 132.823 370.989C132.823 375.771 136.714 379.662 141.496 379.662C146.278 379.662 150.169 375.771 150.169 370.989C150.169 366.207 146.278 362.316 141.496 362.316ZM465.15 250.936C463.963 250.936 462.767 250.804 461.58 250.533L356.143 226.43C348.833 224.759 343.729 218.356 343.729 210.859V155.276C343.729 146.468 350.895 139.302 359.703 139.302H422.25C425.1 139.303 427.899 140.066 430.355 141.513C432.812 142.959 434.837 145.037 436.22 147.529L472.744 213.396C475.603 218.557 478.073 223.924 480.136 229.452C481.137 232.139 481.392 235.046 480.873 237.866C480.355 240.686 479.082 243.312 477.19 245.466C475.689 247.183 473.838 248.56 471.761 249.503C469.685 250.447 467.431 250.935 465.15 250.936ZM359.703 153.302C359.179 153.303 358.678 153.511 358.308 153.881C357.938 154.251 357.73 154.753 357.729 155.276V210.859C357.729 211.785 358.36 212.576 359.262 212.782L464.7 236.884C465.712 237.114 466.359 236.58 466.656 236.242C466.999 235.851 467.34 235.205 467.018 234.345C465.199 229.47 463.02 224.737 460.499 220.185L423.975 154.319C423.804 154.011 423.554 153.754 423.25 153.576C422.947 153.397 422.601 153.302 422.249 153.302H359.703ZM206.865 115.39C158.315 115.39 118.825 154.89 118.825 203.43C118.825 251.98 158.315 291.47 206.865 291.47C255.405 291.47 294.905 251.98 294.905 203.43C294.905 154.89 255.405 115.39 206.865 115.39ZM206.865 277.47C166.035 277.47 132.825 244.26 132.825 203.43C132.825 162.61 166.035 129.39 206.865 129.39C247.685 129.39 280.905 162.61 280.905 203.43C280.905 244.26 247.685 277.47 206.865 277.47ZM246.185 226.14C244.705 228.71 242.015 230.14 239.255 230.14C237.895 230.14 236.525 229.8 235.265 229.07L202.865 210.36C200.475 208.98 198.865 206.39 198.865 203.43V161.77C198.865 157.36 202.445 153.77 206.865 153.77C211.285 153.77 214.865 157.36 214.865 161.77V198.82L243.265 215.21C245.101 216.273 246.439 218.021 246.987 220.071C247.534 222.12 247.246 224.303 246.185 226.14ZM83.0488 129.395H8.88379C7.02727 129.395 5.2468 128.658 3.93404 127.345C2.62129 126.032 1.88379 124.252 1.88379 122.395C1.88379 120.539 2.62129 118.758 3.93404 117.445C5.2468 116.133 7.02727 115.395 8.88379 115.395H83.0488C84.9053 115.395 86.6858 116.133 87.9985 117.445C89.3113 118.758 90.0488 120.539 90.0488 122.395C90.0488 124.252 89.3113 126.032 87.9985 127.345C86.6858 128.658 84.9053 129.395 83.0488 129.395ZM83.0488 183.422H8.88379C7.02727 183.422 5.2468 182.685 3.93404 181.372C2.62129 180.059 1.88379 178.279 1.88379 176.422C1.88379 174.566 2.62129 172.785 3.93404 171.472C5.2468 170.16 7.02727 169.422 8.88379 169.422H83.0488C84.9053 169.422 86.6858 170.16 87.9985 171.472C89.3113 172.785 90.0488 174.566 90.0488 176.422C90.0488 178.279 89.3113 180.059 87.9985 181.372C86.6858 182.685 84.9053 183.422 83.0488 183.422ZM83.0488 237.448H8.88379C7.02727 237.448 5.2468 236.711 3.93404 235.398C2.62129 234.085 1.88379 232.305 1.88379 230.448C1.88379 228.592 2.62129 226.811 3.93404 225.498C5.2468 224.186 7.02727 223.448 8.88379 223.448H83.0488C84.9053 223.448 86.6858 224.186 87.9985 225.498C89.3113 226.811 90.0488 228.592 90.0488 230.448C90.0488 232.305 89.3113 234.085 87.9985 235.398C86.6858 236.711 84.9053 237.448 83.0488 237.448ZM83.0488 291.475H8.88379C7.02727 291.475 5.2468 290.738 3.93404 289.425C2.62129 288.112 1.88379 286.332 1.88379 284.475C1.88379 282.619 2.62129 280.838 3.93404 279.525C5.2468 278.213 7.02727 277.475 8.88379 277.475H83.0488C84.9053 277.475 86.6858 278.213 87.9985 279.525C89.3113 280.838 90.0488 282.619 90.0488 284.475C90.0488 286.332 89.3113 288.112 87.9985 289.425C86.6858 290.738 84.9053 291.475 83.0488 291.475Z" fill="black"/>
</svg>
