<svg width="512" height="512" viewBox="0 0 512 512" fill="none" xmlns="http://www.w3.org/2000/svg">
<path d="M199.319 465.777L98.6803 465.766C94.6219 465.76 90.2852 466.046 86.2763 465.498C61.3658 462.089 39.0263 441.818 35.7265 416.484L35.4961 414.525C35.0319 409.164 35.287 403.629 35.2845 398.243L35.2614 169.088C35.1753 149.647 34.6291 141.632 55.8336 132.525C73.0214 125.141 97.2092 122.249 116.267 121.525L160.079 121.389C163.463 121.353 166.771 120.816 170.131 120.726L182.556 120.648C190.066 120.595 190.33 119.108 196.529 115.01L281.937 60.8206C292.182 54.5546 301.224 47.8167 313.543 46.936C332.041 47.1903 338.832 56.6948 347.843 71.7057L358.512 89.6462C361.943 95.5922 364.849 102.647 370.552 106.821C373.35 108.868 377.789 110.742 379.442 113.896C383.696 122.012 377.619 121.425 389.702 123.771L404.402 126.385C425.675 129.879 431.586 136.418 431.677 157.176L431.696 172.127C447.847 174.684 460.242 187.96 462.629 203.958C463.705 211.175 463.124 219.097 463.125 226.401L463.268 271.05C475.458 276.503 475.758 285.001 475.772 297.164L475.71 351.056C475.561 361.097 471.704 365.543 462.613 370.497C462.49 373.411 463.062 376.62 463.083 379.605C463.155 390.41 463.292 399.707 463.905 410.428L464.067 424.938C464.073 427.957 464.25 431.108 463.874 434.104C461.004 456.954 445.51 465.769 424.669 465.805L199.317 465.777H199.319ZM312.233 60.8923C302.956 63.1076 295.557 68.7302 287.556 73.6701L136.488 168.397C134.894 169.294 133.749 170.485 132.025 171.111L161.187 171.122C165.679 171.094 167.113 170.042 170.928 167.713L245.688 119.164L284.174 94.2047C287.757 91.6515 289.882 87.4617 293.792 85.3156C297.573 83.2402 308.181 82.6088 306.408 89.694C305.783 92.1909 302.814 96.2143 303.892 98.6395C305.615 102.512 313.026 102.508 316.384 101.77C322.887 100.339 326.38 97.2008 330.632 104.086C334.293 110.018 337.102 116.697 340.326 122.899L364.014 167.491C364.762 168.832 364.995 169.976 366.083 171.134L384.086 170.838C383.535 170.098 379.332 158.77 378.113 156.288L364.265 127.509L335.748 78.1595C330.356 68.795 324.192 59.6089 312.231 60.8906L312.233 60.8923ZM291.596 105.837C285.101 110.782 277.873 115.054 271.063 119.584L196.528 166.999C194.349 168.308 192.732 170.172 190.49 171.207L268.117 170.965C267.076 168.733 266.814 164.56 267.154 162.082C271.001 133.648 312.957 141.906 308.497 169.119C308.382 169.822 308.276 170.468 307.921 171.095L350.392 170.805C349.263 169.965 348.856 168.351 348.158 167.162L324.418 123.374C320.253 115.235 323.82 116.613 315.543 116.58C307.08 116.546 296.981 112.532 291.597 105.835L291.596 105.837ZM121.737 135.174C118.602 135.196 115.412 135.131 112.287 135.364L105.178 136.193C93.3598 137.149 56.1877 140.897 49.8517 153.184C56.7612 164.359 80.1169 170.693 91.9629 171.215C112.049 171.183 112.517 167.868 127.436 157.992L155.905 140.21C158.47 138.68 161.296 136.301 164.044 135.288L121.737 135.174ZM386.024 137.399C388.957 143.045 394.231 147.299 396.263 153.381C398.106 158.902 395.761 165.521 397.527 171.216L417.836 171.174L417.966 157.294C417.944 153.453 418.279 148.213 416.579 144.691C412.627 140.724 391.439 137.914 386.025 137.4L386.024 137.399ZM285.404 158.002C277.081 161.663 276.938 171.231 290.243 170.282C300.224 167.694 294.684 156.644 285.404 158.002ZM48.9916 171.31L49.0428 404.664C49.1136 427.479 62.4435 448.01 86.2498 451.571C90.7546 452.245 95.5708 452.054 100.12 452.054L426.569 452.035C444.881 452.003 450.622 442.242 450.309 424.743L448.858 375.404C443.095 377.511 427.951 379.227 421.868 379.765L421.641 380.257C403.738 381.508 378.26 380.951 364.234 369.444C340.294 349.805 340.384 304.604 359.526 282.02C376.829 261.607 418.899 261.86 444.37 265.664C445.921 265.896 448.008 265.962 449.418 266.603L449.444 214.021C449.389 196.344 442.48 185.072 422.595 185.047L96.2449 185.099C79.7986 185.096 62.9256 180.042 48.9907 171.311L48.9916 171.31ZM415.701 277.979C401.788 278.026 382.767 277.965 372.272 288.536C356.155 304.772 354.674 340.766 371.557 357.107C380.291 365.561 394.906 366.734 406.45 366.491C422.956 366.528 439.101 364.449 454.71 358.846C463.057 355.85 461.958 356.996 461.981 348.458L461.999 302.892C461.992 297.123 462.281 291.127 461.704 285.388C453.603 278.811 425.955 278.043 415.701 277.979Z" fill="black"/>
<path d="M399.037 349.019C365.289 353.392 358.006 301.511 392.324 295.94C426.308 293.066 431.604 343.542 399.037 349.019ZM393.195 309.913C376.699 315.588 382.774 337.974 397.783 334.771C413.453 329.806 408.394 307.675 393.195 309.913Z" fill="black"/>
</svg>
