<svg width="512" height="512" viewBox="0 0 512 512" fill="none" xmlns="http://www.w3.org/2000/svg">
<path d="M264 136C273.095 136.057 282.096 134.162 290.397 130.444C298.697 126.726 306.104 121.271 312.116 114.447C318.129 107.623 322.608 99.5884 325.252 90.8859C327.895 82.1834 328.641 73.0152 327.44 63.9998H368C370.122 63.9998 372.157 63.1569 373.657 61.6566C375.157 60.1563 376 58.1215 376 55.9998C376 53.878 375.157 51.8432 373.657 50.3429C372.157 48.8426 370.122 47.9998 368 47.9998H323.288C318.931 37.2395 311.728 27.8675 302.451 20.8877C293.175 13.908 282.174 9.58362 270.628 8.37784C259.082 7.17205 247.425 9.13032 236.906 14.0429C226.388 18.9554 217.404 26.637 210.918 36.2649C204.431 45.8927 200.686 57.1039 200.084 68.6973C199.482 80.2907 202.046 91.8295 207.5 102.077C212.954 112.325 221.094 120.896 231.047 126.872C241 132.848 252.391 136.003 264 136ZM264 23.9998C272.415 24.0096 280.679 26.2322 287.964 30.4447C295.249 34.6572 301.298 40.7113 305.504 47.9998H222.496C226.702 40.7113 232.751 34.6572 240.036 30.4447C247.321 26.2322 255.585 24.0096 264 23.9998ZM216.72 63.9998H311.28C312.489 70.8993 312.173 77.9798 310.354 84.7443C308.535 91.5088 305.258 97.7932 300.753 103.157C296.248 108.52 290.623 112.832 284.274 115.791C277.924 118.749 271.005 120.282 264 120.282C256.995 120.282 250.076 118.749 243.726 115.791C237.377 112.832 231.752 108.52 227.247 103.157C222.742 97.7932 219.464 91.5088 217.646 84.7443C215.827 77.9798 215.511 70.8993 216.72 63.9998ZM136 272H184C186.122 272 188.157 272.843 189.657 274.343C191.157 275.843 192 277.878 192 280C192 282.121 191.157 284.156 189.657 285.657C188.157 287.157 186.122 288 184 288H136C133.878 288 131.843 287.157 130.343 285.657C128.843 284.156 128 282.121 128 280C128 277.878 128.843 275.843 130.343 274.343C131.843 272.843 133.878 272 136 272ZM16 288C13.8783 288 11.8434 287.157 10.3431 285.657C8.84285 284.156 8 282.121 8 280C8 277.878 8.84285 275.843 10.3431 274.343C11.8434 272.843 13.8783 272 16 272H104C106.122 272 108.157 272.843 109.657 274.343C111.157 275.843 112 277.878 112 280C112 282.121 111.157 284.156 109.657 285.657C108.157 287.157 106.122 288 104 288H16ZM160 240C157.878 240 155.843 239.157 154.343 237.657C152.843 236.156 152 234.122 152 232C152 229.878 152.843 227.843 154.343 226.343C155.843 224.843 157.878 224 160 224H184C186.122 224 188.157 224.843 189.657 226.343C191.157 227.843 192 229.878 192 232C192 234.122 191.157 236.156 189.657 237.657C188.157 239.157 186.122 240 184 240H160ZM16 232C16 229.878 16.8429 227.843 18.3431 226.343C19.8434 224.843 21.8783 224 24 224H128C130.122 224 132.157 224.843 133.657 226.343C135.157 227.843 136 229.878 136 232C136 234.122 135.157 236.156 133.657 237.657C132.157 239.157 130.122 240 128 240H24C21.8783 240 19.8434 239.157 18.3431 237.657C16.8429 236.156 16 234.122 16 232ZM24 184C24 181.878 24.8429 179.843 26.3431 178.343C27.8434 176.843 29.8783 176 32 176H88C90.1217 176 92.1566 176.843 93.6569 178.343C95.1571 179.843 96 181.878 96 184C96 186.122 95.1571 188.156 93.6569 189.657C92.1566 191.157 90.1217 192 88 192H32C29.8783 192 27.8434 191.157 26.3431 189.657C24.8429 188.156 24 186.122 24 184ZM112 312C114.122 312 116.157 312.843 117.657 314.343C119.157 315.843 120 317.878 120 320C120 322.121 119.157 324.156 117.657 325.657C116.157 327.157 114.122 328 112 328H40C37.8783 328 35.8434 327.157 34.3431 325.657C32.8429 324.156 32 322.121 32 320C32 317.878 32.8429 315.843 34.3431 314.343C35.8434 312.843 37.8783 312 40 312H112ZM480 79.9998H368C361.637 80.0061 355.536 82.5367 351.036 87.0362C346.537 91.5357 344.006 97.6365 344 104V216C344.027 218.731 344.524 221.438 345.472 224H338.464L285.456 166.304C279.167 159.47 270.701 155.031 261.504 153.744L220.56 148.064C211.151 146.721 201.572 148.803 193.57 153.931C185.567 159.059 179.672 166.89 176.96 176H120C117.878 176 115.843 176.843 114.343 178.343C112.843 179.843 112 181.878 112 184C112 186.122 112.843 188.156 114.343 189.657C115.843 191.157 117.878 192 120 192H192C194.122 192 196.157 191.157 197.657 189.657C199.157 188.156 200 186.122 200 184C199.985 182.241 199.382 180.538 198.288 179.161C197.193 177.784 195.67 176.812 193.96 176.4C196.245 172.058 199.815 168.527 204.183 166.291C208.55 164.054 213.501 163.22 218.36 163.904L259.296 169.592C264.817 170.366 269.898 173.033 273.672 177.136L329.056 237.416C329.805 238.23 330.715 238.881 331.729 239.325C332.742 239.77 333.837 240 334.944 240H403.288C406.566 240.025 409.708 241.315 412.057 243.601C414.407 245.886 415.784 248.991 415.901 252.267C416.017 255.543 414.865 258.738 412.683 261.184C410.502 263.631 407.46 265.141 404.192 265.4L321.368 271.32C319.465 271.461 317.555 271.169 315.781 270.465C314.007 269.761 312.416 268.664 311.128 267.256L301.776 257.136L245.968 194.672C244.555 193.089 242.571 192.132 240.453 192.012C238.334 191.892 236.255 192.619 234.672 194.032C233.089 195.445 232.133 197.429 232.013 199.547C231.893 201.666 232.619 203.745 234.032 205.328L245.792 218.496C239.53 245.477 234.829 272.797 231.712 300.32C231.523 301.856 231.782 303.413 232.459 304.805C233.137 306.196 234.202 307.361 235.528 308.16L315.632 356.328C317.049 357.18 318.278 358.31 319.245 359.651C320.213 360.991 320.898 362.514 321.26 364.127C321.622 365.74 321.653 367.41 321.351 369.035C321.049 370.661 320.421 372.208 319.504 373.584L251.216 476.016C249.467 478.649 246.765 480.503 243.678 481.187C240.591 481.871 237.359 481.332 234.661 479.684C231.963 478.035 230.009 475.406 229.208 472.347C228.407 469.288 228.823 466.038 230.368 463.28L277.072 379.504C278.092 377.674 278.354 375.516 277.8 373.495C277.247 371.474 275.923 369.751 274.112 368.696L207.312 329.784C206.359 329.229 205.301 328.877 204.205 328.75C203.109 328.623 201.999 328.725 200.944 329.048C199.889 329.371 198.912 329.909 198.075 330.627C197.238 331.346 196.559 332.23 196.08 333.224L158.68 410.672L41.608 428.352C38.4905 428.819 35.3131 428.065 32.7368 426.249C30.1604 424.433 28.3836 421.693 27.776 418.6L27.616 417.784C26.9889 414.656 27.6162 411.407 29.3626 408.737C31.109 406.067 33.8347 404.19 36.952 403.512L133.696 381.856C134.873 381.593 135.976 381.068 136.921 380.318C137.866 379.568 138.629 378.614 139.152 377.528C139.152 377.528 159.896 334.568 163.072 328.008H168C170.122 328.008 172.157 327.165 173.657 325.665C175.157 324.164 176 322.129 176 320.008C176 317.886 175.157 315.851 173.657 314.351C172.157 312.851 170.122 312.008 168 312.008H144C141.878 312.008 139.843 312.851 138.343 314.351C136.843 315.851 136 317.886 136 320.008C136 322.129 136.843 324.164 138.343 325.665C139.843 327.165 141.878 328.008 144 328.008H145.6C141.68 335.528 135.824 347.608 126.424 367.088L33.464 387.896C26.2685 389.463 19.9769 393.794 15.9454 399.957C11.9139 406.119 10.4653 413.619 11.912 420.84L12.072 421.664C13.4634 428.81 17.5617 435.143 23.5111 439.339C29.4606 443.535 36.8012 445.271 44 444.184L165.248 425.864C166.534 425.669 167.754 425.164 168.801 424.392C169.848 423.619 170.69 422.603 171.256 421.432L206.736 347.968L259.28 378.568L216.4 455.488C213.579 460.626 212.423 466.512 213.089 472.335C213.755 478.159 216.212 483.632 220.12 488H176C173.878 488 171.843 488.843 170.343 490.343C168.843 491.843 168 493.878 168 496C168 498.121 168.843 500.156 170.343 501.657C171.843 503.157 173.878 504 176 504H312C314.122 504 316.157 503.157 317.657 501.657C319.157 500.156 320 498.121 320 496C320 493.878 319.157 491.843 317.657 490.343C316.157 488.843 314.122 488 312 488H261.84C262.813 487.031 263.711 485.991 264.528 484.888L332.816 382.464C334.933 379.286 336.384 375.712 337.08 371.958C337.777 368.204 337.705 364.348 336.869 360.623C336.033 356.897 334.45 353.38 332.216 350.284C329.982 347.187 327.144 344.576 323.872 342.608L248.232 297.128C251.32 272.84 254.696 252.32 258.656 233.984L299.36 278.112C302.266 281.301 305.863 283.784 309.876 285.37C313.888 286.956 318.211 287.604 322.512 287.264L405.328 281.344C412.562 280.806 419.327 277.559 424.271 272.251C429.216 266.943 431.976 259.966 432 252.712C431.971 248.29 430.908 243.937 428.896 240H480C486.363 239.993 492.464 237.463 496.964 232.963C501.463 228.464 503.994 222.363 504 216V104C503.994 97.6365 501.463 91.5357 496.964 87.0362C492.464 82.5367 486.363 80.0061 480 79.9998ZM408 95.9998H440V132.688L429.656 122.344C428.156 120.844 426.121 120.001 424 120.001C421.879 120.001 419.844 120.844 418.344 122.344L408 132.688V95.9998ZM488 216C488 218.122 487.157 220.156 485.657 221.657C484.157 223.157 482.122 224 480 224H368C365.878 224 363.843 223.157 362.343 221.657C360.843 220.156 360 218.122 360 216V104C360 101.878 360.843 99.8432 362.343 98.3429C363.843 96.8426 365.878 95.9998 368 95.9998H392V152C392 153.582 392.47 155.128 393.349 156.443C394.228 157.759 395.477 158.784 396.939 159.389C398.4 159.995 400.009 160.153 401.56 159.844C403.112 159.536 404.537 158.774 405.656 157.656L424 139.312L442.344 157.656C443.463 158.774 444.888 159.536 446.44 159.844C447.991 160.153 449.6 159.995 451.061 159.389C452.523 158.784 453.772 157.759 454.651 156.443C455.53 155.128 456 153.582 456 152V95.9998H480C482.122 95.9998 484.157 96.8426 485.657 98.3429C487.157 99.8432 488 101.878 488 104V216ZM416 184C416 186.122 415.157 188.156 413.657 189.657C412.157 191.157 410.122 192 408 192H376C373.878 192 371.843 191.157 370.343 189.657C368.843 188.156 368 186.122 368 184C368 181.878 368.843 179.843 370.343 178.343C371.843 176.843 373.878 176 376 176H408C410.122 176 412.157 176.843 413.657 178.343C415.157 179.843 416 181.878 416 184ZM416 208C416 210.122 415.157 212.156 413.657 213.657C412.157 215.157 410.122 216 408 216H376C373.878 216 371.843 215.157 370.343 213.657C368.843 212.156 368 210.122 368 208C368 205.878 368.843 203.843 370.343 202.343C371.843 200.843 373.878 200 376 200H408C410.122 200 412.157 200.843 413.657 202.343C415.157 203.843 416 205.878 416 208Z" fill="black"/>
</svg>
