<svg width="410" height="512" viewBox="0 0 410 512" fill="none" xmlns="http://www.w3.org/2000/svg">
<g clip-path="url(#clip0_77_14)">
<path d="M25.676 460.8H51.277V486.398C51.277 500.54 62.738 512 76.875 512H384.078C398.215 512 409.676 500.54 409.676 486.398V76.801C409.676 62.661 398.215 51.199 384.078 51.199H358.477V25.602C358.477 11.46 347.016 0 332.875 0H93.945C93.781 0 93.629 0.086 93.465 0.094C92.6824 0.135378 91.91 0.290333 91.172 0.554C90.918 0.639437 90.669 0.738924 90.426 0.852C89.476 1.262 88.609 1.84 87.867 2.559L2.535 87.895C1.81988 88.6186 1.24157 89.4655 0.828001 90.395C0.707001 90.656 0.641001 90.922 0.547001 91.195C0.299835 91.9031 0.152421 92.6422 0.109001 93.391C0.109001 93.578 5.36801e-07 93.738 5.36801e-07 93.926V435.199C-0.00068929 438.567 0.663485 441.903 1.95444 445.014C3.2454 448.125 5.13775 450.951 7.523 453.329C9.90869 455.707 12.7401 457.591 15.8551 458.873C18.9701 460.156 22.3075 460.811 25.676 460.801V460.8ZM384.078 68.267C388.789 68.267 392.609 72.087 392.609 76.802V486.399C392.609 487.52 392.389 488.629 391.961 489.665C391.532 490.7 390.904 491.641 390.112 492.434C389.32 493.226 388.379 493.855 387.344 494.284C386.309 494.713 385.2 494.935 384.079 494.935H76.874C75.7533 494.935 74.6437 494.714 73.6085 494.285C72.5732 493.855 71.6327 493.227 70.8405 492.434C70.0483 491.641 69.42 490.7 68.9915 489.665C68.563 488.629 68.3426 487.52 68.343 486.399V460.802H332.874C347.014 460.802 358.476 449.341 358.476 435.2V68.266L384.078 68.267ZM341.41 25.602V435.199C341.41 436.32 341.189 437.43 340.761 438.465C340.332 439.501 339.703 440.442 338.91 441.234C338.118 442.027 337.177 442.656 336.141 443.085C335.106 443.513 333.996 443.734 332.875 443.734H25.675C23.4121 443.733 21.2421 442.834 19.6425 441.233C18.0428 439.632 17.1445 437.462 17.145 435.199V102.4H76.875C91.015 102.4 102.477 90.938 102.477 76.802V17.066H332.875C333.996 17.0659 335.106 17.2866 336.142 17.7155C337.177 18.1445 338.118 18.7732 338.911 19.5659C339.703 20.3586 340.332 21.2996 340.761 22.3353C341.19 23.371 341.41 24.481 341.41 25.602ZM85.41 29.132V76.801C85.41 81.511 81.59 85.332 76.875 85.332H29.211L85.41 29.132Z" fill="black"/>
<path fill-rule="evenodd" clip-rule="evenodd" d="M260.719 167.371C261.516 168.396 262.537 169.226 263.704 169.796C264.871 170.367 266.153 170.663 267.451 170.663C268.75 170.663 270.032 170.367 271.199 169.796C272.365 169.226 273.386 168.396 274.184 167.371L314.008 116.171C315.339 114.382 315.916 112.142 315.616 109.932C315.315 107.722 314.162 105.718 312.402 104.348C308.742 101.496 303.472 102.098 300.543 105.695L267.453 148.235L262.809 142.258C261.404 140.515 259.37 139.394 257.146 139.136C254.922 138.878 252.685 139.505 250.919 140.881C249.152 142.257 247.997 144.272 247.703 146.491C247.408 148.711 247.998 150.957 249.344 152.746L260.719 167.371ZM68.3439 136.535H59.8089C57.5462 136.535 55.3762 137.434 53.7762 139.034C52.1761 140.634 51.2771 142.804 51.2769 145.066C51.2765 146.187 51.4969 147.297 51.9254 148.332C52.354 149.368 52.9824 150.309 53.7747 151.102C54.567 151.894 55.5077 152.523 56.543 152.952C57.5784 153.381 58.6881 153.602 59.8089 153.602H68.3439C73.0539 153.602 76.8749 149.782 76.8749 145.066C76.8749 140.356 73.0549 136.535 68.3439 136.535ZM102.477 136.535C100.214 136.535 98.0442 137.434 96.4442 139.034C94.8441 140.634 93.9451 142.804 93.9449 145.066C93.9445 146.187 94.1649 147.297 94.5934 148.332C95.022 149.368 95.6504 150.309 96.4427 151.102C97.235 151.894 98.1757 152.523 99.211 152.952C100.246 153.381 101.356 153.602 102.477 153.602H204.875C206.003 153.614 207.123 153.403 208.169 152.979C209.215 152.556 210.167 151.929 210.969 151.136C211.771 150.342 212.408 149.397 212.843 148.356C213.277 147.314 213.501 146.197 213.501 145.069C213.501 143.94 213.277 142.823 212.843 141.782C212.408 140.74 211.771 139.795 210.969 139.002C210.167 138.208 209.215 137.581 208.169 137.158C207.123 136.735 206.003 136.523 204.875 136.535H102.477ZM260.719 244.172C261.516 245.197 262.537 246.027 263.704 246.597C264.871 247.168 266.153 247.464 267.451 247.464C268.75 247.464 270.032 247.168 271.199 246.597C272.365 246.027 273.386 245.197 274.184 244.172L314.008 192.972C314.722 192.091 315.253 191.075 315.571 189.986C315.888 188.897 315.985 187.755 315.855 186.628C315.726 185.501 315.373 184.41 314.818 183.421C314.262 182.432 313.514 181.563 312.619 180.867C311.724 180.17 310.698 179.658 309.603 179.362C308.507 179.067 307.364 178.992 306.24 179.144C305.115 179.295 304.032 179.669 303.054 180.244C302.076 180.819 301.222 181.583 300.543 182.492L267.453 225.032L262.809 219.059C261.888 217.878 260.673 216.96 259.285 216.397C257.897 215.834 256.385 215.647 254.902 215.853C253.418 216.059 252.015 216.652 250.833 217.572C249.652 218.492 248.733 219.707 248.169 221.094C247.606 222.482 247.418 223.994 247.624 225.478C247.83 226.962 248.423 228.365 249.344 229.547L260.719 244.172ZM68.3439 213.332H59.8089C58.6882 213.332 57.5785 213.553 56.5433 213.982C55.508 214.411 54.5673 215.04 53.7751 215.833C52.9828 216.625 52.3544 217.566 51.9257 218.601C51.4971 219.637 51.2766 220.747 51.2769 221.867C51.2769 226.578 55.0969 230.398 59.8089 230.398H68.3439C70.6069 230.398 72.7773 229.499 74.3776 227.899C75.9778 226.299 76.8769 224.128 76.8769 221.865C76.8769 219.602 75.9778 217.432 74.3776 215.831C72.7773 214.231 70.6069 213.332 68.3439 213.332ZM204.875 213.332H102.477C101.356 213.332 100.247 213.553 99.2113 213.982C98.176 214.411 97.2353 215.04 96.4431 215.833C95.6508 216.625 95.0224 217.566 94.5937 218.601C94.1651 219.637 93.9446 220.747 93.9449 221.867C93.9449 226.578 97.7649 230.398 102.477 230.398H204.875C207.138 230.398 209.308 229.499 210.909 227.899C212.509 226.299 213.408 224.128 213.408 221.865C213.408 219.602 212.509 217.432 210.909 215.831C209.308 214.231 207.138 213.332 204.875 213.332ZM260.719 320.973C261.517 321.998 262.538 322.827 263.705 323.397C264.872 323.967 266.154 324.263 267.453 324.262C268.751 324.262 270.032 323.966 271.199 323.396C272.365 322.826 273.386 321.997 274.183 320.972L314.008 269.773C314.722 268.892 315.253 267.876 315.571 266.787C315.888 265.698 315.985 264.556 315.855 263.429C315.726 262.302 315.373 261.211 314.818 260.222C314.262 259.233 313.514 258.364 312.619 257.668C311.724 256.971 310.698 256.459 309.603 256.164C308.507 255.868 307.364 255.793 306.24 255.945C305.115 256.096 304.032 256.47 303.054 257.045C302.076 257.62 301.222 258.384 300.543 259.293L267.453 301.832L262.809 295.859C262.12 294.975 261.264 294.235 260.29 293.681C259.315 293.128 258.241 292.772 257.129 292.633C256.016 292.495 254.888 292.578 253.807 292.876C252.727 293.174 251.716 293.682 250.832 294.371C247.113 297.266 246.449 302.629 249.344 306.348L260.719 320.973ZM68.3439 290.133H59.8089C58.6882 290.133 57.5785 290.354 56.5433 290.783C55.508 291.212 54.5673 291.841 53.7751 292.634C52.9828 293.426 52.3544 294.367 51.9257 295.402C51.4971 296.438 51.2766 297.548 51.2769 298.668C51.2769 303.378 55.0969 307.199 59.8089 307.199H68.3439C73.0539 307.199 76.8749 303.379 76.8749 298.668C76.8751 297.548 76.6547 296.438 76.2261 295.403C75.7975 294.367 75.1692 293.426 74.377 292.634C73.5848 291.841 72.6443 291.213 71.6091 290.784C70.574 290.354 69.4644 290.134 68.3439 290.133ZM204.875 290.133H102.477C101.356 290.133 100.247 290.354 99.2113 290.783C98.176 291.212 97.2353 291.841 96.4431 292.634C95.6508 293.426 95.0224 294.367 94.5937 295.402C94.1651 296.438 93.9446 297.548 93.9449 298.668C93.9449 303.378 97.7649 307.199 102.477 307.199H204.875C207.138 307.199 209.308 306.3 210.909 304.7C212.509 303.1 213.408 300.929 213.408 298.666C213.408 296.403 212.509 294.233 210.909 292.633C209.308 291.032 207.138 290.133 204.875 290.133ZM260.719 397.773C261.517 398.798 262.539 399.626 263.706 400.196C264.873 400.767 266.154 401.063 267.453 401.063C268.751 401.063 270.032 400.766 271.198 400.196C272.364 399.626 273.385 398.797 274.183 397.773L314.008 346.574C314.722 345.693 315.253 344.677 315.571 343.588C315.888 342.499 315.985 341.357 315.855 340.23C315.726 339.103 315.373 338.012 314.818 337.023C314.262 336.034 313.514 335.165 312.619 334.469C311.724 333.772 310.698 333.26 309.603 332.965C308.507 332.669 307.364 332.594 306.24 332.746C305.115 332.897 304.032 333.271 303.054 333.846C302.076 334.421 301.222 335.185 300.543 336.094L267.453 378.633L262.809 372.66C262.12 371.776 261.264 371.036 260.29 370.482C259.315 369.929 258.241 369.573 257.129 369.434C256.016 369.296 254.888 369.379 253.807 369.677C252.727 369.975 251.716 370.483 250.832 371.172C247.113 374.066 246.449 379.43 249.344 383.148L260.719 397.773ZM68.3439 366.934H59.8089C57.5464 366.934 55.3765 367.833 53.7765 369.432C52.1765 371.032 51.2774 373.202 51.2769 375.464C51.2765 376.585 51.4969 377.695 51.9255 378.731C52.3542 379.766 52.9827 380.707 53.7751 381.5C54.5675 382.293 55.5083 382.921 56.5437 383.35C57.5792 383.779 58.689 384 59.8099 384H68.3449C73.0549 384 76.8759 380.18 76.8759 375.465C76.8759 370.754 73.0549 366.934 68.3439 366.934ZM204.875 366.934H102.477C100.214 366.934 98.0445 367.833 96.4445 369.432C94.8445 371.032 93.9454 373.202 93.9449 375.464C93.9445 376.585 94.1649 377.695 94.5934 378.73C95.022 379.766 95.6504 380.707 96.4427 381.5C97.235 382.292 98.1757 382.921 99.211 383.35C100.246 383.779 101.356 384 102.477 384H204.875C206.006 384.018 207.13 383.81 208.181 383.389C209.231 382.968 210.187 382.342 210.994 381.548C211.8 380.754 212.44 379.807 212.877 378.763C213.314 377.719 213.54 376.599 213.54 375.467C213.54 374.336 213.314 373.215 212.877 372.171C212.44 371.127 211.8 370.181 210.994 369.387C210.187 368.593 209.231 367.967 208.181 367.546C207.13 367.125 206.006 366.917 204.875 366.934Z" fill="black"/>
</g>
<defs>
<clipPath id="clip0_77_14">
<rect width="410" height="512" fill="white"/>
</clipPath>
</defs>
</svg>
