<svg width="239" height="120" viewBox="0 0 239 120" fill="none" xmlns="http://www.w3.org/2000/svg">
<path d="M206.665 34.2537V63.5917H196.189V43.0117H186.102V63.5917H175.626V34.2517H206.665V34.2537Z" fill="#ffffff"/>
<path fill-rule="evenodd" clip-rule="evenodd" d="M154.111 64.6407C163.489 64.6407 170.453 58.8907 170.453 50.1737C170.453 41.7367 165.315 36.2587 156.728 36.2587C152.765 36.2587 149.495 37.6537 147.032 40.0607C147.62 35.0857 151.827 31.4537 156.459 31.4537C157.528 31.4537 165.576 31.4367 165.576 31.4367L170.127 22.7277C170.127 22.7277 160.023 22.9577 155.326 22.9577C144.594 23.1447 137.345 32.8997 137.345 44.7477C137.345 58.5507 144.415 64.6407 154.111 64.6407ZM154.168 43.9727C157.65 43.9727 160.064 46.2607 160.064 50.1727C160.064 53.6937 157.919 56.5947 154.168 56.6027C150.58 56.6027 148.166 53.9147 148.166 50.2327C148.166 46.3197 150.58 43.9727 154.168 43.9727Z" fill="#ffffff"/>
<path d="M128.818 53.7697C128.818 53.7697 126.344 55.1957 122.649 55.4657C118.401 55.5917 114.616 52.9087 114.616 48.1417C114.616 43.4917 117.956 40.8267 122.542 40.8267C125.354 40.8267 129.074 42.7757 129.074 42.7757C129.074 42.7757 131.796 37.7807 133.206 35.2827C130.624 33.3257 127.185 32.2527 123.185 32.2527C113.09 32.2527 105.271 38.8347 105.271 48.0827C105.271 57.4487 112.62 63.8777 123.185 63.6837C126.138 63.5737 130.212 62.5367 132.695 60.9417L128.818 53.7697Z" fill="#ffffff"/>
<path d="M0 26.12L14.532 52.095V67.939L0.017 93.863L0 26.12Z" fill="#ffffff"/>
<path d="M55.797 42.643L69.414 34.297L97.282 34.271L55.797 59.685V42.643Z" fill="#ffffff"/>
<path d="M55.72 25.967L55.797 60.357L41.231 51.407V0L55.72 25.967Z" fill="#ffffff"/>
<path d="M97.282 34.271L69.413 34.297L55.72 25.967L41.231 0L97.282 34.271Z" fill="#ffffff"/>
<path d="M55.797 94.007V77.322L41.231 68.542L41.239 120L55.797 94.007Z" fill="#ffffff"/>
<path d="M69.38 85.737L14.531 52.095L0 26.12L97.223 85.703L69.38 85.737Z" fill="#ffffff"/>
<path d="M41.24 120L55.796 94.007L69.379 85.737L97.222 85.703L41.24 120Z" fill="#ffffff"/>
<path d="M0.0169983 93.863L41.35 68.543L27.454 60.017L14.532 67.939L0.0169983 93.863Z" fill="#ffffff"/>
<path d="M114.619 83.3367C114.299 83.7447 113.878 84.0527 113.373 84.2607C112.855 84.4716 112.3 84.579 111.741 84.5767C111.184 84.5842 110.631 84.4914 110.108 84.3027C109.638 84.1319 109.208 83.8657 108.846 83.5207C108.488 83.1751 108.207 82.7581 108.022 82.2967C107.821 81.7913 107.72 81.2515 107.727 80.7077C107.727 80.1677 107.82 79.6677 108.013 79.1937C108.198 78.7187 108.467 78.3117 108.804 77.9697C109.141 77.6207 109.545 77.3547 109.999 77.1467C110.462 76.9467 110.967 76.8387 111.522 76.8387C112.12 76.8387 112.675 76.9137 113.18 77.0627C113.685 77.2127 114.114 77.4627 114.467 77.8127L113.853 78.8527C113.556 78.5836 113.206 78.3792 112.826 78.2527C112.464 78.1362 112.086 78.0775 111.707 78.0787C111.371 78.0787 111.051 78.1447 110.74 78.2697C110.433 78.3931 110.153 78.5741 109.915 78.8027C109.671 79.0379 109.479 79.3212 109.351 79.6347C109.208 79.9587 109.141 80.3167 109.141 80.7157C109.141 81.1237 109.216 81.4897 109.359 81.8057C109.503 82.1307 109.696 82.4057 109.94 82.6377C110.184 82.8717 110.47 83.0457 110.798 83.1627C111.127 83.2877 111.472 83.3457 111.842 83.3457C112.296 83.3457 112.709 83.2537 113.062 83.0787C113.411 82.9098 113.726 82.6756 113.988 82.3887L114.619 83.3367ZM116.352 84.4017V76.9967H117.682V82.5137L122.007 76.9967H123.337V84.4027H122.007V78.8857L117.682 84.4027L116.352 84.4017ZM132.147 83.3367C131.819 83.7481 131.39 84.0667 130.902 84.2607C130.383 84.4715 129.828 84.5789 129.269 84.5767C128.713 84.5842 128.16 84.4913 127.637 84.3027C127.166 84.132 126.736 83.8657 126.374 83.5207C126.016 83.1751 125.735 82.7581 125.55 82.2967C125.349 81.7913 125.248 81.2515 125.255 80.7077C125.255 80.1677 125.348 79.6677 125.541 79.1937C125.727 78.7187 125.996 78.3117 126.332 77.9697C126.669 77.6207 127.073 77.3547 127.527 77.1467C128.006 76.9355 128.526 76.8305 129.05 76.8387C129.648 76.8387 130.203 76.9137 130.708 77.0627C131.213 77.2127 131.642 77.4627 131.996 77.8127L131.381 78.8527C131.084 78.5834 130.735 78.379 130.355 78.2527C129.993 78.1363 129.615 78.0776 129.236 78.0787C128.567 78.0809 127.925 78.3401 127.443 78.8027C127.201 79.0396 127.009 79.3225 126.879 79.6347C126.736 79.9587 126.669 80.3167 126.669 80.7157C126.669 81.1237 126.745 81.4897 126.888 81.8057C127.031 82.1307 127.224 82.4057 127.468 82.6377C127.712 82.8717 127.999 83.0457 128.327 83.1627C128.655 83.2787 129 83.3457 129.37 83.3457C129.825 83.3457 130.229 83.2537 130.59 83.0787C130.939 82.9098 131.254 82.6756 131.516 82.3887L132.147 83.3367ZM132.829 76.9967H139.653V78.3117H136.91V84.4017H135.58V78.3117H132.837V76.9967H132.829Z" fill="#ffffff"/>
<path fill-rule="evenodd" clip-rule="evenodd" d="M145.864 84.3277C146.369 84.1697 146.798 83.9277 147.168 83.5957L146.764 82.5637C146.52 82.7807 146.192 82.9637 145.797 83.1137C145.401 83.2637 144.955 83.3377 144.467 83.3377C143.735 83.3377 143.129 83.1467 142.649 82.7557C142.17 82.3637 141.909 81.8157 141.85 81.1157H147.606C147.665 80.8577 147.69 80.5667 147.69 80.2257C147.69 79.7177 147.597 79.2607 147.412 78.8447C147.239 78.4408 146.988 78.0755 146.672 77.7707C146.351 77.4688 145.973 77.2342 145.561 77.0807C145.129 76.9131 144.669 76.8283 144.206 76.8307C143.583 76.8307 143.036 76.9387 142.557 77.1387C142.104 77.3293 141.694 77.6096 141.353 77.9627C141.021 78.314 140.766 78.7305 140.605 79.1857C140.427 79.6705 140.338 80.1835 140.344 80.6997C140.344 81.2827 140.445 81.8147 140.63 82.2897C140.81 82.7499 141.085 83.1667 141.438 83.5127C141.783 83.8527 142.203 84.1117 142.7 84.2947C143.232 84.4834 143.793 84.5762 144.358 84.5687C144.869 84.5656 145.377 84.4837 145.864 84.3277ZM142.498 78.6277C142.91 78.2537 143.457 78.0707 144.147 78.0707C144.795 78.0707 145.317 78.2457 145.696 78.5957C146.075 78.9447 146.276 79.4277 146.31 80.0427H141.766C141.83 79.4982 142.09 78.9947 142.498 78.6277Z" fill="#ffffff"/>
<path d="M149.499 76.9967H150.711L153.589 80.6667L156.315 76.9967H157.493V84.4027H156.164V79.0027L153.572 82.4387H153.521L150.829 79.0017V84.4017H149.499V76.9967Z" fill="#ffffff"/>
<path fill-rule="evenodd" clip-rule="evenodd" d="M161.111 77.0217C160.707 77.1271 160.321 77.2923 159.967 77.5117L160.32 78.5617C160.623 78.4117 160.926 78.2867 161.229 78.1787C161.532 78.0697 161.919 78.0197 162.382 78.0197C162.752 78.0197 163.047 78.0787 163.274 78.1947C163.501 78.3027 163.669 78.4697 163.787 78.6697C163.905 78.8697 163.981 79.1187 164.023 79.4097C164.065 79.7007 164.082 80.0167 164.082 80.3587C163.809 80.169 163.499 80.0411 163.173 79.9837C162.857 79.9209 162.536 79.8874 162.214 79.8837C161.818 79.8837 161.448 79.9427 161.094 80.0417C160.741 80.1417 160.438 80.2917 160.194 80.4917C159.945 80.6913 159.743 80.9442 159.605 81.2317C159.456 81.5464 159.381 81.8908 159.386 82.2387C159.386 82.9627 159.597 83.5287 160.017 83.9287C160.438 84.3277 160.993 84.5267 161.683 84.5267C162.306 84.5267 162.803 84.4187 163.181 84.2027C163.56 83.9857 163.863 83.7367 164.082 83.4537V84.4107H165.327V79.8677C165.327 78.9017 165.117 78.1537 164.688 77.6287C164.267 77.1047 163.518 76.8387 162.458 76.8387C161.986 76.8387 161.54 76.9047 161.111 77.0217ZM163.334 83.0217C163.031 83.2377 162.635 83.3367 162.147 83.3367C161.718 83.3367 161.381 83.2287 161.146 83.0207C160.91 82.8047 160.792 82.5217 160.792 82.1717C160.792 81.9647 160.834 81.7897 160.927 81.6317C161.02 81.4737 161.146 81.3487 161.289 81.2487C161.445 81.1441 161.619 81.0679 161.802 81.0237C161.996 80.9737 162.189 80.9487 162.391 80.9487C163.048 80.9487 163.611 81.1067 164.074 81.4397V82.3797C163.855 82.6242 163.607 82.8406 163.334 83.0217ZM177.067 74.3917C177.336 74.2677 177.588 74.0597 177.824 73.7517L177.1 72.7117C176.915 72.9617 176.705 73.1357 176.469 73.2277C176.218 73.3254 175.959 73.3978 175.695 73.4437L175.443 73.4887C175.224 73.5267 174.989 73.5687 174.736 73.6107C174.33 73.6857 173.934 73.8086 173.558 73.9767C172.96 74.2347 172.481 74.5837 172.119 75.0247C171.757 75.4657 171.471 75.9647 171.277 76.5147C171.08 77.0718 170.948 77.6496 170.882 78.2367C170.814 78.8367 170.781 79.4097 170.781 79.9587C170.781 80.6667 170.873 81.3067 171.058 81.8807C171.244 82.4557 171.504 82.9377 171.849 83.3287C172.194 83.7287 172.607 84.0287 173.095 84.2447C173.583 84.4607 174.13 84.5687 174.744 84.5687C175.308 84.5687 175.83 84.4607 176.301 84.2607C176.755 84.0685 177.166 83.7889 177.513 83.4377C177.849 83.0957 178.119 82.6877 178.304 82.2307C178.497 81.7727 178.59 81.2817 178.59 80.7657C178.59 80.2087 178.506 79.7017 178.346 79.2517C178.198 78.8227 177.963 78.429 177.656 78.0957C177.347 77.7679 176.971 77.5119 176.553 77.3457C176.092 77.1643 175.601 77.0739 175.106 77.0797C174.786 77.0797 174.475 77.1217 174.172 77.2047C173.877 77.2877 173.594 77.408 173.33 77.5627C173.073 77.7096 172.838 77.8913 172.632 78.1027C172.43 78.3117 172.262 78.5447 172.144 78.8107H172.11C172.136 78.4697 172.178 78.1207 172.253 77.7627C172.329 77.4047 172.438 77.0627 172.582 76.7387C172.725 76.4147 172.91 76.1227 173.137 75.8567C173.38 75.5882 173.678 75.3753 174.012 75.2327C174.378 75.0582 174.766 74.9324 175.165 74.8587L175.429 74.8107C175.692 74.7627 175.943 74.7167 176.183 74.6667C176.503 74.6007 176.797 74.5157 177.067 74.3917ZM172.388 81.5067C172.257 81.0866 172.195 80.6484 172.203 80.2087C172.259 79.9563 172.362 79.7166 172.506 79.5017C172.649 79.2767 172.834 79.0777 173.053 78.9017C173.547 78.5145 174.158 78.3065 174.786 78.3117C175.569 78.3117 176.158 78.5527 176.57 79.0277C176.983 79.5097 177.185 80.1087 177.185 80.8327C177.185 81.1907 177.117 81.5157 177 81.8147C176.886 82.1096 176.714 82.3787 176.494 82.606C176.275 82.8332 176.012 83.014 175.721 83.1377C175.418 83.2707 175.089 83.3377 174.719 83.3377C174.349 83.3377 174.012 83.2627 173.701 83.1127C173.392 82.9657 173.118 82.7527 172.901 82.4887C172.673 82.1945 172.499 81.8619 172.388 81.5067ZM188.789 76.9967H187.459V84.4027H188.789V76.9967ZM180.508 76.9967H181.838V79.2187H183.067C183.647 79.2187 184.118 79.2937 184.497 79.4347C184.876 79.5767 185.179 79.7677 185.406 80.0007C185.633 80.2337 185.793 80.5087 185.886 80.8157C185.978 81.1237 186.029 81.4397 186.029 81.7727C186.029 82.1057 185.978 82.4227 185.869 82.7387C185.768 83.0547 185.591 83.3287 185.355 83.5787C185.12 83.8287 184.8 84.0287 184.396 84.1787C183.992 84.3277 183.504 84.4107 182.915 84.4107H180.5V76.9967H180.508ZM181.838 80.4577V83.1707H182.806C183.471 83.1707 183.942 83.0547 184.211 82.8207C184.481 82.5877 184.615 82.2557 184.615 81.8147C184.615 81.3647 184.472 81.0247 184.203 80.7907C183.925 80.5577 183.462 80.4407 182.823 80.4407H181.838V80.4577Z" fill="#ffffff"/>
<path d="M197.583 83.3367C197.263 83.7447 196.842 84.0527 196.337 84.2607C195.818 84.4715 195.264 84.5789 194.705 84.5767C194.148 84.5843 193.595 84.4914 193.072 84.3027C192.601 84.1322 192.172 83.8659 191.81 83.5207C191.452 83.1749 191.171 82.7579 190.985 82.2967C190.784 81.7911 190.685 81.2514 190.691 80.7077C190.691 80.1677 190.783 79.6677 190.977 79.1937C191.162 78.7187 191.431 78.3117 191.768 77.9697C192.105 77.6207 192.508 77.3547 192.963 77.1467C193.442 76.9354 193.962 76.8304 194.486 76.8387C195.083 76.8387 195.639 76.9137 196.144 77.0627C196.649 77.2127 197.078 77.4627 197.431 77.8127L196.817 78.8527C196.52 78.5836 196.17 78.3792 195.79 78.2527C195.428 78.1362 195.05 78.0775 194.671 78.0787C194.335 78.0787 194.015 78.1447 193.703 78.2697C193.396 78.3932 193.117 78.5741 192.879 78.8027C192.637 79.0394 192.445 79.3223 192.315 79.6347C192.172 79.9587 192.105 80.3167 192.105 80.7157C192.105 81.1237 192.18 81.4897 192.323 81.8057C192.466 82.1307 192.66 82.4057 192.904 82.6377C193.148 82.8717 193.434 83.0457 193.762 83.1627C194.091 83.2787 194.436 83.3457 194.806 83.3457C195.26 83.3457 195.664 83.2537 196.026 83.0787C196.375 82.9098 196.69 82.6756 196.952 82.3887L197.583 83.3367ZM198.264 76.9967H205.089V78.3117H202.345V84.4017H201.016V78.3117H198.273V76.9967H198.264Z" fill="#ffffff"/>
<path fill-rule="evenodd" clip-rule="evenodd" d="M207.866 76.9977H206.536V87.6977H207.866V84.0617C208.135 84.2367 208.455 84.3617 208.825 84.4447C209.195 84.5277 209.582 84.5687 209.978 84.5687C210.567 84.5687 211.097 84.4607 211.577 84.2617C212.037 84.0648 212.454 83.7794 212.805 83.4217C213.15 83.0627 213.411 82.6467 213.596 82.1557C213.781 81.6657 213.874 81.1407 213.874 80.5837C213.874 80.0337 213.79 79.5267 213.63 79.0687C213.479 78.6338 213.245 78.2326 212.94 77.8877C212.64 77.5514 212.269 77.2869 211.854 77.1137C211.399 76.9186 210.909 76.8221 210.415 76.8307C209.894 76.8307 209.406 76.9307 208.943 77.1307C208.48 77.3307 208.118 77.5707 207.866 77.8707V76.9977ZM208.792 78.3707C209.171 78.1707 209.583 78.0707 210.029 78.0707C210.416 78.0707 210.761 78.1287 211.073 78.2537C211.376 78.3787 211.628 78.5537 211.839 78.7867C212.049 79.0197 212.209 79.2867 212.31 79.6017C212.419 79.9177 212.47 80.2597 212.47 80.6337C212.47 81.0337 212.402 81.3907 212.285 81.7237C212.174 82.0395 211.999 82.3286 211.771 82.5727C211.541 82.8139 211.263 83.0037 210.955 83.1297C210.611 83.2737 210.241 83.3445 209.869 83.3377C209.508 83.3377 209.171 83.2967 208.851 83.2137C208.5 83.1184 208.168 82.9664 207.867 82.7637V79.0937C208.102 78.8117 208.414 78.5707 208.792 78.3707ZM224.073 76.9967H222.743V84.4027H224.073V76.9967ZM215.784 76.9967H217.114V79.2187H218.342C218.923 79.2187 219.394 79.2937 219.773 79.4347C220.152 79.5767 220.455 79.7677 220.682 80.0007C220.909 80.2337 221.069 80.5087 221.161 80.8157C221.254 81.1237 221.304 81.4397 221.304 81.7727C221.304 82.1057 221.254 82.4227 221.145 82.7387C221.044 83.0547 220.867 83.3287 220.631 83.5787C220.396 83.8287 220.076 84.0287 219.672 84.1787C219.268 84.3277 218.78 84.4107 218.191 84.4107H215.776V76.9967H215.784ZM217.123 80.4577V83.1707H218.091C218.755 83.1707 219.227 83.0547 219.496 82.8207C219.765 82.5877 219.9 82.2557 219.9 81.8147C219.9 81.3647 219.757 81.0247 219.488 80.7907C219.21 80.5577 218.747 80.4407 218.108 80.4407H217.123V80.4577Z" fill="#ffffff"/>
<path d="M230.452 80.5667L233.296 84.4027H231.664L229.467 81.4067L227.237 84.4027H225.689L228.516 80.6327L225.857 76.9967H227.49L229.518 79.7927L231.579 76.9967H233.128L230.452 80.5667ZM113.635 93.5557H109.554V99.7297H108.224V92.3247H114.964V99.7297H113.635V93.5557ZM122.512 93.6387H119.887L119.802 94.8867C119.71 95.9437 119.584 96.7927 119.407 97.4407C119.23 98.0907 119.011 98.5897 118.759 98.9387C118.507 99.2887 118.212 99.5297 117.875 99.6467C117.527 99.7728 117.159 99.8348 116.79 99.8297L116.689 98.5477C116.832 98.5557 117 98.5227 117.185 98.4397C117.371 98.3567 117.556 98.1737 117.732 97.8997C117.909 97.6157 118.069 97.2167 118.212 96.7007C118.355 96.1767 118.448 95.4947 118.498 94.6367L118.633 92.3317H123.842V99.7377H122.512V93.6387Z" fill="#ffffff"/>
<path fill-rule="evenodd" clip-rule="evenodd" d="M127.427 92.3417C126.997 92.4577 126.61 92.6237 126.282 92.8317L126.636 93.8807C126.939 93.7307 127.242 93.6057 127.544 93.4977C127.847 93.3897 128.235 93.3397 128.697 93.3397C129.068 93.3397 129.362 93.3977 129.589 93.5137C129.817 93.6227 129.985 93.7887 130.103 93.9887C130.22 94.1887 130.296 94.4387 130.338 94.7287C130.38 95.0207 130.397 95.3367 130.397 95.6777C130.124 95.4883 129.814 95.3607 129.488 95.3037C129.172 95.2408 128.851 95.2074 128.529 95.2037C128.134 95.2037 127.763 95.2617 127.41 95.3617C127.056 95.4617 126.753 95.6117 126.509 95.8117C126.26 96.0113 126.058 96.2642 125.92 96.5517C125.772 96.8666 125.697 97.2109 125.702 97.5587C125.702 98.2817 125.912 98.8487 126.333 99.2477C126.753 99.6467 127.309 99.8467 127.999 99.8467C128.622 99.8467 129.118 99.7387 129.497 99.5217C129.875 99.3057 130.178 99.0557 130.397 98.7727V99.7297H131.643V95.1867C131.643 94.2217 131.432 93.4727 131.003 92.9487C130.582 92.4237 129.833 92.1587 128.773 92.1587C128.318 92.1591 127.865 92.2213 127.427 92.3417ZM129.657 98.3397C129.355 98.5567 128.959 98.6567 128.471 98.6567C128.033 98.6567 127.705 98.5487 127.47 98.3397C127.234 98.1237 127.116 97.8407 127.116 97.4917C127.116 97.2837 127.158 97.1087 127.251 96.9507C127.343 96.7927 127.47 96.6677 127.613 96.5677C127.756 96.4677 127.932 96.3927 128.126 96.3427C128.318 96.293 128.516 96.2681 128.715 96.2687C129.371 96.2687 129.935 96.4267 130.398 96.7587V97.6987C130.179 97.9432 129.93 98.1586 129.657 98.3397Z" fill="#ffffff"/>
<path d="M132.946 92.3247H139.771V93.6387H137.027V99.7297H135.698V93.6397H132.955V92.3247H132.946Z" fill="#ffffff"/>
<path fill-rule="evenodd" clip-rule="evenodd" d="M145.982 99.6547C146.487 99.4967 146.916 99.2547 147.286 98.9227L146.882 97.8907C146.638 98.1077 146.31 98.2907 145.914 98.4407C145.519 98.5907 145.073 98.6647 144.585 98.6647C143.853 98.6647 143.247 98.4737 142.767 98.0827C142.287 97.6917 142.027 97.1427 141.968 96.4427H147.724C147.782 96.1857 147.808 95.8937 147.808 95.5527C147.808 95.0457 147.715 94.5877 147.53 94.1717C147.357 93.7678 147.105 93.4029 146.789 93.0987C146.469 92.7962 146.091 92.5612 145.679 92.4077C145.247 92.2402 144.787 92.1554 144.324 92.1577C143.701 92.1577 143.154 92.2657 142.675 92.4657C142.222 92.6558 141.812 92.9361 141.471 93.2897C141.139 93.6412 140.884 94.0576 140.722 94.5127C140.544 94.9976 140.456 95.5104 140.461 96.0267C140.461 96.6097 140.562 97.1417 140.747 97.6167C140.933 98.0907 141.21 98.4987 141.555 98.8397C141.9 99.1807 142.321 99.4387 142.818 99.6217C143.349 99.8107 143.91 99.9039 144.475 99.8967C144.972 99.8967 145.477 99.8127 145.982 99.6547ZM142.608 93.9467C143.02 93.5727 143.567 93.3897 144.257 93.3897C144.914 93.3897 145.427 93.5727 145.806 93.9137C146.184 94.2637 146.386 94.7457 146.42 95.3617H141.876C141.94 94.8168 142.2 94.3139 142.608 93.9467ZM148.456 92.3247H150.139L152.705 95.8947L149.962 99.7297H148.33L151.207 95.8937L148.456 92.3247ZM153.033 92.3247H154.363V99.7297H153.033V92.3247ZM159.117 99.7297L156.189 95.8937L158.924 92.3237H157.274L154.691 95.8937L157.468 99.7297H159.117ZM165.193 99.6547C165.698 99.4967 166.127 99.2547 166.497 98.9227L166.093 97.8907C165.849 98.1077 165.521 98.2907 165.126 98.4407C164.73 98.5907 164.284 98.6647 163.796 98.6647C163.064 98.6647 162.458 98.4737 161.978 98.0827C161.499 97.6917 161.238 97.1427 161.179 96.4427H166.935C166.994 96.1857 167.019 95.8937 167.019 95.5527C167.019 95.0457 166.927 94.5877 166.741 94.1717C166.568 93.7681 166.317 93.4032 166.001 93.0987C165.68 92.7962 165.303 92.5612 164.89 92.4077C164.458 92.2401 163.998 92.1553 163.535 92.1577C162.913 92.1577 162.366 92.2657 161.886 92.4657C161.433 92.656 161.024 92.9364 160.683 93.2897C160.35 93.6407 160.095 94.0573 159.934 94.5127C159.756 94.9975 159.667 95.5104 159.673 96.0267C159.673 96.6097 159.774 97.1417 159.959 97.6167C160.144 98.0907 160.422 98.4987 160.767 98.8397C161.112 99.1807 161.532 99.4387 162.029 99.6217C162.561 99.8107 163.122 99.9038 163.687 99.8967C164.198 99.8929 164.706 99.8113 165.193 99.6547ZM161.819 93.9467C162.232 93.5727 162.779 93.3897 163.469 93.3897C164.117 93.3897 164.638 93.5727 165.017 93.9137C165.396 94.2637 165.598 94.7457 165.631 95.3617H161.087C161.151 94.8168 161.411 94.3139 161.819 93.9467ZM172.414 89.8367C171.631 89.8367 171.202 89.4037 171.135 88.5387H169.881C169.881 88.8707 169.94 89.1707 170.049 89.4537C170.159 89.7367 170.319 89.9777 170.529 90.1777C170.739 90.3777 171.009 90.5357 171.32 90.6597C171.631 90.7847 171.993 90.8427 172.405 90.8427C172.784 90.8427 173.121 90.7847 173.424 90.6597C173.727 90.5437 173.979 90.3777 174.198 90.1777C174.408 89.9777 174.577 89.7367 174.694 89.4537C174.812 89.1707 174.871 88.8707 174.871 88.5387H173.626C173.567 89.4037 173.154 89.8367 172.414 89.8367ZM168.82 92.3237V99.7297H170.15L174.475 94.2127V99.7297H175.805V92.3237H174.475L170.15 97.8407V92.3237H168.82Z" fill="#ffffff"/>
</svg>
