<svg width="512" height="512" viewBox="0 0 512 512" fill="none" xmlns="http://www.w3.org/2000/svg">
<path d="M362.667 106.667C362.667 94.0087 366.42 81.6349 373.453 71.1102C380.485 60.5854 390.481 52.3824 402.175 47.5384C413.869 42.6944 426.738 41.4269 439.153 43.8964C451.567 46.3659 462.971 52.4613 471.922 61.4118C480.872 70.3624 486.968 81.7661 489.437 94.1809C491.906 106.596 490.639 119.464 485.795 131.158C480.951 142.853 472.748 152.848 462.223 159.881C451.698 166.913 439.325 170.667 426.667 170.667C409.693 170.667 393.414 163.924 381.412 151.921C369.41 139.919 362.667 123.641 362.667 106.667ZM42.6667 128H298.667C304.325 128 309.751 125.752 313.752 121.752C317.752 117.751 320 112.325 320 106.667C320 101.009 317.752 95.5825 313.752 91.5817C309.751 87.5809 304.325 85.3333 298.667 85.3333H42.6667C37.0088 85.3333 31.5825 87.5809 27.5818 91.5817C23.581 95.5825 21.3334 101.009 21.3334 106.667C21.3334 112.325 23.581 117.751 27.5818 121.752C31.5825 125.752 37.0088 128 42.6667 128ZM170.667 192C157.463 192.037 144.593 196.157 133.823 203.796C123.052 211.435 114.908 222.218 110.507 234.667H42.6667C37.0088 234.667 31.5825 236.914 27.5818 240.915C23.581 244.916 21.3334 250.342 21.3334 256C21.3334 261.658 23.581 267.084 27.5818 271.085C31.5825 275.086 37.0088 277.333 42.6667 277.333H110.507C114.42 288.403 121.304 298.182 130.403 305.602C139.503 313.021 150.468 317.794 162.098 319.399C173.729 321.004 185.577 319.378 196.346 314.7C207.115 310.023 216.389 302.473 223.154 292.877C229.919 283.281 233.914 272.009 234.702 260.294C235.49 248.58 233.04 236.875 227.621 226.459C222.202 216.044 214.022 207.32 203.977 201.242C193.931 195.164 182.408 191.967 170.667 192ZM469.333 234.667H298.667C293.009 234.667 287.583 236.914 283.582 240.915C279.581 244.916 277.333 250.342 277.333 256C277.333 261.658 279.581 267.084 283.582 271.085C287.583 275.086 293.009 277.333 298.667 277.333H469.333C474.991 277.333 480.418 275.086 484.418 271.085C488.419 267.084 490.667 261.658 490.667 256C490.667 250.342 488.419 244.916 484.418 240.915C480.418 236.914 474.991 234.667 469.333 234.667ZM213.333 384H42.6667C37.0088 384 31.5825 386.248 27.5818 390.248C23.581 394.249 21.3334 399.675 21.3334 405.333C21.3334 410.991 23.581 416.418 27.5818 420.418C31.5825 424.419 37.0088 426.667 42.6667 426.667H213.333C218.991 426.667 224.418 424.419 228.418 420.418C232.419 416.418 234.667 410.991 234.667 405.333C234.667 399.675 232.419 394.249 228.418 390.248C224.418 386.248 218.991 384 213.333 384ZM469.333 384H401.493C396.461 369.766 386.559 357.77 373.536 350.131C360.514 342.492 345.211 339.702 330.331 342.255C315.451 344.808 301.953 352.539 292.222 364.082C282.491 375.625 277.154 390.236 277.154 405.333C277.154 420.431 282.491 435.042 292.222 446.585C301.953 458.128 315.451 465.859 330.331 468.412C345.211 470.965 360.514 468.175 373.536 460.536C386.559 452.897 396.461 440.901 401.493 426.667H469.333C474.991 426.667 480.418 424.419 484.418 420.418C488.419 416.418 490.667 410.991 490.667 405.333C490.667 399.675 488.419 394.249 484.418 390.248C480.418 386.248 474.991 384 469.333 384Z" fill="black"/>
</svg>
