<svg width="188" height="228" viewBox="0 0 188 228" fill="none" xmlns="http://www.w3.org/2000/svg">
<path d="M110.976 111.554H168.291C175.517 111.554 181.438 117.462 181.438 124.672C181.438 131.895 175.517 137.791 168.291 137.791C175.517 137.791 181.438 143.699 181.438 150.909C181.438 158.132 175.517 164.028 168.291 164.028C175.517 164.028 181.438 169.936 181.438 177.146C181.438 184.369 175.517 190.277 168.291 190.277H158.285C165.512 190.277 171.433 196.173 171.433 203.396C171.433 210.606 165.512 216.514 158.285 216.514H98.8202C85.0446 216.514 60.6954 209.666 50.0856 200.719" stroke="#d24500" stroke-width="8" stroke-miterlimit="10" stroke-linecap="round" stroke-linejoin="round"/>
<path d="M50.0851 124.757C75.2439 108.745 82.9417 89.6572 87.7751 59.1996C89.2979 49.5534 92.1375 40.3658 105.925 47.2386C114.976 51.7479 122.819 66.9648 118.372 83.7007L110.976 111.554M168.291 137.791H150.37M168.291 164.028H150.37M158.285 190.277H150.37" stroke="#d24500" stroke-width="8" stroke-miterlimit="10" stroke-linecap="round" stroke-linejoin="round"/>
<path d="M50.0852 124.757V200.72M29.1076 135.982V136.006M64.3565 27.4761L56.7798 20.7722M141.597 27.4761L149.174 20.7722M102.977 17.3356V7.23132M40.4179 57.5717L50.5443 57.9937M165.535 57.5717L155.409 57.9937M42.5204 213.078H13.7001C9.54325 213.078 6.13538 209.678 6.13538 205.53V119.946C6.13538 115.798 9.54325 112.398 13.7001 112.398H42.5204C46.6773 112.398 50.0852 115.798 50.0852 119.946V205.53C50.0852 209.678 46.6773 213.078 42.5204 213.078Z" stroke="#d24500" stroke-width="8" stroke-miterlimit="10" stroke-linecap="round" stroke-linejoin="round"/>
</svg>
