<svg width="265" height="265" viewBox="0 0 265 265" fill="none" xmlns="http://www.w3.org/2000/svg">
<path d="M264.312 180.358L246.018 88.5297C245.559 86.2223 244.224 84.2301 242.261 82.9191C240.297 81.6086 237.945 81.1386 235.638 81.5988L212.097 86.2885H212.097C207.324 87.2398 204.215 91.896 205.165 96.6686L205.391 97.8021C191.282 102.483 174.133 103.83 152.798 86.2275C143.08 78.2097 130.415 77.9457 121.282 85.5696L111.756 93.5232H59.8791C59.2994 89.9991 56.607 87.0266 52.9032 86.288L29.3622 81.5982C27.0538 81.1381 24.703 81.6081 22.7393 82.9186C20.7756 84.2296 19.4413 86.2223 18.9817 88.5291L0.687857 180.358C-0.262934 185.131 2.84667 189.787 7.61926 190.738L31.1598 195.428C32.2961 195.656 33.4665 195.657 34.6032 195.431C35.74 195.204 36.8206 194.755 37.7827 194.108C39.7464 192.797 41.0812 190.805 41.5408 188.497L41.6521 187.938L97.491 243.776C100.802 247.088 105.221 248.912 109.929 248.912C114.638 248.912 119.056 247.088 122.367 243.777C124.729 241.416 126.334 238.493 127.061 235.303L134.823 243.064C141.682 249.923 152.842 249.922 159.701 243.063C162.032 240.737 163.659 237.8 164.395 234.59C167.687 237.793 172.032 239.554 176.659 239.554C181.369 239.554 185.786 237.73 189.098 234.417C192.911 230.604 194.604 225.463 194.177 220.47C194.675 220.511 195.176 220.532 195.681 220.532C200.39 220.532 204.807 218.708 208.119 215.396C212.761 210.755 214.347 203.822 212.433 197.666L223.15 186.95L223.458 188.498C223.918 190.805 225.253 192.797 227.216 194.109C228.178 194.755 229.259 195.205 230.396 195.431C231.532 195.658 232.703 195.657 233.839 195.429L257.38 190.739C262.153 189.787 265.263 185.131 264.312 180.358ZM33.184 187.22C33.1256 187.261 33.0595 187.29 32.9898 187.305C32.9201 187.319 32.8482 187.32 32.7782 187.306L9.23773 182.617C9.0979 182.585 8.97552 182.501 8.89586 182.382C8.8162 182.263 8.78535 182.118 8.80969 181.976L27.1035 90.1476C27.1387 89.9716 27.2505 89.8645 27.338 89.806C27.4083 89.7594 27.5124 89.7102 27.6418 89.7102C27.6762 89.7103 27.7105 89.7137 27.7443 89.7206L51.2847 94.4104C51.5694 94.4673 51.7697 94.7665 51.7128 95.0511L33.419 186.879C33.4046 186.949 33.3764 187.015 33.3361 187.073C33.2957 187.132 33.244 187.182 33.184 187.22ZM202.265 209.539C200.516 211.287 198.179 212.25 195.682 212.25C193.185 212.25 190.847 211.288 189.099 209.539L149.049 169.49C148.665 169.101 148.208 168.793 147.705 168.582C147.202 168.37 146.661 168.261 146.116 168.259C145.57 168.257 145.029 168.364 144.524 168.572C144.02 168.78 143.561 169.086 143.175 169.472C142.789 169.858 142.483 170.316 142.275 170.821C142.067 171.325 141.961 171.866 141.962 172.412C141.964 172.958 142.073 173.498 142.285 174.001C142.496 174.505 142.804 174.961 143.193 175.345L183.243 215.395C186.873 219.025 186.873 224.931 183.243 228.561C181.495 230.309 179.157 231.272 176.659 231.272C174.162 231.272 171.825 230.31 170.077 228.561L127.757 186.243C126.141 184.625 123.519 184.626 121.902 186.243C121.517 186.627 121.212 187.084 121.004 187.586C120.796 188.088 120.689 188.627 120.689 189.17C120.689 189.714 120.796 190.253 121.004 190.755C121.212 191.257 121.518 191.714 121.902 192.098L153.842 224.038L153.845 224.041H153.845C157.475 227.67 157.475 233.576 153.845 237.207C150.215 240.837 144.308 240.836 140.679 237.207L106.467 202.996C105.689 202.227 104.638 201.797 103.544 201.801C102.45 201.804 101.402 202.24 100.629 203.013C99.8555 203.787 99.4194 204.835 99.4161 205.928C99.4127 207.022 99.8423 208.073 100.611 208.851L116.513 224.753C118.261 226.5 119.224 228.839 119.224 231.336C119.224 233.832 118.261 236.17 116.512 237.919C114.765 239.667 112.427 240.629 109.929 240.629C107.432 240.629 105.094 239.667 103.346 237.919L43.5977 178.172L58.8114 101.804H101.838L89.717 111.925C84.4693 116.305 82.2152 122.28 83.533 128.316L93.1082 172.194C93.2262 172.734 93.4513 173.245 93.7701 173.697C94.0889 174.149 94.495 174.533 94.9645 174.825C95.4339 175.117 95.9572 175.313 96.5034 175.4C97.0496 175.487 97.6077 175.463 98.1447 175.331C109.644 172.497 117.332 166.955 121.651 158.388C125.383 150.984 126.124 142.559 126.909 133.641C127.008 132.507 127.109 131.367 127.216 130.224C127.229 130.127 127.245 130.059 127.258 130.013C128.686 129.412 135.714 130.803 146.478 140.586L204.139 199.087C205.723 202.588 204.991 206.813 202.265 209.539ZM207.593 190.795L152.296 134.692C152.244 134.64 152.19 134.588 152.135 134.538C141.097 124.482 130.706 119.896 124.329 122.274C121.329 123.393 119.381 125.95 118.987 129.288C118.983 129.321 118.979 129.353 118.976 129.386C118.865 130.567 118.761 131.744 118.658 132.915C117.316 148.172 116.234 160.458 100.25 166.082L91.6232 126.551C90.7506 122.555 93.3794 119.655 95.0237 118.283L126.589 91.9275C132.566 86.9381 140.981 87.215 147.528 92.6164C171.515 112.406 191.594 110.896 207.02 105.982L221.205 177.185L207.593 190.795ZM255.762 182.617L232.222 187.306C232.152 187.32 232.08 187.319 232.01 187.305C231.94 187.29 231.874 187.261 231.816 187.22C231.756 187.182 231.704 187.132 231.664 187.073C231.624 187.015 231.595 186.949 231.581 186.879L213.287 95.0506C213.263 94.9094 213.293 94.7641 213.373 94.6448C213.453 94.5256 213.575 94.4415 213.715 94.4099L237.256 89.7201C237.432 89.6844 237.574 89.7475 237.662 89.806C237.75 89.8645 237.861 89.9711 237.897 90.1476L256.19 181.976C256.247 182.261 256.047 182.56 255.762 182.617ZM128.359 49.2211V20.229C128.359 19.1308 128.796 18.0777 129.572 17.3011C130.349 16.5246 131.402 16.0884 132.5 16.0884C133.598 16.0884 134.651 16.5246 135.428 17.3011C136.204 18.0777 136.641 19.1308 136.641 20.229V49.2211C136.641 50.3193 136.204 51.3725 135.428 52.149C134.651 52.9255 133.598 53.3618 132.5 53.3618C131.402 53.3618 130.349 52.9255 129.572 52.149C128.796 51.3725 128.359 50.3193 128.359 49.2211ZM91.0518 32.4444C90.5114 31.4939 90.3689 30.3682 90.6554 29.313C90.9418 28.2578 91.6341 27.3587 92.581 26.812C93.5279 26.2653 94.6526 26.1153 95.7097 26.3948C96.7668 26.6742 97.6704 27.3605 98.2234 28.3037L112.72 53.4115C113.083 54.0406 113.274 54.7543 113.275 55.4809C113.275 56.2074 113.084 56.9212 112.721 57.5506C112.358 58.18 111.836 58.7029 111.207 59.0666C110.578 59.4304 109.865 59.6222 109.138 59.6229C108.41 59.6237 107.696 59.4327 107.065 59.0692C106.435 58.7056 105.912 58.1823 105.548 57.5521L91.0518 32.4444ZM63.3345 56.0211C63.6062 55.55 63.9681 55.1372 64.3995 54.8061C64.8308 54.475 65.3232 54.2321 65.8485 54.0913C66.3738 53.9506 66.9216 53.9148 67.4608 53.9858C67.9999 54.0569 68.5197 54.2335 68.9906 54.5056L94.0988 69.0014C94.8887 69.4573 95.506 70.1611 95.8549 71.0037C96.2038 71.8463 96.2647 72.7806 96.0282 73.6613C95.7918 74.5421 95.2711 75.3202 94.5471 75.8748C93.8232 76.4294 92.9363 76.7294 92.0244 76.7283C91.2988 76.7282 90.5861 76.5366 89.9582 76.173L64.8499 61.6772C63.899 61.1281 63.205 60.2237 62.9208 59.163C62.6366 58.1023 62.7854 56.9721 63.3345 56.0211ZM152.281 53.412L166.777 28.3043C167.049 27.8333 167.411 27.4206 167.842 27.0895C168.274 26.7585 168.766 26.5157 169.291 26.3749C169.816 26.2342 170.364 26.1983 170.903 26.2693C171.443 26.3403 171.962 26.5169 172.433 26.7888C173.384 27.3379 174.078 28.2423 174.362 29.303C174.647 30.3637 174.498 31.4939 173.949 32.4449L159.452 57.5526C159.181 58.0236 158.819 58.4365 158.387 58.7676C157.956 59.0987 157.464 59.3416 156.938 59.4823C156.413 59.6231 155.865 59.6589 155.326 59.5878C154.787 59.5168 154.267 59.3401 153.796 59.0681C153.325 58.7963 152.912 58.4344 152.581 58.003C152.25 57.5716 152.007 57.0792 151.867 56.554C151.726 56.0287 151.69 55.4809 151.761 54.9418C151.832 54.4027 152.009 53.8828 152.281 53.412ZM170.902 69.0014L196.009 54.5056C196.96 53.9652 198.086 53.8227 199.141 54.1092C200.196 54.3956 201.095 55.0879 201.642 56.0348C202.189 56.9817 202.339 58.1064 202.059 59.1635C201.78 60.2206 201.093 61.1242 200.15 61.6772L175.042 76.173C174.571 76.4451 174.052 76.6217 173.513 76.6928C172.973 76.7638 172.426 76.728 171.9 76.5873C171.375 76.4465 170.883 76.2037 170.451 75.8725C170.02 75.5414 169.658 75.1286 169.386 74.6575C168.837 73.7065 168.688 72.5763 168.973 71.5156C169.257 70.4549 169.951 69.5505 170.902 69.0014Z" fill="#d24500"/>
</svg>
