<svg width="201" height="230" viewBox="0 0 201 230" fill="none" xmlns="http://www.w3.org/2000/svg">
<path d="M162.177 96.5536C162.177 62.4484 134.446 34.738 100.426 34.738C66.4058 34.738 38.6748 62.4484 38.6748 96.5536C38.6748 130.609 66.3562 158.369 100.426 158.369C134.495 158.369 162.177 130.609 162.177 96.5536ZM100.426 150.388C70.7635 150.388 46.5979 126.247 46.5979 96.504C46.5979 66.7612 70.7635 42.6694 100.426 42.6694C130.088 42.6694 154.254 66.8107 154.254 96.5536C154.254 126.296 130.088 150.388 100.426 150.388Z" fill="#d24500"/>
<path d="M176.092 160.501C178.32 159.361 180.301 157.874 181.836 155.792C185.847 150.289 184.906 143.101 184.015 136.112C183.421 131.601 182.826 126.891 183.866 123.719C184.807 120.744 187.976 117.423 190.997 114.251C195.701 109.293 201 103.692 201 96.6032C201 89.5145 195.751 83.8137 191.047 78.8566C188.026 75.6344 184.857 72.3627 183.916 69.3884C182.876 66.2159 183.47 61.5066 184.064 56.9956C184.956 50.006 185.847 42.8181 181.885 37.3157C177.874 31.7637 170.694 30.4253 163.761 29.0868C159.305 28.2441 154.699 27.4014 152.075 25.4681C149.45 23.5844 147.271 19.5195 145.142 15.5538C141.923 9.60524 138.209 2.86352 131.623 0.682372C125.285 -1.39963 118.797 1.6738 112.508 4.64809C108.299 6.63095 103.991 8.66338 100.525 8.66338C97.0584 8.66338 92.7502 6.63095 88.541 4.64809C82.252 1.6738 75.765 -1.39963 69.4265 0.682372C62.7908 2.81395 59.3245 9.30781 55.9076 15.5538C53.7783 19.47 51.5499 23.5844 48.9749 25.4681C46.3008 27.4014 41.745 28.2937 37.2883 29.0868C30.3555 30.3757 23.1752 31.7637 19.1641 37.3157C15.153 42.8181 16.0939 50.006 16.9852 56.9956C17.5795 61.5066 18.1737 66.2159 17.1338 69.3884C16.1929 72.3627 13.0237 75.684 10.003 78.8566C5.2986 83.8137 0 89.4153 0 96.504C0 103.593 5.34812 109.194 10.003 114.151C13.0237 117.374 16.1929 120.645 17.1338 123.62C18.1737 126.792 17.5795 131.501 16.9852 136.012C16.0939 143.002 15.2025 150.19 19.1641 155.692C20.6992 157.774 22.68 159.311 24.9084 160.402L3.31781 197.828C2.5255 199.216 2.62454 200.951 3.61493 202.24C4.60532 203.529 6.23947 204.074 7.77458 203.678L39.6652 195.102L48.2321 227.026C48.6282 228.562 49.9653 229.703 51.5499 229.95C51.748 229.95 51.8965 230 52.0451 230C53.4316 230 54.7687 229.256 55.4619 228.017L75.7155 192.871C80.0237 192.375 84.3814 190.343 88.5905 188.36C92.7997 186.377 97.1079 184.345 100.574 184.345C104.041 184.345 108.349 186.377 112.558 188.36C116.767 190.343 121.125 192.425 125.433 192.871L145.687 228.017C146.38 229.256 147.717 230 149.103 230C149.252 230 149.45 230 149.599 229.95C151.183 229.752 152.471 228.612 152.916 227.026L161.483 195.102L193.374 203.678C194.909 204.074 196.543 203.529 197.534 202.24C198.524 200.951 198.623 199.216 197.831 197.828L176.092 160.501ZM53.2336 215.823L46.1523 189.302C45.6075 187.17 43.4287 185.931 41.2993 186.476L14.8064 193.565L32.4353 162.979C33.9704 163.326 35.5551 163.624 37.1397 163.921C41.5965 164.764 46.2018 165.607 48.8263 167.54C51.4509 169.424 53.6297 173.489 55.7591 177.454C58.6312 182.758 61.85 188.657 67.1981 191.433L53.2336 215.823ZM100.426 176.463C95.1766 176.463 90.0266 178.892 85.0747 181.222C80.1722 183.552 75.1212 185.931 71.8034 184.84C68.1885 183.651 65.4649 178.594 62.7908 173.736C60.2158 169.027 57.5913 164.169 53.5307 161.195C49.4206 158.221 43.9239 157.18 38.6253 156.188C33.2276 155.147 27.6319 154.106 25.4035 151.132C23.2742 148.207 23.9675 142.556 24.6608 137.153C25.354 131.749 26.0473 126.197 24.4627 121.29C22.9276 116.63 19.1641 112.615 15.5491 108.798C11.6866 104.733 7.67553 100.519 7.67553 96.6032C7.67553 92.687 11.6866 88.4734 15.5491 84.4086C19.2136 80.542 22.9771 76.5763 24.4627 71.9166C26.0473 67.009 25.354 61.457 24.6608 56.0537C23.9675 50.6008 23.2742 44.9993 25.4035 42.0746C27.5824 39.0507 33.1781 38.0097 38.6253 37.0183C43.9239 36.0268 49.4206 34.9858 53.5307 32.0115C57.5913 29.0868 60.2158 24.1793 62.7908 19.47C65.4649 14.5624 68.1885 9.55567 71.8034 8.36595C75.1707 7.27538 80.2217 9.65481 85.0747 11.9847C90.0266 14.3145 95.1766 16.7435 100.426 16.7435C105.675 16.7435 110.825 14.3145 115.777 11.9847C120.679 9.65481 125.73 7.27538 129.048 8.36595C132.663 9.55567 135.387 14.612 138.061 19.47C140.636 24.1793 143.26 29.0373 147.321 32.0115C151.431 34.9858 156.928 36.0268 162.226 37.0183C167.624 38.0593 173.22 39.1003 175.448 42.0746C177.577 44.9993 176.884 50.6504 176.191 56.0537C175.497 61.457 174.804 67.009 176.389 71.9166C177.924 76.5763 181.687 80.5916 185.302 84.4086C189.165 88.4734 193.176 92.687 193.176 96.6032C193.176 100.519 189.165 104.733 185.302 108.798C181.638 112.664 177.874 116.63 176.389 121.29C174.804 126.197 175.497 131.749 176.191 137.153C176.884 142.605 177.577 148.207 175.448 151.132C173.269 154.156 167.673 155.197 162.226 156.188C156.928 157.18 151.431 158.221 147.321 161.195C143.26 164.12 140.636 169.027 138.061 173.736C135.387 178.644 132.663 183.651 129.048 184.84C125.681 185.931 120.63 183.552 115.777 181.222C110.825 178.892 105.675 176.463 100.426 176.463ZM159.552 186.476C157.423 185.931 155.244 187.17 154.699 189.302L147.618 215.823L133.604 191.533C138.902 188.806 142.022 183.105 145.043 177.553C147.172 173.637 149.401 169.523 151.976 167.639C154.65 165.706 159.205 164.814 163.662 164.02C165.247 163.723 166.831 163.426 168.367 163.079L185.996 193.664L159.552 186.476Z" fill="#d24500"/>
<path d="M137.565 72.2636C136.03 70.7268 133.505 70.7268 131.97 72.2636L91.8588 112.416L68.9313 89.4649C67.3962 87.9281 64.8707 87.9281 63.3356 89.4649C61.8005 91.0016 61.8005 93.5297 63.3356 95.0664L89.0857 120.844C89.8285 121.587 90.8189 121.984 91.9084 121.984C92.9978 121.984 93.9882 121.587 94.731 120.844L137.565 77.8651C139.101 76.3284 139.101 73.8003 137.565 72.2636Z" fill="#d24500"/>
</svg>
