<svg width="241" height="220" viewBox="0 0 241 220" fill="none" xmlns="http://www.w3.org/2000/svg">
<path d="M95.8987 197.174C94.9797 197.174 94.0768 196.934 93.2794 196.477C92.4819 196.021 91.8177 195.364 91.3525 194.571C73.8369 164.731 27.1403 101.192 26.6712 100.553C25.921 99.5336 25.5629 98.2779 25.6623 97.0158C25.7617 95.7538 26.312 94.5696 27.2126 93.6799L41.5716 79.49C42.4486 78.6235 43.6016 78.0917 44.83 77.9872C46.0585 77.8827 47.2847 78.2121 48.2954 78.9181L94.8017 111.391C125.921 71.4853 154.828 43.9153 173.846 27.6469C195.256 9.33478 208.886 1.09067 209.456 0.751189C210.276 0.259634 211.213 -1.53097e-05 212.168 1.06743e-08H235.399C236.468 -6.79809e-05 237.511 0.324679 238.391 0.931184C239.271 1.53769 239.946 2.39731 240.326 3.39607C240.706 4.39483 240.774 5.48557 240.52 6.52366C240.266 7.56176 239.703 8.49818 238.904 9.20879C172.935 67.9671 101.196 193.253 100.479 194.512C100.021 195.315 99.3604 195.984 98.5624 196.451C97.7644 196.919 96.8576 197.168 95.9329 197.174L95.8987 197.174ZM37.8568 97.9809C47.2791 110.878 78.5612 154.011 95.808 181.603C102.783 169.814 117.379 145.72 136.006 118.146C167.306 71.8142 196.184 35.6944 222.021 10.5414H213.688C205.43 15.843 155.617 49.443 100.08 121.798C99.2538 122.874 98.0442 123.59 96.7032 123.798C95.3621 124.005 93.9928 123.687 92.8802 122.91L45.8584 90.0757L37.8568 97.9809Z" fill="#d24500"/>
<path d="M94.887 219.137C42.5663 219.137 0 176.571 0 124.25C0 71.9286 42.5663 29.3629 94.887 29.3629C105.378 29.3512 115.797 31.0828 125.721 34.4867C127.043 34.9411 128.131 35.9022 128.744 37.1585C129.358 38.4148 129.448 39.8635 128.993 41.1858C128.539 42.5081 127.578 43.5957 126.321 44.2095C125.065 44.8232 123.616 44.9127 122.294 44.4583C113.472 41.433 104.209 39.8946 94.8823 39.9059C48.3745 39.9059 10.5383 77.7426 10.5383 124.25C10.5383 170.757 48.3745 208.594 94.8823 208.594C141.39 208.594 179.226 170.757 179.226 124.25C179.228 118.543 178.655 112.851 177.515 107.259C177.377 106.581 177.373 105.882 177.504 105.202C177.636 104.522 177.9 103.875 178.282 103.297C178.664 102.719 179.155 102.223 179.729 101.835C180.303 101.447 180.947 101.176 181.626 101.038C182.304 100.899 183.003 100.895 183.683 101.027C184.363 101.158 185.01 101.423 185.588 101.804C186.166 102.186 186.662 102.678 187.05 103.251C187.438 103.825 187.709 104.47 187.847 105.148C189.128 111.435 189.773 117.834 189.772 124.25C189.774 176.571 147.208 219.137 94.887 219.137Z" fill="#d24500"/>
</svg>
