<svg width="96" height="96" viewBox="0 0 96 96" fill="none" xmlns="http://www.w3.org/2000/svg">
<path d="M84.1521 42.7498C83.9787 42.7496 83.807 42.7163 83.646 42.6517L73.3054 38.5066C73.0556 38.4068 72.8404 38.2352 72.6866 38.0131C72.5327 37.791 72.4471 37.5283 72.4402 37.2576C72.4333 36.9869 72.5056 36.7202 72.6479 36.4905C72.7903 36.2608 72.9965 36.0783 73.241 35.9657C74.2576 35.4943 75.0561 34.6483 75.4723 33.6017C75.6835 33.0658 75.7877 32.4933 75.7791 31.9168C75.7705 31.3403 75.6492 30.7712 75.4221 30.242C75.195 29.7127 74.8665 29.2338 74.4556 28.8326C74.0446 28.4314 73.5592 28.1157 73.027 27.9036C71.9536 27.4734 70.7546 27.4899 69.6932 27.9494C68.6318 28.409 67.7948 29.274 67.3658 30.3547C67.1559 30.8699 67.0489 31.4217 67.0508 31.9786C67.0526 32.5355 67.1634 33.0865 67.3768 33.6003C67.4831 33.8512 67.5134 34.1283 67.4636 34.3965C67.4139 34.6647 67.2865 34.9121 67.0974 35.1074C66.9084 35.3028 66.6661 35.4374 66.4012 35.4942C66.1363 35.5511 65.8607 35.5276 65.609 35.4269L55.2287 31.2708C55.0611 31.2038 54.9083 31.1041 54.7789 30.9775C54.6496 30.851 54.5463 30.6999 54.475 30.5331C54.4036 30.3663 54.3657 30.1869 54.3632 30.0053C54.3608 29.8236 54.3939 29.6433 54.4607 29.4746L57.6589 21.371C56.7661 21.3659 55.8822 21.1921 55.0531 20.8584C54.0858 20.467 53.2159 19.8659 52.5052 19.0977C51.7944 18.3295 51.2603 17.413 50.9408 16.4134C50.6212 15.4137 50.5241 14.3555 50.6562 13.3138C50.7883 12.2721 51.1465 11.2724 51.7053 10.3859C52.2642 9.49939 53.0099 8.7477 53.8895 8.18425C54.7692 7.62079 55.7612 7.2594 56.7951 7.12573C57.829 6.99206 58.8795 7.08939 59.8718 7.41082C60.8642 7.73225 61.7741 8.26988 62.537 8.98553L65.7434 0.870885C65.81 0.70216 65.909 0.548323 66.0347 0.418172C66.1604 0.28802 66.3103 0.184106 66.4759 0.112373C66.6415 0.0406404 66.8195 0.0024951 66.9997 0.000118361C67.1799 -0.00225837 67.3589 0.0311803 67.5263 0.0985223L93.4352 10.4736C94.4369 10.8762 95.2394 11.6625 95.6666 12.6602C96.0939 13.6578 96.1111 14.7854 95.7145 15.7959L85.4288 41.8697C85.3287 42.1288 85.1532 42.3514 84.9254 42.5084C84.6976 42.6655 84.4281 42.7496 84.1521 42.7498ZM76.6092 36.8611L83.3827 39.5719L93.1623 14.7817C93.2871 14.4522 93.2794 14.0867 93.1409 13.7629C93.0023 13.4391 92.7438 13.1825 92.4204 13.0477L67.7868 3.17692L64.1827 12.3306C64.0834 12.5831 63.9123 12.8006 63.691 12.9557C63.4697 13.1109 63.2079 13.1968 62.9383 13.2029C62.6687 13.2089 62.4034 13.1348 62.1754 12.9897C61.9474 12.8446 61.767 12.6351 61.6566 12.3872C61.302 11.6046 60.7269 10.9441 60.0028 10.488C59.2787 10.0319 58.4375 9.80017 57.5838 9.82171C56.7301 9.84325 55.9015 10.1171 55.201 10.6091C54.5005 11.1012 53.9589 11.7898 53.6437 12.5894C53.3284 13.389 53.2533 14.2643 53.4277 15.1066C53.6022 15.9488 54.0184 16.7208 54.6248 17.3267C55.2311 17.9325 56.0008 18.3455 56.8382 18.5143C57.6756 18.6831 58.5437 18.6002 59.3347 18.276C59.5838 18.1727 59.8575 18.1456 60.1217 18.198C60.3859 18.2504 60.629 18.38 60.8206 18.5707C61.0122 18.7613 61.1438 19.0046 61.1991 19.2702C61.2543 19.5357 61.2308 19.8118 61.1313 20.0639L57.5162 29.2093L64.3075 31.9298C64.3122 30.7626 64.5998 29.6142 65.1454 28.5845C65.6909 27.5548 66.4779 26.6749 67.4379 26.0214C68.3978 25.368 69.5017 24.9606 70.6536 24.8349C71.8054 24.7092 72.9702 24.8688 74.0469 25.3C75.1235 25.7311 76.0792 26.4208 76.8311 27.3089C77.5829 28.1969 78.108 29.2566 78.3607 30.3958C78.6133 31.5349 78.586 32.719 78.281 33.845C77.976 34.9711 77.4026 36.005 76.6106 36.8569L76.6092 36.8611ZM79.4055 56.6648C79.2255 56.6656 79.047 56.6307 78.8803 56.562C78.7136 56.4933 78.5619 56.3922 78.434 56.2645C78.3061 56.1368 78.2044 55.9849 78.1347 55.8176C78.065 55.6503 78.0288 55.4708 78.028 55.2893C78.0271 55.1079 78.0618 54.928 78.13 54.7601C78.1982 54.5921 78.2985 54.4394 78.4253 54.3105C78.552 54.1816 78.7028 54.0791 78.8689 54.009C79.0349 53.9388 79.2131 53.9022 79.3932 53.9014H79.4055C79.7693 53.9014 80.1181 54.047 80.3753 54.3061C80.6325 54.5652 80.777 54.9166 80.777 55.2831C80.777 55.6495 80.6325 56.001 80.3753 56.2601C80.1181 56.5192 79.7693 56.6648 79.4055 56.6648ZM65.1825 56.6648C64.8188 56.6666 64.4692 56.5228 64.2107 56.265C63.9523 56.0072 63.806 55.6564 63.8042 55.29C63.8024 54.9236 63.9451 54.5714 64.201 54.311C64.457 54.0506 64.8051 53.9032 65.1688 53.9014H65.1825C65.5462 53.9014 65.895 54.047 66.1522 54.3061C66.4094 54.5652 66.5539 54.9166 66.5539 55.2831C66.5539 55.6495 66.4094 56.001 66.1522 56.2601C65.895 56.5192 65.5462 56.6648 65.1825 56.6648Z" fill="#d24500"/>
<path d="M65.1688 56.6717C64.8065 56.6717 64.4589 56.5272 64.2019 56.2699C63.945 56.0126 63.7995 55.6633 63.7973 55.2983C63.7957 55.0488 63.8612 54.8035 63.9868 54.5885C64.1124 54.3735 64.2934 54.1968 64.5107 54.077C64.7279 53.9573 64.9733 53.8991 65.2208 53.9086C65.4682 53.9181 65.7085 53.9948 65.9162 54.1308C66.1238 54.2668 66.291 54.4568 66.4 54.6808C66.5091 54.9048 66.5559 55.1544 66.5355 55.403C66.5151 55.6517 66.4283 55.8901 66.2842 56.093C66.1402 56.296 65.9443 56.4558 65.7173 56.5556C65.5446 56.6327 65.3577 56.6723 65.1688 56.6717Z" fill="#d24500"/>
<path d="M75.9345 96H4.83702C3.55619 96.0004 2.32753 95.4888 1.42069 94.5775C0.513845 93.6662 0.00290598 92.4297 0 91.1392V19.4974C0.00508237 18.2089 0.517157 16.9751 1.42392 16.0665C2.33068 15.1579 3.55811 14.6486 4.83702 14.6505H40.372C40.7358 14.6505 41.0846 14.796 41.3418 15.0551C41.599 15.3143 41.7435 15.6657 41.7435 16.0321V30.3575C41.7445 30.63 41.6655 30.8968 41.5164 31.1242C41.3674 31.3517 41.1548 31.5296 40.9056 31.6356C40.6564 31.7417 40.3816 31.7711 40.1159 31.7202C39.8501 31.6693 39.6052 31.5403 39.412 31.3495C38.309 30.2746 36.8324 29.6771 35.2978 29.6846C33.7236 29.6846 32.2138 30.3146 31.1007 31.4361C29.9876 32.5575 29.3622 34.0786 29.3622 35.6645C29.3622 37.2505 29.9876 38.7715 31.1007 39.893C32.2138 41.0144 33.7236 41.6445 35.2978 41.6445C36.8314 41.6539 38.3079 41.0588 39.412 39.9864C39.6052 39.7957 39.8501 39.6667 40.1159 39.6158C40.3816 39.5649 40.6564 39.5943 40.9056 39.7003C41.1548 39.8064 41.3674 39.9843 41.5164 40.2117C41.6655 40.4392 41.7445 40.7059 41.7435 40.9785V53.9083H52.0154C51.394 52.5735 51.117 51.1022 51.2102 49.6309C51.3035 48.1595 51.7639 46.7356 52.5488 45.4913C53.3337 44.2469 54.4177 43.2223 55.7003 42.5124C56.9829 41.8025 58.4226 41.4303 59.886 41.4303C61.3495 41.4303 62.7892 41.8025 64.0718 42.5124C65.3544 43.2223 66.4384 44.2469 67.2233 45.4913C68.0082 46.7356 68.4686 48.1595 68.5619 49.6309C68.6551 51.1022 68.3781 52.5735 67.7567 53.9083H79.374C79.7377 53.9083 80.0866 54.0539 80.3438 54.313C80.6009 54.5721 80.7454 54.9236 80.7454 55.29V91.1392C80.7462 92.4262 80.24 93.6609 79.338 94.5723C78.436 95.4836 77.2119 95.9971 75.9345 96ZM4.83702 17.4138C4.28534 17.4113 3.75514 17.6291 3.3626 18.0197C2.97006 18.4102 2.7472 18.9416 2.74285 19.4974V91.1392C2.74539 91.6969 2.96724 92.2308 3.35977 92.6239C3.75231 93.017 4.28352 93.2374 4.83702 93.2366H75.9345C76.4846 93.2341 77.0112 93.0119 77.3989 92.6187C77.7866 92.2255 78.0037 91.6935 78.0026 91.1392V56.6648H65.1825C64.914 56.6645 64.6514 56.5849 64.4274 56.4357C64.2034 56.2866 64.0278 56.0744 63.9224 55.8256C63.817 55.5769 63.7863 55.3023 63.8343 55.0362C63.8823 54.77 64.0068 54.5239 64.1923 54.3284C64.8596 53.6202 65.3445 52.7581 65.6048 51.8175C65.8652 50.877 65.8929 49.8865 65.6856 48.9326C65.4784 47.9788 65.0424 47.0905 64.4159 46.3456C63.7893 45.6006 62.9912 45.0215 62.0913 44.659C61.1914 44.2964 60.2171 44.1614 59.2534 44.2657C58.2897 44.37 57.3661 44.7105 56.5632 45.2573C55.7602 45.8042 55.1024 46.5408 54.6472 47.4029C54.1921 48.2649 53.9533 49.2262 53.9519 50.2026C53.9383 51.7379 54.5302 53.2159 55.5976 54.3118C55.7864 54.5058 55.9142 54.7516 55.9651 55.0185C56.0159 55.2854 55.9875 55.5614 55.8834 55.8121C55.7794 56.0628 55.6042 56.277 55.38 56.4279C55.1557 56.5788 54.8922 56.6598 54.6225 56.6606H40.372C40.0083 56.6606 39.6595 56.5151 39.4023 56.2559C39.1451 55.9968 39.0006 55.6454 39.0006 55.279V43.5788C37.6781 44.202 36.2208 44.479 34.7638 44.3841C33.3068 44.2892 31.897 43.8254 30.6652 43.0358C29.4333 42.2461 28.4191 41.1561 27.7165 39.8667C27.0138 38.5772 26.6454 37.13 26.6454 35.659C26.6454 34.188 27.0138 32.7408 27.7165 31.4513C28.4191 30.1619 29.4333 29.0719 30.6652 28.2822C31.897 27.4926 33.3068 27.0288 34.7638 26.9339C36.2208 26.839 37.6781 27.116 39.0006 27.7392V17.4138H4.83702Z" fill="#d24500"/>
<path d="M40.3857 71.0122C40.022 71.0122 39.6732 70.8666 39.416 70.6075C39.1588 70.3484 39.0143 69.997 39.0143 69.6305V55.2983C39.0133 55.1168 39.0478 54.937 39.1158 54.7689C39.1838 54.6009 39.284 54.4481 39.4107 54.319C39.6664 54.0585 40.0145 53.911 40.3782 53.909C40.7419 53.907 41.0915 54.0506 41.3502 54.3083C41.6088 54.566 41.7552 54.9166 41.7572 55.2831V69.6236C41.7581 69.8056 41.7233 69.986 41.6547 70.1545C41.5862 70.3229 41.4854 70.476 41.3579 70.6051C41.2305 70.7341 41.079 70.8365 40.9122 70.9064C40.7453 70.9762 40.5664 71.0122 40.3857 71.0122ZM40.3953 95.9447C40.0316 95.9447 39.6828 95.7992 39.4256 95.54C39.1684 95.2809 39.0239 94.9295 39.0239 94.563V80.2156C39.0239 79.8492 39.1684 79.4977 39.4256 79.2386C39.6828 78.9795 40.0316 78.8339 40.3953 78.8339C40.7591 78.8339 41.1079 78.9795 41.3651 79.2386C41.6223 79.4977 41.7668 79.8492 41.7668 80.2156V94.563C41.7668 94.9295 41.6223 95.2809 41.3651 95.54C41.1079 95.7992 40.7591 95.9447 40.3953 95.9447Z" fill="#d24500"/>
<path d="M40.3857 56.6648H26.1942C25.8305 56.6648 25.4817 56.5192 25.2245 56.2601C24.9673 56.001 24.8228 55.6495 24.8228 55.2831C24.8228 54.9166 24.9673 54.5652 25.2245 54.3061C25.4817 54.047 25.8305 53.9014 26.1942 53.9014H40.3857C40.7495 53.9014 41.0983 54.047 41.3555 54.3061C41.6127 54.5652 41.7572 54.9166 41.7572 55.2831C41.7572 55.6495 41.6127 56.001 41.3555 56.2601C41.0983 56.5192 40.7495 56.6648 40.3857 56.6648ZM15.6548 56.6731H1.40983C1.04611 56.6731 0.69728 56.5275 0.440088 56.2684C0.182895 56.0093 0.0384064 55.6578 0.0384064 55.2914C0.0384064 54.9249 0.182895 54.5735 0.440088 54.3144C0.69728 54.0553 1.04611 53.9097 1.40983 53.9097H15.6548C16.0186 53.9097 16.3674 54.0553 16.6246 54.3144C16.8818 54.5735 17.0263 54.9249 17.0263 55.2914C17.0263 55.6578 16.8818 56.0093 16.6246 56.2684C16.3674 56.5275 16.0186 56.6731 15.6548 56.6731Z" fill="#d24500"/>
<path d="M20.8964 69.1525C19.1918 69.153 17.5248 68.6473 16.1039 67.6986C14.6829 66.75 13.571 65.4005 12.9071 63.8187C12.2432 62.2369 12.0567 60.4931 12.371 58.8052C12.6853 57.1173 13.4864 55.5601 14.6743 54.3283C14.9287 54.0699 15.2741 53.9231 15.6354 53.9198C15.9968 53.9164 16.3448 54.0569 16.6038 54.3107C16.8629 54.5644 17.0122 54.9109 17.0191 55.2749C17.026 55.6388 16.8901 55.9908 16.6409 56.2544C15.8291 57.0964 15.2816 58.1608 15.0667 59.3145C14.8518 60.4682 14.9791 61.6601 15.4327 62.7413C15.8863 63.8225 16.646 64.7452 17.617 65.3939C18.588 66.0427 19.7272 66.3888 20.8923 66.3891C22.4675 66.3891 23.9784 65.7594 25.0932 64.6383C26.2081 63.5171 26.8359 61.9961 26.8388 60.4091C26.8498 58.8611 26.2533 57.3713 25.1794 56.2641C25.0447 56.1366 24.937 55.9831 24.8627 55.8126C24.7884 55.6422 24.7491 55.4584 24.7471 55.2723C24.745 55.0861 24.7803 54.9015 24.8509 54.7295C24.9215 54.5574 25.0258 54.4015 25.1576 54.2711C25.2895 54.1407 25.4461 54.0385 25.6181 53.9706C25.7902 53.9027 25.974 53.8705 26.1587 53.876C26.3434 53.8815 26.5251 53.9245 26.6928 54.0024C26.8606 54.0804 27.011 54.1917 27.135 54.3297C28.7151 55.9542 29.5945 58.1416 29.5817 60.4161C29.5758 62.7337 28.6585 64.9545 27.0306 66.592C25.4026 68.2296 23.1968 69.1503 20.8964 69.1525ZM45.4765 83.6892C43.2228 83.6899 41.0578 82.8045 39.4422 81.2215C39.3071 81.0969 39.1982 80.9464 39.1218 80.7787C39.0454 80.611 39.0031 80.4297 38.9974 80.2453C38.9917 80.0609 39.0227 79.8772 39.0886 79.7051C39.1545 79.5329 39.254 79.3758 39.3811 79.2431C39.5082 79.1103 39.6604 79.0045 39.8288 78.9319C39.9972 78.8594 40.1782 78.8215 40.3614 78.8206C40.5445 78.8197 40.7259 78.8557 40.895 78.9266C41.064 78.9975 41.2173 79.1017 41.3457 79.2332C42.1816 80.0443 43.2352 80.5905 44.3762 80.804C45.5171 81.0176 46.6952 80.8892 47.7644 80.4348C48.8337 79.9804 49.747 79.2199 50.3914 78.2475C51.0358 77.2751 51.3828 76.1336 51.3894 74.9645C51.3961 73.7954 51.0622 72.65 50.4289 71.6702C49.7957 70.6904 48.8911 69.9194 47.8271 69.4526C46.7631 68.9858 45.5866 68.8438 44.4433 69.0441C43.3 69.2445 42.2401 69.7784 41.3951 70.5797C41.2075 70.7816 40.9642 70.9221 40.6965 70.9831C40.4288 71.0441 40.1491 71.0228 39.8935 70.9219C39.638 70.821 39.4184 70.6452 39.2631 70.4172C39.1078 70.1892 39.024 69.9195 39.0225 69.643V69.6305C39.0227 69.445 39.06 69.2615 39.1321 69.0908C39.2042 68.9201 39.3096 68.7658 39.4422 68.6371C40.4656 67.6438 41.7154 66.9187 43.0818 66.5254C44.4481 66.1321 45.8894 66.0826 47.2793 66.3812C48.6691 66.6798 49.9649 67.3174 51.0532 68.2381C52.1414 69.1588 52.9888 70.3345 53.521 71.662C54.0531 72.9895 54.2539 74.4283 54.1056 75.8522C53.9573 77.2761 53.4644 78.6415 52.6703 79.8288C51.8762 81.0161 50.805 81.9889 49.5508 82.662C48.2965 83.335 46.8975 83.6877 45.4765 83.6892Z" fill="#d24500"/>
</svg>
