<svg width="105" height="105" viewBox="0 0 105 105" fill="none" xmlns="http://www.w3.org/2000/svg">
<path d="M52.5 104.531C45.3321 104.56 38.2369 103.094 31.6672 100.227C25.0975 97.3605 19.1975 93.1558 14.3438 87.8813V92.3906C14.3437 94.2306 13.6128 95.9951 12.3118 97.2962C11.0108 98.5972 9.24619 99.3281 7.40625 99.3281C5.56631 99.3281 3.80173 98.5972 2.5007 97.2962C1.19966 95.9951 0.46875 94.2306 0.46875 92.3906V62.9063C0.46875 62.4463 0.651478 62.0051 0.976737 61.6799C1.30199 61.3546 1.74314 61.1719 2.20312 61.1719H31.6875C33.5274 61.1719 35.292 61.9028 36.5931 63.2038C37.8941 64.5049 38.625 66.2694 38.625 68.1094C38.625 69.9493 37.8941 71.7139 36.5931 73.0149C35.292 74.316 33.5274 75.0469 31.6875 75.0469H26.1566C30.4353 80.029 36.0329 83.7028 42.3062 85.6458C48.5794 87.5888 55.2737 87.7222 61.6193 86.0307C68.0699 84.3525 73.8871 80.8203 78.3515 75.871C82.8159 70.9217 85.7317 64.7724 86.7383 58.1836C87.0372 56.1207 88.0663 54.2335 89.6385 52.865C91.2107 51.4965 93.2217 50.7374 95.3061 50.7257H95.5264C96.7524 50.7298 97.9632 50.9985 99.0758 51.5136C100.188 52.0287 101.177 52.778 101.973 53.7102C102.769 54.6425 103.355 55.7357 103.69 56.9151C104.025 58.0945 104.101 59.3324 103.914 60.544C102.055 72.828 95.8363 84.0326 86.3959 92.1093C76.9556 100.186 64.9237 104.595 52.5 104.531ZM12.6094 81.3947C12.8754 81.3949 13.1378 81.4564 13.3763 81.5743C13.6148 81.6922 13.823 81.8633 13.9847 82.0746C19.7715 89.613 27.643 95.2879 36.6237 98.396C45.6045 101.504 55.2999 101.909 64.5085 99.5601C73.7171 97.2114 82.0341 92.2123 88.4291 85.1824C94.824 78.1525 99.0158 69.4008 100.485 60.0116C100.596 59.293 100.551 58.5589 100.352 57.8595C100.153 57.1601 99.8052 56.512 99.3325 55.9595C98.8597 55.4071 98.2731 54.9633 97.6129 54.6587C96.9527 54.354 96.2344 54.1957 95.5073 54.1945H95.3061C94.0476 54.21 92.8364 54.6764 91.8925 55.5089C90.9486 56.3414 90.3345 57.4849 90.162 58.7316C89.0493 65.9895 85.8335 72.762 80.9122 78.2114C75.9908 83.6607 69.58 87.5478 62.4727 89.3919C54.8776 91.4197 46.8422 91.0593 39.4592 88.3596C32.0762 85.6598 25.7038 80.7518 21.2084 74.3028C21.0274 74.0426 20.9212 73.7378 20.9013 73.4214C20.8814 73.1051 20.9486 72.7893 21.0955 72.5084C21.2425 72.2276 21.4636 71.9924 21.7348 71.8284C22.0061 71.6643 22.3171 71.5778 22.6341 71.5781H31.6875C32.6075 71.5781 33.4898 71.2127 34.1403 70.5622C34.7908 69.9116 35.1562 69.0294 35.1562 68.1094C35.1562 67.1894 34.7908 66.3071 34.1403 65.6566C33.4898 65.0061 32.6075 64.6406 31.6875 64.6406H3.9375V92.3906C3.9375 93.3106 4.30296 94.1929 4.95347 94.8434C5.60399 95.4939 6.48628 95.8594 7.40625 95.8594C8.32622 95.8594 9.20851 95.4939 9.85903 94.8434C10.5095 94.1929 10.875 93.3106 10.875 92.3906V83.1291C10.875 82.6691 11.0577 82.2279 11.383 81.9027C11.7082 81.5774 12.1494 81.3947 12.6094 81.3947Z" fill="#d24500"/>
<path d="M9.7043 54.2344C8.44914 54.2362 7.20856 53.9655 6.06824 53.441C4.92792 52.9165 3.91504 52.1508 3.09957 51.1966C2.2841 50.2425 1.68548 49.1226 1.34505 47.9145C1.00462 46.7064 0.930501 45.4388 1.12781 44.1993C2.68471 34.5753 6.9136 25.5822 13.3326 18.2446C19.7517 10.907 28.1027 5.52005 37.4342 2.69745C46.7657 -0.125143 56.7025 -0.269828 66.1122 2.27988C75.522 4.82959 84.0263 9.97116 90.6562 17.1188V12.6094C90.6562 10.7694 91.3872 9.00486 92.6882 7.70382C93.9892 6.40279 95.7538 5.67188 97.5937 5.67188C99.4337 5.67188 101.198 6.40279 102.499 7.70382C103.8 9.00486 104.531 10.7694 104.531 12.6094V42.0938C104.531 42.5537 104.349 42.9949 104.023 43.3201C103.698 43.6454 103.257 43.8281 102.797 43.8281H73.3125C71.4726 43.8281 69.708 43.0972 68.4069 41.7962C67.1059 40.4951 66.375 38.7306 66.375 36.8906C66.375 35.0507 67.1059 33.2861 68.4069 31.9851C69.708 30.684 71.4726 29.9531 73.3125 29.9531H78.8417C74.549 24.9326 68.9116 21.2427 62.5929 19.3174C56.2742 17.3921 49.537 17.3115 43.1741 19.0852C36.8112 20.8589 31.0872 24.4131 26.6757 29.3295C22.2642 34.2459 19.3486 40.3201 18.2721 46.8373C17.9593 48.8888 16.9244 50.7612 15.3536 52.1173C13.7828 53.4734 11.7795 54.2242 9.7043 54.2344ZM52.5 3.9375C40.9495 3.8866 29.7628 7.97473 20.9668 15.4612C12.1707 22.9476 6.34726 33.3372 4.55147 44.7473C4.43526 45.4912 4.48153 46.2513 4.68708 46.9756C4.89264 47.6998 5.25262 48.371 5.74226 48.9429C6.23189 49.5147 6.83958 49.9738 7.52352 50.2884C8.20747 50.6031 8.95144 50.7659 9.7043 50.7656C10.9559 50.7529 12.1618 50.2938 13.1049 49.4709C14.048 48.648 14.6663 47.5154 14.8485 46.2771C16.084 38.7891 19.525 31.8399 24.7315 26.3183C29.9381 20.7967 36.6733 16.9537 44.0758 15.2809C51.4784 13.6081 59.2116 14.1814 66.2865 16.9277C73.3614 19.6739 79.4563 24.4681 83.7916 30.6972C83.9726 30.9574 84.0788 31.2622 84.0987 31.5786C84.1186 31.895 84.0514 32.2107 83.9045 32.4916C83.7575 32.7724 83.5364 33.0076 83.2652 33.1717C82.9939 33.3357 82.6829 33.4222 82.3659 33.4219H73.3125C72.3925 33.4219 71.5102 33.7873 70.8597 34.4379C70.2092 35.0884 69.8437 35.9707 69.8437 36.8906C69.8437 37.8106 70.2092 38.6929 70.8597 39.3434C71.5102 39.9939 72.3925 40.3594 73.3125 40.3594H101.062V12.6094C101.062 11.6894 100.697 10.8071 100.047 10.1566C99.396 9.50608 98.5137 9.14063 97.5937 9.14063C96.6738 9.14063 95.7915 9.50608 95.141 10.1566C94.4905 10.8071 94.125 11.6894 94.125 12.6094V21.8709C94.1246 22.2331 94.0108 22.586 93.7996 22.8801C93.5885 23.1743 93.2905 23.395 92.9476 23.5113C92.6047 23.6276 92.2339 23.6337 91.8874 23.5286C91.5408 23.4235 91.2359 23.2126 91.0153 22.9254C86.5007 16.9978 80.673 12.1981 73.99 8.90338C67.307 5.60869 59.9509 3.90886 52.5 3.9375Z" fill="#d24500"/>
</svg>
