<svg width="124" height="114" viewBox="0 0 124 114" fill="none" xmlns="http://www.w3.org/2000/svg">
<path d="M122.476 77.5741C120.131 73.6387 115.973 72.247 112.347 74.2146L109.228 75.8944V49.3548C111.815 48.5389 113.7 46.1393 113.7 43.2838V29.3181C113.7 25.8147 110.824 22.9592 107.294 22.9592H89.5727C95.5925 20.4396 99.2673 16.0003 99.4849 10.8892C99.6783 6.61787 97.309 2.77851 93.5134 1.0508C91.1199 -0.0290213 84.6407 -1.66075 76.3967 6.18594C72.601 9.80934 69.4581 14.3446 67.3548 19.1198C65.2273 14.3446 62.0844 9.80934 58.3129 6.18594C50.0688 -1.68475 43.5896 -0.0290213 41.1962 1.0508C37.3522 2.77851 35.0071 6.64187 35.1763 10.8892C35.3939 16.0003 39.0687 20.4156 45.0885 22.9592H30.2444C26.7147 22.9592 23.8377 25.8147 23.8377 29.3181V43.2838C23.8377 46.1153 25.7234 48.5389 28.3103 49.3548V70.5432L22.8948 72.7029C22.0487 71.2871 20.5014 70.3513 18.7123 70.3513H4.98029C2.29673 70.3273 0.12088 72.4869 0.12088 75.1505V107.569C0.12088 110.233 2.29673 112.392 4.98029 112.392H18.7365C20.5497 112.392 22.1212 111.408 22.9674 109.945L32.3235 113.088C33.9192 113.64 35.3939 113.88 37.0862 113.88H77.0978C79.5396 113.88 81.6429 113.256 83.722 111.936L120.76 88.4443C124.628 85.9727 124.531 81.0055 122.476 77.5741ZM85.3418 88.7802C83.6495 89.6921 82.0781 90.1 80.2648 90.1H79.5879L79.8539 89.932C82.8033 88.0363 84.1089 84.5329 83.1176 81.1975C82.1264 77.862 79.1044 75.6064 75.5989 75.6064H69.2647V49.6427H105.36V77.982L85.3418 88.7802ZM109.832 29.3181V43.2838C109.832 44.6755 108.696 45.8034 107.294 45.8034H69.2647V27.0145C72.9878 27.8543 75.4054 31.1178 78.1615 34.8132C79.9747 37.2368 81.8363 39.7564 84.2056 41.6041C84.5682 41.892 84.9792 42.012 85.4144 42.012C85.9946 42.012 86.5507 41.772 86.9375 41.2921C87.5902 40.4523 87.4693 39.2524 86.6232 38.6046C84.6649 37.0448 83.0209 34.8612 81.3044 32.5336C79.8539 30.5899 78.3066 28.5022 76.4692 26.7985H107.318C108.696 26.7985 109.832 27.9263 109.832 29.3181ZM79.056 8.96948C82.5132 5.70602 85.9946 3.97831 89.0166 3.97831C90.032 3.97831 90.9991 4.17028 91.9178 4.57821C94.287 5.63404 95.7376 8.05763 95.6167 10.7452C95.4475 14.6085 92.1837 18.04 86.8649 19.8877C82.4165 21.4474 76.6384 22.4552 70.0142 22.8392C71.8515 17.776 75.1395 12.7369 79.056 8.96948ZM39.0445 10.7452C38.9236 8.05763 40.3742 5.63404 42.7435 4.57821C43.638 4.17028 44.605 3.97831 45.6446 3.97831C48.6666 3.97831 52.148 5.70602 55.581 8.99348C59.5217 12.7369 62.7855 17.776 64.647 22.8392C58.0228 22.4552 52.2205 21.4474 47.7963 19.8877C42.4775 18.016 39.2137 14.6085 39.0445 10.7452ZM27.7059 29.3181C27.7059 27.9263 28.8422 26.7985 30.2444 26.7985H58.2162C56.3788 28.5022 54.8557 30.5659 53.381 32.5336C51.6403 34.8612 50.0205 37.0688 48.0622 38.6046C47.216 39.2524 47.0952 40.4762 47.7479 41.2921C48.1347 41.772 48.6908 42.012 49.271 42.012C49.682 42.012 50.1172 41.868 50.4798 41.6041C52.8491 39.7324 54.7106 37.2368 56.5239 34.8132C59.2799 31.1178 61.6976 27.8543 65.4207 27.0145V45.8034H30.2444C28.8422 45.8034 27.7059 44.6755 27.7059 43.2838V29.3181ZM32.1785 49.6427H65.3965V75.6304H57.5393C56.3546 75.6304 55.3634 75.3904 54.3238 74.8385L42.8402 68.7675C39.9874 67.2558 36.917 67.0878 33.9192 68.2876L32.1785 68.9835V49.6427ZM18.7365 108.553H4.98029C4.44841 108.553 3.98907 108.097 3.98907 107.569V75.1505C3.98907 74.6226 4.44841 74.1666 4.98029 74.1666H18.7365C19.2684 74.1666 19.7277 74.6226 19.7277 75.1505V107.545C19.7277 108.097 19.2684 108.553 18.7365 108.553ZM118.681 85.2048L81.6429 108.721C80.1923 109.633 78.7901 110.065 77.0978 110.065H37.1104C35.8291 110.065 34.7895 109.897 33.5807 109.489L23.5959 106.129V76.5423L35.3697 71.839C37.3038 71.0712 39.1896 71.1671 41.0269 72.151L52.5106 78.222C54.1062 79.0618 55.7019 79.4698 57.5393 79.4698H75.5989C77.4121 79.4698 78.8868 80.5736 79.3945 82.3013C79.9022 84.029 79.2495 85.7567 77.7264 86.7166L73.9307 89.1402C72.8911 89.812 71.8757 90.1 70.6186 90.1H53.6227C52.559 90.1 51.6886 90.9639 51.6886 92.0197C51.6886 93.0755 52.559 93.9394 53.6227 93.9394H80.2407C82.7066 93.9394 84.9067 93.3634 87.1551 92.1636L114.16 77.5741C116.892 76.0863 118.777 78.9419 119.116 79.5178C120.083 81.0775 120.736 83.909 118.681 85.2048Z" fill="#d24500"/>
<path d="M77.0978 114H37.0862C35.3615 114 33.8805 113.754 32.2839 113.201L23.0217 110.09C22.1164 111.587 20.4835 112.512 18.7365 112.512H4.98029C2.23412 112.512 0 110.295 0 107.569V75.1505C0 73.8237 0.521722 72.5798 1.46894 71.648C2.40988 70.7225 3.6593 70.2109 4.9815 70.2313H18.7123C20.4596 70.2313 22.0339 71.0973 22.9449 72.5536L28.1894 70.4621V49.4419C25.5515 48.5694 23.7168 46.0498 23.7168 43.2835V29.3179C23.7168 25.7453 26.645 22.8389 30.2444 22.8389H44.5134C38.7058 20.2222 35.2684 15.8933 35.0557 10.894C34.884 6.58811 37.2748 2.68132 41.1464 0.941131C43.5657 -0.150208 50.0891 -1.83233 58.3968 6.09907C62.0953 9.65264 65.1886 14.0478 67.3541 18.8237C69.4963 14.0482 72.5899 9.65336 76.313 6.09907C84.6386 -1.82513 91.1504 -0.147328 93.5637 0.941131C97.4282 2.70028 99.8002 6.60707 99.6058 10.8942C99.3921 15.9158 95.9564 20.2442 90.1527 22.8389H107.294C110.893 22.8389 113.821 25.7453 113.821 29.3179V43.2835C113.821 46.0942 112.028 48.5579 109.349 49.4419V75.6928L112.289 74.109C115.965 72.1138 120.197 73.5139 122.58 77.5129C124.661 80.9875 124.753 86.0353 120.825 88.545L83.7871 112.037C81.6779 113.376 79.5524 114 77.0978 114ZM22.912 109.799L32.3622 112.974C33.9332 113.518 35.3898 113.76 37.0862 113.76H77.0978C79.504 113.76 81.5883 113.148 83.6568 111.835L120.695 88.343C124.495 85.9146 124.396 81.0137 122.372 77.6353L122.372 77.635C120.059 73.7534 115.96 72.3904 112.404 74.3197L109.107 76.0959V49.2672L109.191 49.2405C111.816 48.4127 113.58 46.0188 113.58 43.2838V29.3181C113.58 25.878 110.76 23.0791 107.294 23.0791H88.975L89.5258 22.8485C95.5621 20.3222 99.1481 15.9612 99.364 10.8841C99.5538 6.69489 97.2375 2.87785 93.4631 1.15997C91.0946 0.0914324 84.6988 -1.54965 76.4803 6.27256C72.7158 9.86621 69.5986 14.3256 67.4655 19.168L67.3555 19.4181L67.2443 19.1685C65.0863 14.3249 61.9691 9.86549 58.229 6.27232C50.0282 -1.55709 43.6208 0.0892726 41.2462 1.16021C37.4646 2.85985 35.1294 6.6769 35.2972 10.8846C35.5124 15.937 39.0984 20.298 45.1359 22.8488L45.6811 23.0791H30.2444C26.7785 23.0791 23.9586 25.878 23.9586 29.3181V43.2838C23.9586 45.9761 25.7631 48.4256 28.3468 49.2405L28.4312 49.2672V70.6243L22.8438 72.8526L22.7909 72.7641C21.9329 71.3286 20.4083 70.4712 18.7123 70.4712H4.98029C3.71854 70.4511 2.5339 70.9382 1.6389 71.8186C0.738098 72.705 0.241762 73.8883 0.241762 75.1507V107.569C0.241762 110.163 2.36733 112.273 4.98029 112.273H18.7365C20.4301 112.273 22.0112 111.358 22.8624 109.885L22.912 109.799ZM77.0978 110.185H37.1104C35.8184 110.185 34.7513 110.011 33.5418 109.602L23.4751 106.215V76.4614L35.3245 71.7279C37.2934 70.9464 39.2311 71.0534 41.0842 72.0454L52.5674 78.1161C54.1664 78.9579 55.7464 79.35 57.5393 79.35H75.5989C77.4541 79.35 78.9896 80.4953 79.5108 82.2679C80.0328 84.0446 79.3578 85.8309 77.7911 86.818L73.9962 89.2414C72.9489 89.9181 71.9069 90.2202 70.6186 90.2202H53.6227C52.6228 90.2202 51.8095 91.0274 51.8095 92.0199C51.8095 93.0124 52.6228 93.8196 53.6227 93.8196H80.2407C82.6667 93.8196 84.8457 93.2598 87.0978 92.0581L114.102 77.4687C117.01 75.8847 119.003 79.087 119.22 79.4575C120.176 80.9985 120.893 83.9517 118.746 85.3061L81.7082 108.822C80.209 109.765 78.7872 110.185 77.0978 110.185ZM23.7168 106.043L33.6194 109.375C34.818 109.78 35.8296 109.945 37.1102 109.945H77.0975C78.7384 109.945 80.1203 109.536 81.5779 108.62L118.615 85.1038C120.617 83.8418 119.921 81.0465 119.013 79.5809C118.676 79.0078 116.869 76.2358 114.218 77.6794L87.2126 92.2692C84.9234 93.4909 82.7081 94.0596 80.2404 94.0596H53.6227C52.4896 94.0596 51.5677 93.1446 51.5677 92.0199C51.5677 90.8952 52.4896 89.9802 53.6227 89.9802H70.6186C71.8573 89.9802 72.8585 89.6901 73.8649 89.0398L77.6611 86.6158C79.1351 85.6869 79.77 84.0067 79.2785 82.3349C78.7884 80.6674 77.3441 79.59 75.5989 79.59H57.5393C55.7055 79.59 54.0893 79.189 52.454 78.328L40.9704 72.257C39.1825 71.2998 37.3137 71.1969 35.4147 71.9506L23.7168 76.6233V106.043ZM18.7365 108.673H4.98029C4.37734 108.673 3.86819 108.168 3.86819 107.569V75.1505C3.86819 74.552 4.37734 74.0464 4.98029 74.0464H18.7365C19.3395 74.0464 19.8486 74.5518 19.8486 75.1505V107.545C19.8486 108.156 19.3395 108.673 18.7365 108.673ZM4.98029 74.2866C4.51659 74.2866 4.10995 74.6905 4.10995 75.1507V107.569C4.10995 108.03 4.51659 108.433 4.98029 108.433H18.7365C19.2084 108.433 19.6069 108.027 19.6069 107.546V75.1509C19.6069 74.6907 19.2002 74.2868 18.7365 74.2868H4.98029V74.2866ZM80.2648 90.22H79.1731L79.7888 89.8307C82.6854 87.9691 83.9769 84.5132 83.0016 81.2315C82.0232 77.9386 79.0481 75.7264 75.5989 75.7264H69.1438V49.5227H105.481V78.0533L105.417 78.0876L85.3994 88.8858C83.6867 89.8087 82.1032 90.22 80.2648 90.22ZM80.0004 89.98H80.2648C82.0609 89.98 83.6087 89.5773 85.2843 88.6749L105.239 77.911V49.7627H69.3856V75.4864H75.5989C79.1564 75.4864 82.2243 77.7679 83.2334 81.1636C84.2302 84.5175 82.9315 88.0478 80.0004 89.98ZM65.5174 75.7506H57.5393C56.3261 75.7506 55.317 75.502 54.2668 74.9446L42.7833 68.8736C39.9671 67.3813 36.9175 67.2174 33.9641 68.399L32.0573 69.1613V49.523H65.5174V75.7506ZM37.8942 67.3784C39.5972 67.3784 41.2844 67.8072 42.8972 68.6617L54.3809 74.7329C55.3941 75.2709 56.3682 75.5106 57.5395 75.5106H65.2759V49.7629H32.2994V68.8062L33.8739 68.1765C35.2044 67.6438 36.5544 67.3784 37.8942 67.3784ZM107.294 45.9233H69.1438V26.8643L69.2913 26.8976C73.0391 27.743 75.4381 30.9599 78.2157 34.6846L78.3815 34.9065C80.1495 37.2701 81.9772 39.7141 84.28 41.51C84.5999 41.7639 84.9811 41.8922 85.4141 41.8922C85.9847 41.8922 86.4921 41.6525 86.8427 41.2172C87.1383 40.8406 87.2744 40.3644 87.222 39.8898C87.1969 39.6565 87.1243 39.4308 87.0086 39.2262C86.8929 39.0216 86.7365 38.8426 86.549 38.6998C84.6468 37.1847 83.07 35.1314 81.2065 32.6048L81.1262 32.4971C79.6786 30.5572 78.1816 28.5512 76.3863 26.8866L76.1624 26.679H107.318C108.771 26.679 109.953 27.8632 109.953 29.3186V43.2843C109.953 44.7394 108.76 45.9233 107.294 45.9233ZM69.3856 45.6834H107.294C108.627 45.6834 109.711 44.6069 109.711 43.2838V29.3181C109.711 27.9949 108.638 26.9185 107.318 26.9185H76.7724C78.4862 28.555 79.9264 30.485 81.3209 32.3541L81.4014 32.462C83.2547 34.9749 84.8213 37.0155 86.6986 38.511C86.9115 38.6733 87.089 38.8768 87.2203 39.1092C87.3516 39.3417 87.4339 39.5982 87.4623 39.8631C87.5223 40.3985 87.3697 40.9322 87.033 41.3655C86.6343 41.8603 86.0599 42.132 85.4144 42.132C84.925 42.132 84.4928 41.9858 84.1299 41.6976C81.8025 39.8826 79.9646 37.4254 78.1874 35.0491L78.0213 34.8269C75.3092 31.1903 72.9622 28.0429 69.3853 27.1661V45.6834H69.3856ZM65.5416 45.9233H30.2444C28.7781 45.9233 27.585 44.7391 27.585 43.2838V29.3181C27.585 27.8627 28.7781 26.6785 30.2444 26.6785H58.5225L58.2986 26.8861C56.5403 28.5164 55.0704 30.4788 53.6493 32.3764L53.2918 32.8541C51.6185 35.0932 50.0381 37.208 48.1372 38.6984C47.7617 38.9858 47.5236 39.4043 47.4655 39.878C47.4365 40.1149 47.4549 40.3552 47.5196 40.5851C47.5843 40.8149 47.6941 41.0298 47.8427 41.2175C48.1932 41.6525 48.7005 41.892 49.271 41.892C49.6578 41.892 50.0725 41.7519 50.4083 41.5071C52.748 39.6587 54.6026 37.1799 56.396 34.7827L56.4702 34.6836C59.2478 30.9592 61.6468 27.7428 65.3941 26.8974L65.5416 26.864V45.9233ZM30.2444 26.9187C28.9113 26.9187 27.8268 27.9952 27.8268 29.3183V43.284C27.8268 44.6071 28.9113 45.6836 30.2444 45.6836H65.2998V27.1666C61.7234 28.0434 59.3766 31.1905 56.6646 34.8266L56.5903 34.9262C54.7875 37.3359 52.9235 39.8274 50.5553 41.6984C50.1694 41.9793 49.7146 42.1324 49.271 42.1324C48.6258 42.1324 48.0511 41.8608 47.6536 41.3674C47.4852 41.1548 47.3607 40.9113 47.2872 40.6508C47.2137 40.3903 47.1928 40.118 47.2255 39.8495C47.2915 39.3117 47.5625 38.8359 47.9885 38.5098C49.8628 37.0398 51.4341 34.9375 53.0976 32.7116L53.4552 32.2336C54.8233 30.407 56.2362 28.5207 57.913 26.9187H30.2444ZM64.8238 22.9697L64.64 22.9591C57.9906 22.5738 52.1521 21.5508 47.7559 20.0009C42.3968 18.1151 39.095 14.657 38.9239 10.7507C38.8006 8.01036 40.2804 5.54453 42.6941 4.46902C43.5819 4.06397 44.575 3.85857 45.6448 3.85857C48.7067 3.85857 52.2655 5.65155 55.6651 8.90733C59.5601 12.6073 62.8754 17.6704 64.7609 22.7984L64.8238 22.9697ZM45.6446 4.09853C44.6099 4.09853 43.6508 4.29673 42.7937 4.68739C40.4704 5.72282 39.0464 8.09842 39.1651 10.7399C39.3317 14.5452 42.5735 17.9226 47.8366 19.7746C52.1712 21.3027 57.9193 22.3165 64.4698 22.7086C62.5863 17.6728 59.3235 12.7145 55.4973 9.08034C52.1427 5.86751 48.6436 4.09853 45.6446 4.09853ZM69.8382 22.9697L69.9003 22.7986C71.7389 17.7321 75.0455 12.6603 78.9719 8.88333L78.9726 8.88261C82.4545 5.59588 85.9279 3.85833 89.0166 3.85833C90.0625 3.85833 91.0552 4.06373 91.9671 4.46854C94.3806 5.54405 95.8606 8.00988 95.7376 10.7505C95.5652 14.681 92.2632 18.1393 86.9048 20.0007C82.4804 21.552 76.6421 22.5752 70.0212 22.9589L69.8382 22.9697ZM79.1397 9.0561C75.2836 12.7656 72.029 17.7331 70.1904 22.7089C76.7131 22.3182 82.4617 21.3044 86.8246 19.7746C92.0867 17.9466 95.3283 14.5692 95.4958 10.7399C95.6148 8.09842 94.191 5.72282 91.8682 4.68763C90.9877 4.29673 90.0284 4.09829 89.0166 4.09829C85.9912 4.09853 82.5756 5.81304 79.1397 9.0561Z" fill="#d24500"/>
</svg>
