<svg width="111" height="111" viewBox="0 0 111 111" fill="none" xmlns="http://www.w3.org/2000/svg">
<g clip-path="url(#clip0_6_191)">
<path d="M94.7446 16.2554C84.2618 5.77308 70.3246 0 55.5 0C40.6754 0 26.7382 5.77308 16.2554 16.2554C5.77308 26.7382 0 40.6754 0 55.5C0 70.3246 5.77308 84.2618 16.2554 94.7446C26.7382 105.227 40.6754 111 55.5 111C70.3246 111 84.2618 105.227 94.7446 94.7446C105.227 84.2618 111 70.3246 111 55.5C111 40.6754 105.227 26.7382 94.7446 16.2554ZM92.445 92.445C82.5766 102.313 69.4561 107.748 55.5 107.748C41.5439 107.748 28.4234 102.313 18.555 92.445C8.68662 82.5766 3.25195 69.4561 3.25195 55.5C3.25195 41.5439 8.68662 28.4234 18.555 18.555C28.4234 8.68662 41.5439 3.25195 55.5 3.25195C69.4561 3.25195 82.5766 8.68662 92.445 18.555C102.313 28.4234 107.748 41.5439 107.748 55.5C107.748 69.4561 102.313 82.5766 92.445 92.445Z" fill="#d24500"/>
<path d="M55.5 17.3787C55.0688 17.3787 54.6552 17.55 54.3503 17.8549C54.0453 18.1598 53.874 18.5734 53.874 19.0046V25.956C53.874 26.3872 54.0453 26.8008 54.3502 27.1058C54.6551 27.4107 55.0687 27.5821 55.4999 27.5821C55.9311 27.5821 56.3447 27.4108 56.6497 27.1059C56.9546 26.801 57.126 26.3875 57.126 25.9562V19.0046C57.126 18.5734 56.9547 18.1598 56.6497 17.8549C56.3448 17.55 55.9312 17.3787 55.5 17.3787ZM55.5 83.4178C55.0688 83.4178 54.6552 83.5891 54.3503 83.894C54.0453 84.199 53.874 84.6125 53.874 85.0438V91.9952C53.874 92.4264 54.0453 92.84 54.3503 93.1449C54.6552 93.4498 55.0688 93.6211 55.5 93.6211C55.9312 93.6211 56.3448 93.4498 56.6497 93.1449C56.9547 92.84 57.126 92.4264 57.126 91.9952V85.0438C57.126 84.6125 56.9547 84.199 56.6497 83.894C56.3448 83.5891 55.9312 83.4178 55.5 83.4178ZM91.9954 53.874H85.044C84.6128 53.874 84.1992 54.0453 83.8943 54.3503C83.5893 54.6552 83.418 55.0688 83.418 55.5C83.418 55.9312 83.5893 56.3448 83.8943 56.6497C84.1992 56.9547 84.6128 57.126 85.044 57.126H91.9954C92.4266 57.126 92.8402 56.9547 93.1451 56.6497C93.45 56.3448 93.6213 55.9312 93.6213 55.5C93.6213 55.0688 93.45 54.6552 93.1451 54.3503C92.8402 54.0453 92.4266 53.874 91.9954 53.874ZM25.956 53.874H19.0046C18.5734 53.874 18.1598 54.0453 17.8549 54.3503C17.55 54.6552 17.3787 55.0688 17.3787 55.5C17.3787 55.9312 17.55 56.3448 17.8549 56.6497C18.1598 56.9547 18.5734 57.126 19.0046 57.126H25.956C26.3872 57.126 26.8008 56.9547 27.1058 56.6497C27.4107 56.3448 27.582 55.9312 27.582 55.5C27.582 55.0688 27.4107 54.6552 27.1058 54.3503C26.8008 54.0453 26.3872 53.874 25.956 53.874ZM27.7173 37.5822L24.7073 35.8443C24.334 35.6321 23.892 35.5762 23.4776 35.6887C23.0632 35.8011 22.7102 36.073 22.4955 36.4448C22.2808 36.8167 22.2219 37.2583 22.3316 37.6734C22.4414 38.0885 22.7109 38.4434 23.0813 38.6605L26.0913 40.3984C26.2762 40.5052 26.4803 40.5745 26.692 40.6024C26.9037 40.6302 27.1189 40.6162 27.3251 40.5609C27.5314 40.5056 27.7247 40.4103 27.8941 40.2803C28.0635 40.1503 28.2056 39.9882 28.3124 39.8033C28.528 39.4298 28.5864 38.986 28.4748 38.5695C28.3632 38.1529 28.0907 37.7978 27.7173 37.5822ZM87.9187 72.3395L84.9087 70.6016C84.5355 70.3894 84.0934 70.3335 83.679 70.446C83.2647 70.5585 82.9116 70.8303 82.6969 71.2021C82.4823 71.574 82.4234 72.0156 82.5331 72.4307C82.6428 72.8458 82.9123 73.2007 83.2827 73.4178L86.2927 75.1557C86.4777 75.2625 86.6818 75.3318 86.8935 75.3597C87.1052 75.3876 87.3203 75.3735 87.5266 75.3182C87.7328 75.2629 87.9262 75.1676 88.0956 75.0376C88.265 74.9076 88.4071 74.7455 88.5138 74.5606C88.7294 74.1871 88.7879 73.7433 88.6763 73.3268C88.5647 72.9102 88.2922 72.5551 87.9187 72.3395ZM74.5606 22.4862C74.1871 22.2706 73.7433 22.2121 73.3268 22.3237C72.9102 22.4353 72.5551 22.7078 72.3395 23.0813L70.6016 26.0913C70.3894 26.4646 70.3335 26.9066 70.446 27.321C70.5585 27.7353 70.8303 28.0884 71.2021 28.3031C71.574 28.5178 72.0156 28.5767 72.4307 28.4669C72.8458 28.3572 73.2007 28.0877 73.4178 27.7173L75.1557 24.7073C75.3713 24.3338 75.4297 23.89 75.3181 23.4735C75.2065 23.0569 74.934 22.7018 74.5606 22.4862ZM39.8033 82.6876C39.6184 82.5808 39.4142 82.5115 39.2025 82.4836C38.9908 82.4558 38.7757 82.4699 38.5694 82.5251C38.3632 82.5804 38.1699 82.6757 38.0005 82.8057C37.8311 82.9357 37.6889 83.0978 37.5822 83.2827L35.8443 86.2928C35.6321 86.666 35.5762 87.108 35.6886 87.5224C35.8011 87.9368 36.073 88.2898 36.4448 88.5045C36.8167 88.7192 37.2583 88.7781 37.6734 88.6684C38.0885 88.5586 38.4434 88.2891 38.6605 87.9187L40.3984 84.9087C40.614 84.5353 40.6724 84.0915 40.5608 83.6749C40.4492 83.2584 40.1767 82.9033 39.8033 82.6876ZM88.514 36.4392C88.2984 36.0658 87.9433 35.7933 87.5268 35.6817C87.1102 35.5701 86.6664 35.6285 86.293 35.8441L83.283 37.582C82.9125 37.7991 82.6431 38.154 82.5333 38.5691C82.4236 38.9842 82.4825 39.4258 82.6972 39.7977C82.9118 40.1695 83.2649 40.4413 83.6793 40.5538C84.0936 40.6663 84.5357 40.6104 84.9089 40.3982L87.9189 38.6603C88.2924 38.4447 88.5649 38.0895 88.6765 37.673C88.7881 37.2565 88.7297 36.8127 88.514 36.4392ZM28.3124 71.1968C28.2057 71.0118 28.0635 70.8497 27.8941 70.7197C27.7247 70.5897 27.5314 70.4943 27.3251 70.439C27.1189 70.3838 26.9037 70.3697 26.692 70.3976C26.4803 70.4255 26.2762 70.4948 26.0913 70.6016L23.0813 72.3395C22.7109 72.5566 22.4414 72.9115 22.3316 73.3266C22.2219 73.7417 22.2808 74.1834 22.4955 74.5552C22.7102 74.927 23.0632 75.1989 23.4776 75.3114C23.892 75.4239 24.334 75.3679 24.7073 75.1557L27.7173 73.4178C28.0907 73.2022 28.3632 72.8471 28.4748 72.4305C28.5864 72.014 28.528 71.5702 28.3124 71.1968ZM40.3984 26.0913L38.6605 23.0813C38.4434 22.7109 38.0885 22.4414 37.6734 22.3316C37.2583 22.2219 36.8167 22.2808 36.4448 22.4955C36.073 22.7102 35.8011 23.0632 35.6886 23.4776C35.5762 23.892 35.6321 24.334 35.8443 24.7073L37.5822 27.7173C37.6889 27.9022 37.831 28.0644 38.0004 28.1944C38.1698 28.3244 38.3631 28.4198 38.5694 28.4751C38.7757 28.5303 38.9908 28.5444 39.2025 28.5165C39.4142 28.4886 39.6184 28.4192 39.8033 28.3124C40.1767 28.0968 40.4492 27.7416 40.5608 27.3251C40.6724 26.9086 40.614 26.4647 40.3984 26.0913ZM75.1557 86.2928L73.4178 83.2827C73.2007 82.9123 72.8458 82.6429 72.4307 82.5331C72.0156 82.4234 71.574 82.4823 71.2021 82.6969C70.8303 82.9116 70.5585 83.2647 70.446 83.679C70.3335 84.0934 70.3894 84.5355 70.6016 84.9087L72.3395 87.9187C72.4462 88.1037 72.5883 88.2658 72.7577 88.3959C72.9271 88.5259 73.1204 88.6213 73.3267 88.6765C73.533 88.7318 73.7481 88.7459 73.9598 88.718C74.1715 88.69 74.3757 88.6207 74.5606 88.5138C74.934 88.2982 75.2065 87.9431 75.3181 87.5265C75.4297 87.11 75.3713 86.6662 75.1557 86.2928ZM79.6993 51.777C79.667 51.5659 79.5933 51.3632 79.4826 51.1806C79.3719 50.998 79.2262 50.839 79.054 50.7127C78.8818 50.5864 78.6864 50.4953 78.4789 50.4446C78.2715 50.3939 78.0561 50.3846 77.845 50.4172L60.0302 53.158C59.1801 51.5203 57.4692 50.3983 55.5002 50.3983C54.6857 50.3983 53.9157 50.5913 53.2319 50.9323L35.7956 33.496C35.4906 33.1911 35.0771 33.0198 34.6459 33.0198C34.2147 33.0198 33.8011 33.1911 33.4962 33.496C33.1913 33.8009 33.02 34.2145 33.02 34.6457C33.02 35.0769 33.1913 35.4904 33.4962 35.7953L50.9325 53.2317C50.5808 53.936 50.3979 54.7127 50.3986 55.5C50.3986 58.3132 52.6873 60.6017 55.5002 60.6017C58.0159 60.6017 60.1108 58.7708 60.5258 56.372L78.3398 53.6314C78.7659 53.5657 79.1486 53.3335 79.4035 52.9857C79.6585 52.6379 79.7649 52.2031 79.6993 51.777ZM55.5 57.3497C54.48 57.3497 53.6503 56.5198 53.6503 55.5C53.6503 54.4802 54.4802 53.6503 55.5 53.6503C56.5198 53.6503 57.3497 54.4802 57.3497 55.5C57.3497 56.5198 56.52 57.3497 55.5 57.3497Z" fill="#d24500"/>
<path d="M84.7125 21.1904C76.1144 13.8548 65.1397 10.0446 53.8088 10.4648C42.4146 10.886 31.6964 15.5613 23.6289 23.6287C15.5615 31.6961 10.8863 42.4144 10.465 53.8086C10.0459 65.139 13.8551 76.1144 21.1906 84.7123C21.3431 84.8915 21.5329 85.0354 21.7466 85.1339C21.9603 85.2325 22.1929 85.2833 22.4283 85.2829C22.7388 85.2827 23.0428 85.1936 23.3043 85.0261C23.5658 84.8586 23.7739 84.6198 23.9039 84.3377C24.034 84.0557 24.0805 83.7424 24.0381 83.4347C23.9956 83.1271 23.866 82.8381 23.6645 82.6018C16.8594 74.6254 13.3256 64.4427 13.7146 53.9287C14.1055 43.3574 18.4431 33.4134 25.9283 25.928C33.4134 18.4427 43.3577 14.1052 53.9289 13.7144C64.4435 13.3256 74.6256 16.8592 82.602 23.6643C82.9306 23.9395 83.3547 24.0738 83.7818 24.0379C84.209 24.0021 84.6047 23.7991 84.8829 23.473C85.1611 23.1469 85.2993 22.7241 85.2674 22.2966C85.2355 21.8691 85.0361 21.4716 84.7125 21.1904ZM89.8096 26.2875C89.5284 25.9639 89.1309 25.7645 88.7034 25.7326C88.2759 25.7007 87.8532 25.8389 87.5271 26.1171C87.2009 26.3953 86.9979 26.791 86.9621 27.2182C86.9262 27.6453 87.0605 28.0694 87.3358 28.398C94.1408 36.3744 97.6744 46.5574 97.2857 57.0711C96.8948 67.6424 92.5571 77.5864 85.072 85.0718C77.5868 92.5571 67.6426 96.8946 57.0714 97.2854C46.5584 97.6746 36.3746 94.1408 28.3982 87.3355C28.0696 87.0603 27.6456 86.926 27.2184 86.9619C26.7913 86.9977 26.3955 87.2007 26.1173 87.5268C25.8391 87.8529 25.7009 88.2757 25.7328 88.7032C25.7647 89.1307 25.9642 89.5282 26.2877 89.8094C34.4581 96.7801 44.7746 100.566 55.5033 100.566C56.0648 100.566 56.628 100.556 57.1917 100.535C68.5859 100.114 79.3041 95.4385 87.3715 87.3711C95.439 79.3037 100.114 68.5854 100.535 57.1912C100.954 45.861 97.1452 34.8857 89.8096 26.2875Z" fill="#d24500"/>
</g>
<defs>
<clipPath id="clip0_6_191">
<rect width="111" height="111" fill="white"/>
</clipPath>
</defs>
</svg>
