<svg width="512" height="512" viewBox="0 0 512 512" fill="none" xmlns="http://www.w3.org/2000/svg">
<g clip-path="url(#clip0_26_6)">
<path d="M255.779 0C114.394 0.122386 -0.122288 114.836 9.80051e-05 256.221C0.122484 397.607 114.836 512.122 256.222 512C397.52 511.878 512 397.299 512 256.001C511.756 114.63 397.15 0.121348 255.779 0ZM360.879 230.555L360.658 230.776L261.09 410.883C260.197 412.568 258.858 413.976 257.219 414.951C255.58 415.927 253.704 416.433 251.797 416.414H248.699C246.427 415.686 244.458 414.23 243.098 412.269C241.738 410.309 241.063 407.955 241.176 405.572L246.266 298.26H159.974C158.156 298.24 156.373 297.763 154.787 296.874C153.202 295.985 151.866 294.711 150.901 293.17C149.947 291.564 149.444 289.729 149.444 287.86C149.444 285.991 149.947 284.157 150.901 282.55L250.469 101.115C251.632 98.9616 253.49 97.2646 255.739 96.3004C257.989 95.3362 260.499 95.1617 262.86 95.8051C265.113 96.5642 267.06 98.0285 268.415 99.9812C269.77 101.934 270.46 104.271 270.383 106.647L265.515 213.96H351.807C353.682 213.957 355.521 214.472 357.122 215.448C358.723 216.424 360.023 217.823 360.879 219.491C362.001 221.118 362.603 223.047 362.603 225.023C362.603 226.999 362.001 228.928 360.879 230.555Z" fill="#D24500"/>
</g>
<defs>
<clipPath id="clip0_26_6">
<rect width="512" height="512" fill="white"/>
</clipPath>
</defs>
</svg>
