<svg width="97" height="110" viewBox="0 0 97 110" fill="none" xmlns="http://www.w3.org/2000/svg">
<g clip-path="url(#clip0_2_2)">
<path d="M66.2731 0.440516C62.2008 1.88439 57.4497 5.98802 53.4906 11.3835C51.1903 14.5372 47.7967 20.8827 46.4771 24.6063L45.6098 27.0001L42.7442 24.1884C39.1996 20.6927 33.9209 17.159 29.8107 15.5252C27.096 14.4233 26.2287 14.2713 23.2876 14.2333C17.8956 14.2333 15.0676 15.8291 12.8429 20.1227C11.5232 22.7065 11.5986 26.4302 13.0315 29.242C14.3512 31.7498 17.1415 34.7515 20.3842 37.1073C21.704 38.0192 22.6843 39.007 22.6089 39.2349C22.4581 39.7291 14.8791 40.7929 7.75256 41.3249C-0.505179 41.8949 -0.919951 42.9587 0.852256 57.9293C1.90804 66.8965 4.35898 89.8845 5.22621 99.2696C5.52787 102.233 6.39513 103.829 8.31816 104.969C9.37393 105.577 10.7314 105.767 17.1792 106.033C21.3646 106.223 28.265 106.565 32.5255 106.755C36.7865 106.983 40.9343 107.211 41.7637 107.249L43.2719 107.325L43.4605 72.596C43.6113 42.2369 43.7244 37.8292 44.2147 37.6012C45.0066 37.1831 49.9083 36.4613 51.7938 36.4613H53.3019L53.0381 72.2919L52.7739 108.123L60.4661 108.617C64.6894 108.845 70.2699 109.225 72.8716 109.415C75.4733 109.605 79.8095 109.795 82.4868 109.795C87.9541 109.795 89.3494 109.339 90.1034 107.287C90.4806 106.185 92.2527 89.5805 92.8938 80.7272C93.0824 78.2194 93.497 73.584 93.7987 70.4681C94.1381 67.3146 94.4774 63.8188 94.5529 62.6789C94.6661 61.539 95.1938 56.7135 95.6841 51.9639C96.2118 47.2524 96.6643 41.4389 96.6643 39.0831L96.7398 34.7894L95.3448 33.5355C93.7987 32.0918 92.8561 32.0157 87.2378 32.6617C71.2879 34.5235 68.3468 34.7894 68.3468 34.2955C68.3468 34.1436 70.006 32.3198 72.0422 30.1919C79.1687 22.7065 82.0343 17.387 82.0719 11.5735C82.1098 8.98974 81.9588 8.19181 81.0162 6.13999C79.885 3.67024 77.962 1.65641 75.6996 0.592501C74.229 -0.129431 68.083 -0.205424 66.2731 0.440516ZM72.4191 11.3455C72.683 13.8153 69.7419 18.6409 64.9908 23.6564C62.1629 26.6581 55.8661 31.9017 55.1494 31.9017C54.3955 31.9017 54.9611 28.938 56.3561 25.7462C58.7693 20.2367 60.9941 16.931 64.8401 13.0554C68.9124 8.91376 72.1174 8.19181 72.4191 11.3455ZM26.0402 24.5303C29.5468 25.9362 34.2602 29.2039 37.0882 32.2058C40.1046 35.3593 39.6521 35.5873 34.3355 33.4215C29.6223 31.5218 25.7763 29.2799 23.4008 27.0381C21.5154 25.2523 21.2892 24.7583 22.0433 23.9984C22.6843 23.3524 23.2122 23.4284 26.0402 24.5303Z" fill="#d24500"/>
</g>
<defs>
<clipPath id="clip0_2_2">
<rect width="97" height="110" fill="white"/>
</clipPath>
</defs>
</svg>
