<svg width="195" height="254" viewBox="0 0 195 254" fill="none" xmlns="http://www.w3.org/2000/svg">
<path d="M97.5946 0C62.3631 0 33.395 28.5042 33.395 64.0369C33.395 99.5696 61.9717 128.074 97.5946 128.074C133.218 128.074 161.794 99.5696 161.794 64.0369C161.794 28.5042 133.218 0 97.5946 0ZM97.5946 95.8601C79.7831 95.8601 65.4948 81.608 65.4948 63.8417C65.4948 46.0753 79.7831 32.0184 97.5946 32.0184C115.406 32.0184 129.694 46.2706 129.694 64.0369C129.694 81.608 115.406 95.8601 97.5946 95.8601Z" fill="#ffffff"/>
<path d="M192.133 137.64C186.456 127.098 173.147 123.388 162.577 129.44C118.929 153.845 76.4557 153.845 32.8078 129.44C22.2383 123.388 8.92866 127.293 2.86101 138.031C-3.20664 148.378 0.707975 161.849 11.4732 167.511C25.7615 175.711 41.0285 181.763 56.8827 186.254L25.9572 217.101C17.3451 225.691 17.3451 239.357 25.9572 247.557C34.1779 256.148 47.8791 256.148 56.4912 247.557L97.5946 206.558L138.698 247.557C146.919 256.148 160.62 256.148 169.232 247.557C177.844 238.967 177.844 225.301 169.232 217.101L138.307 186.254C154.161 182.154 169.428 175.711 183.716 167.511C194.286 161.459 198.2 148.378 192.133 137.64C192.133 138.031 192.133 138.031 192.133 137.64Z" fill="#ffffff"/>
</svg>
