<svg width="95" height="96" viewBox="0 0 95 96" fill="none" xmlns="http://www.w3.org/2000/svg">
<path d="M47.5 50.717C37.1934 50.717 29.1274 42.566 29.1274 32.1509C29.1274 21.7358 37.1934 13.5849 47.5 13.5849C57.8066 13.5849 65.8726 21.7358 65.8726 32.1509C65.8726 42.566 57.8066 50.717 47.5 50.717ZM47.5 19.0189C40.3302 19.0189 34.5047 24.9057 34.5047 32.1509C34.5047 39.3962 40.3302 45.283 47.5 45.283C54.6698 45.283 60.4953 39.3962 60.4953 32.1509C60.4953 24.9057 54.6698 19.0189 47.5 19.0189ZM78.8679 96H16.1321C13.8915 96 11.2028 95.5472 8.96227 94.1887C8.06604 93.7359 7.16981 92.3774 7.61793 91.0189C11.6509 72 28.2311 58.4151 47.5 58.4151C66.7689 58.4151 83.3491 72 87.3821 91.0189C87.8302 92.3774 86.934 93.283 86.0377 94.1887C83.7972 95.5472 81.1085 96 78.8679 96ZM13.4434 90.1132C14.3396 90.1132 15.2359 90.566 16.1321 90.566H78.8679C79.7642 90.566 80.6604 90.566 81.5566 90.1132C77.0755 75.1698 63.184 64.3019 47.5 64.3019C31.816 64.3019 17.9245 75.1698 13.4434 90.1132Z" fill="black"/>
<path d="M78.8679 96H16.1321C7.16981 96 0 88.7547 0 79.6981V16.3019C0 7.24528 7.16981 0 16.1321 0H78.8679C87.8302 0 95 7.24528 95 16.3019V79.6981C95 88.7547 87.8302 96 78.8679 96ZM16.1321 5.43396C10.3066 5.43396 5.37736 10.4151 5.37736 16.3019V79.6981C5.37736 85.5849 10.3066 90.566 16.1321 90.566H78.8679C84.6934 90.566 89.6226 85.5849 89.6226 79.6981V16.3019C89.6226 10.4151 84.6934 5.43396 78.8679 5.43396H16.1321Z" fill="black"/>
</svg>
