<svg width="81" height="81" viewBox="0 0 81 81" fill="none" xmlns="http://www.w3.org/2000/svg">
<circle cx="40.5" cy="40.5" r="40.5" fill="#9A9A9A"/>
<path d="M17.4471 29.8301C17.0677 30.6766 16.5692 31.2261 15.9519 31.4787C15.3346 31.7312 14.6356 31.7161 13.855 31.4334L14.316 30.405C14.8378 30.5717 15.2826 30.5821 15.6505 30.4362C16.0114 30.2871 16.3095 29.9502 16.5447 29.4255C16.7799 28.9008 16.8385 28.4608 16.7206 28.1055C16.6026 27.7501 16.3477 27.4846 15.956 27.309C15.5922 27.1459 15.2419 27.1401 14.9051 27.2916C14.5614 27.44 14.2719 27.7765 14.0367 28.3012L13.6368 29.1931L12.7343 28.7886L13.1342 27.8966C13.3443 27.4279 13.3981 27.0361 13.2956 26.7213C13.1892 26.3963 12.9646 26.157 12.6218 26.0033C12.2651 25.8434 11.93 25.8318 11.6166 25.9686C11.3064 26.0984 11.0462 26.3976 10.8361 26.8663C10.6259 27.3351 10.583 27.7401 10.7072 28.0815C10.8276 28.4127 11.1096 28.7113 11.5532 28.9774L11.0922 30.0058C10.3967 29.6268 9.94368 29.1381 9.73309 28.5395C9.51551 27.9379 9.58234 27.2453 9.9336 26.4618C10.1092 26.07 10.3169 25.7472 10.5567 25.4935C10.7895 25.2365 11.0424 25.0474 11.3152 24.9261C11.581 24.8016 11.8599 24.7418 12.1518 24.7466C12.4437 24.7514 12.7366 24.8197 13.0304 24.9514C13.779 25.287 14.173 25.8417 14.2126 26.6156L14.2335 26.625C14.5544 26.3404 14.9076 26.1711 15.2931 26.117C15.6786 26.063 16.0707 26.1254 16.4695 26.3041C16.7773 26.4421 17.039 26.6267 17.2547 26.8578C17.4634 27.0858 17.6135 27.3505 17.7052 27.6521C17.8 27.9466 17.8277 28.2783 17.7884 28.6472C17.7491 29.016 17.6353 29.4103 17.4471 29.8301Z" fill="white"/>
<path d="M20.1202 25.224C19.7235 25.7411 19.3032 26.0371 18.8593 26.112C18.42 26.1808 17.9904 26.0543 17.5707 25.7323C17.1145 25.3823 16.8722 24.9549 16.844 24.4501C16.8143 23.9346 17.0654 23.3301 17.5974 22.6366L18.4023 21.5873L18.156 21.3983C17.8579 21.1696 17.5782 21.0807 17.317 21.1316C17.0544 21.1717 16.7854 21.3711 16.5101 21.73C16.2581 22.0585 16.1316 22.3431 16.1305 22.5839C16.1233 22.8199 16.1986 23.0178 16.3564 23.1775L15.7124 24.0169C15.5332 23.8601 15.3918 23.6792 15.2882 23.4741C15.1893 23.2629 15.1373 23.0347 15.1323 22.7893C15.1273 22.5439 15.1753 22.286 15.2764 22.0157C15.3761 21.7346 15.5379 21.4481 15.7618 21.1561C16.2425 20.5295 16.7347 20.1776 17.2385 20.1003C17.747 20.0168 18.278 20.1874 18.8315 20.6121L21.797 22.8869L21.3071 23.5256L20.5457 23.101L20.5317 23.1193C20.752 23.8776 20.6148 24.5792 20.1202 25.224ZM19.4419 24.5588C19.5866 24.3702 19.6915 24.1705 19.7567 23.9596C19.8204 23.7379 19.8442 23.5243 19.828 23.3186C19.8104 23.1022 19.7543 22.9046 19.6597 22.7257C19.5636 22.536 19.4304 22.3759 19.26 22.2452L19.0958 22.1192L18.3259 23.1229C17.9992 23.5487 17.8436 23.9028 17.8589 24.1851C17.8682 24.4628 17.9884 24.6903 18.2195 24.8676C18.402 25.0076 18.6 25.058 18.8136 25.0189C19.0319 24.9738 19.2413 24.8204 19.4419 24.5588Z" fill="white"/>
<path d="M21.5774 21.7342L22.025 21.3733C22.0146 21.165 21.9815 20.9651 21.9257 20.7738C21.871 20.5716 21.7894 20.3666 21.6809 20.1587C21.5734 19.94 21.4295 19.7065 21.2489 19.4581C21.0695 19.199 20.8474 18.9053 20.5827 18.5771L19.4999 17.2343L22.7226 14.6355L25.7401 18.3775L26.2772 17.9443L27.8076 19.8422L27.0377 20.463L26.0993 19.2992L22.9392 21.8474L23.8777 23.0112L23.1078 23.632L21.5774 21.7342ZM24.9344 19.0271L22.5089 16.0193L20.8617 17.3475L21.3526 17.9563C21.5884 18.2487 21.7942 18.5161 21.97 18.7585C22.1409 18.9949 22.2885 19.2206 22.4126 19.4357C22.532 19.6447 22.6327 19.8491 22.7149 20.0487C22.7923 20.2424 22.8559 20.4373 22.9058 20.6335L22.9202 20.6514L24.9344 19.0271Z" fill="white"/>
<path d="M29.0154 17.7546C28.4297 18.0402 27.9215 18.1175 27.4907 17.9864C27.0669 17.8519 26.739 17.5469 26.5071 17.0715C26.2551 16.5547 26.2291 16.0641 26.4291 15.5998C26.6326 15.1252 27.1272 14.6963 27.9127 14.3132L29.1014 13.7334L28.9653 13.4543C28.8006 13.1167 28.59 12.9123 28.3336 12.8412C28.0806 12.7599 27.7509 12.8183 27.3443 13.0166C26.9722 13.1981 26.732 13.3963 26.6236 13.6113C26.5118 13.8193 26.4909 14.03 26.5608 14.2433L25.6098 14.707C25.5194 14.4867 25.4736 14.2617 25.4725 14.0319C25.4782 13.7988 25.5336 13.5714 25.6386 13.3495C25.7437 13.1277 25.9018 12.9184 26.1129 12.7216C26.3275 12.5145 26.6002 12.3304 26.931 12.169C27.6407 11.8229 28.2383 11.7276 28.7236 11.8833C29.2159 12.0356 29.6149 12.4253 29.9207 13.0523L31.5591 16.4116L30.8356 16.7644L30.3438 16.0447L30.3231 16.0548C30.1818 16.8317 29.7458 17.3983 29.0154 17.7546ZM28.7054 16.8566C28.919 16.7524 29.102 16.6205 29.2545 16.4608C29.4105 16.2909 29.5271 16.1104 29.6044 15.9191C29.6853 15.7176 29.7233 15.5157 29.7184 15.3133C29.7171 15.1007 29.6694 14.898 29.5753 14.705L29.4845 14.519L28.3475 15.0735C27.8652 15.3088 27.5679 15.5561 27.4556 15.8156C27.3399 16.0682 27.346 16.3254 27.4737 16.5873C27.5745 16.794 27.7292 16.9275 27.9378 16.9879C28.1532 17.0449 28.4091 17.0011 28.7054 16.8566Z" fill="white"/>
<path d="M32.4423 11.1788L30.662 11.6436L30.4238 10.7312L34.9859 9.54006L35.2241 10.4525L33.4438 10.9173L34.6581 15.5684L33.6567 15.8298L32.4423 11.1788Z" fill="white"/>
<path d="M36.7223 9.3712L37.7554 9.3083L37.8672 11.1449L39.015 11.075C39.8033 11.027 40.3915 11.164 40.7798 11.486C41.1757 11.8076 41.3923 12.2744 41.4296 12.8866C41.4664 13.4912 41.308 13.9809 40.9545 14.3557C40.6005 14.7229 40.0332 14.9303 39.2527 14.9778L37.0717 15.1106L36.7223 9.3712ZM37.9245 12.0862L38.0475 14.1064L39.138 14.04C39.6048 14.0116 39.9287 13.9074 40.1098 13.7274C40.2908 13.5474 40.3711 13.289 40.3506 12.9523C40.3306 12.6233 40.2159 12.3806 40.0067 12.2244C39.8047 12.06 39.4741 11.9918 39.015 12.0198L37.9245 12.0862Z" fill="white"/>
<path d="M46.1283 9.70937L48.3023 10.2593C49.0307 10.4435 49.519 10.7172 49.7671 11.0805C50.0227 11.4457 50.0913 11.8624 49.9729 12.3306C49.9127 12.5685 49.7988 12.769 49.631 12.9321C49.465 13.0879 49.2546 13.2007 48.9997 13.2707L48.994 13.293C49.2538 13.4852 49.4336 13.7126 49.5332 13.975C49.6422 14.2319 49.6601 14.5053 49.5868 14.7952C49.4589 15.3006 49.1948 15.6569 48.7945 15.8641C48.4034 16.0657 47.8437 16.0743 47.1153 15.8901L44.7183 15.2838L46.1283 9.70937ZM48.9108 12.1213C48.9653 11.9058 48.9296 11.7188 48.8036 11.5604C48.6869 11.3964 48.4241 11.2628 48.0153 11.1594L46.9004 10.8774L46.548 12.271L47.6628 12.553C48.0716 12.6564 48.3654 12.6674 48.5441 12.5861C48.7322 12.4992 48.8544 12.3443 48.9108 12.1213ZM48.5529 14.4744C48.613 14.2365 48.581 14.0347 48.4569 13.8689C48.3347 13.6956 48.0729 13.5582 47.6715 13.4567L46.3336 13.1183L45.953 14.6234L47.2908 14.9618C47.6922 15.0633 47.9869 15.0706 48.1749 14.9838C48.3648 14.8894 48.4908 14.7197 48.5529 14.4744Z" fill="white"/>
<path d="M52.05 17.9456C51.3181 17.5751 50.8492 17.067 50.6433 16.4214C50.4442 15.7792 50.549 15.0546 50.9576 14.2475L51.103 13.9602C51.5082 13.1599 52.0319 12.6516 52.6741 12.4354C53.3198 12.2124 54.0052 12.2844 54.7303 12.6514C55.4621 13.022 55.9276 13.5283 56.1267 14.1705C56.3326 14.8161 56.2313 15.5425 55.8226 16.3496L55.6772 16.6369C55.272 17.4372 54.7466 17.9488 54.1009 18.1719C53.4587 18.3881 52.775 18.3127 52.05 17.9456ZM52.4759 17.1043C52.9068 17.3225 53.3129 17.3605 53.6942 17.2184C54.0858 17.0729 54.4253 16.7163 54.7128 16.1486L54.8582 15.8613C55.1422 15.3004 55.2268 14.8191 55.1123 14.4174C55.0046 14.0191 54.7352 13.7109 54.3043 13.4928C53.8734 13.2746 53.4621 13.2382 53.0705 13.3837C52.6892 13.5258 52.3549 13.8807 52.0675 14.4484L51.922 14.7357C51.6381 15.2966 51.5499 15.7762 51.6577 16.1745C51.7722 16.5762 52.045 16.8861 52.4759 17.1043Z" fill="white"/>
<path d="M58.9507 15.3157L62.5182 18.3985L58.7587 22.7492L57.9756 22.0724L61.1185 18.4353L59.1172 16.7059L55.9743 20.343L55.1911 19.6663L58.9507 15.3157Z" fill="white"/>
<path d="M64.2516 20.3576L64.7243 21.0091L64.1403 21.575L64.1538 21.5936C64.5721 21.6217 64.9226 21.7131 65.2054 21.8678C65.4926 22.0288 65.7579 22.2768 66.001 22.6119C66.2036 22.8911 66.3386 23.1815 66.4059 23.4832C66.4794 23.7803 66.4808 24.0824 66.41 24.3896C66.3454 24.6922 66.2019 24.9905 65.9795 25.2845C65.7678 25.5802 65.4727 25.8653 65.0942 26.14L64.8336 26.3291C64.4613 26.5993 64.0986 26.7914 63.7456 26.9054C63.3989 27.0149 63.0685 27.0557 62.7546 27.0278C62.4407 26.9998 62.1507 26.9071 61.8849 26.7495C61.6252 26.5875 61.3963 26.3699 61.1982 26.0969C60.9686 25.7804 60.8201 25.4714 60.7528 25.1697C60.69 24.8743 60.6982 24.5463 60.7775 24.1856L60.764 24.167L58.344 25.923L57.7361 25.0853L64.2516 20.3576ZM61.7926 25.3104C62.0672 25.6889 62.4066 25.902 62.8107 25.9498C63.221 25.9931 63.6837 25.8279 64.1987 25.4542L64.4593 25.2651C64.9619 24.9004 65.2541 24.5132 65.3357 24.1035C65.428 23.6955 65.3391 23.3053 65.0689 22.933C64.7943 22.5545 64.4518 22.3436 64.0415 22.3003C63.6374 22.2525 63.1778 22.4155 62.6628 22.7892L62.4022 22.9783C61.8995 23.343 61.6021 23.7294 61.5098 24.1374C61.4281 24.5471 61.5224 24.9381 61.7926 25.3104Z" fill="white"/>
<path d="M63.7936 30.9738C63.487 30.2129 63.469 29.5218 63.7393 28.9004C64.0126 28.2861 64.5688 27.8099 65.4079 27.4719L65.7066 27.3516C66.5386 27.0164 67.2675 26.979 67.8931 27.2394C68.5258 27.497 68.994 28.0027 69.2977 28.7565C69.6042 29.5174 69.6209 30.205 69.3476 30.8192C69.0772 31.4406 68.5225 31.9203 67.6833 32.2584L67.3847 32.3787C66.5526 32.7139 65.8203 32.7527 65.1875 32.4951C64.5619 32.2347 64.0972 31.7276 63.7936 30.9738ZM64.6683 30.6214C64.8487 31.0695 65.1292 31.3656 65.5097 31.5099C65.9001 31.6584 66.3905 31.6138 66.9807 31.376L67.2794 31.2557C67.8625 31.0208 68.2433 30.7145 68.4218 30.3367C68.6031 29.9661 68.6035 29.5568 68.423 29.1088C68.2425 28.6608 67.9571 28.3625 67.5666 28.214C67.1861 28.0697 66.7008 28.1165 66.1106 28.3543L65.8119 28.4746C65.2287 28.7095 64.8465 29.0123 64.6652 29.3829C64.4868 29.7606 64.4878 30.1734 64.6683 30.6214Z" fill="white"/>
<path d="M65.3147 36.505C65.1873 35.7412 65.3239 35.0928 65.7246 34.5595C66.1266 34.0339 66.7927 33.6935 67.7228 33.5383L68.0404 33.4853C68.4715 33.4134 68.8635 33.4102 69.2164 33.4757C69.5693 33.5412 69.8806 33.6603 70.1504 33.8329C70.4214 34.0131 70.6426 34.2443 70.8141 34.5266C70.9868 34.8165 71.1047 35.1505 71.1678 35.5286C71.2271 35.884 71.2303 36.206 71.1774 36.4947C71.1333 36.7896 71.0483 37.0486 70.9223 37.2717C70.7963 37.4949 70.6337 37.6852 70.4346 37.8428C70.2355 38.0004 70.0149 38.1227 69.7729 38.2097L69.5951 37.1434C69.8232 37.0198 70.0034 36.8421 70.1357 36.6102C70.2693 36.3858 70.3064 36.0959 70.2471 35.7405C70.1714 35.2867 69.9634 34.9484 69.623 34.7253C69.2915 34.5086 68.8233 34.4507 68.2183 34.5516L67.9007 34.6046C67.2428 34.7143 66.7847 34.9268 66.5263 35.2419C66.2693 35.5646 66.1786 35.9528 66.2543 36.4066C66.3136 36.762 66.4466 37.0235 66.6533 37.1911C66.8689 37.365 67.131 37.4689 67.4398 37.5029L67.6177 38.5692C67.3304 38.5705 67.0594 38.5302 66.8047 38.4483C66.5577 38.3652 66.3308 38.2398 66.1241 38.0722C65.9249 37.9033 65.7528 37.6872 65.6079 37.4238C65.4717 37.1667 65.374 36.8604 65.3147 36.505Z" fill="white"/>
<path d="M66.9639 44.0344C66.9914 43.8293 67.0554 43.6406 67.1558 43.4684C67.2552 43.3038 67.3787 43.1618 67.5262 43.0424C67.6803 42.9315 67.8498 42.8498 68.0348 42.7973C68.2273 42.7458 68.4262 42.7337 68.6314 42.7613C68.8365 42.7888 69.0214 42.8522 69.186 42.9516C69.3582 43.0521 69.5002 43.1756 69.612 43.3221C69.7305 43.4772 69.816 43.6472 69.8685 43.8322C69.9201 44.0247 69.9321 44.2236 69.9046 44.4287C69.8771 44.6339 69.8136 44.8188 69.7142 44.9834C69.6137 45.1555 69.4865 45.297 69.3324 45.4079C69.1848 45.5273 69.0148 45.6128 68.8223 45.6644C68.6373 45.7169 68.4422 45.7294 68.2371 45.7019C68.0319 45.6744 67.8432 45.6105 67.6711 45.51C67.5065 45.4106 67.365 45.2833 67.2465 45.1282C67.1347 44.9817 67.053 44.8122 67.0014 44.6196C66.9489 44.4347 66.9364 44.2396 66.9639 44.0344Z" fill="white"/>
<path d="M62.9469 51.4431C63.3462 50.6058 63.8574 50.0682 64.4806 49.8303C65.1037 49.5923 65.8021 49.6239 66.5759 49.925L66.0907 50.9422C65.573 50.7633 65.1285 50.7424 64.7573 50.8796C64.393 51.0201 64.0871 51.3499 63.8395 51.8689C63.592 52.3879 63.523 52.8264 63.6326 53.1844C63.7421 53.5425 63.9906 53.8139 64.3782 53.9987C64.738 54.1703 65.088 54.1844 65.4283 54.0409C65.7755 53.9007 66.0728 53.5711 66.3203 53.0521L66.7411 52.1698L67.6338 52.5955L67.213 53.4778C66.9919 53.9414 66.9289 54.3318 67.0239 54.649C67.1226 54.9764 67.3415 55.2209 67.6806 55.3826C68.0335 55.5509 68.3682 55.5704 68.6847 55.4411C68.9979 55.3186 69.2651 55.0256 69.4862 54.562C69.7073 54.0983 69.7598 53.6944 69.6437 53.3502C69.5311 53.0163 69.2563 52.711 68.819 52.4346L69.3042 51.4173C69.9905 51.8126 70.4319 52.3119 70.6283 52.9152C70.8317 53.5219 70.7485 54.2127 70.3789 54.9877C70.1941 55.3752 69.9788 55.693 69.7331 55.9411C69.4943 56.1924 69.2371 56.3755 68.9614 56.4904C68.6927 56.6086 68.4125 56.6618 68.1208 56.6501C67.8291 56.6384 67.538 56.5632 67.2473 56.4246C66.5069 56.0715 66.126 55.5076 66.1047 54.733L66.084 54.7231C65.7565 55.0001 65.3994 55.1611 65.0128 55.206C64.6261 55.2509 64.2355 55.1793 63.8411 54.9912C63.5366 54.846 63.2793 54.6553 63.0692 54.4192C62.8659 54.1863 62.7221 53.9181 62.6375 53.6145C62.5497 53.3178 62.5298 52.9855 62.5778 52.6177C62.6258 52.2499 62.7488 51.8583 62.9469 51.4431Z" fill="white"/>
<path d="M60.1487 55.9691C60.5622 55.4655 60.9921 55.1837 61.4384 55.1235C61.8797 55.0693 62.3048 55.2101 62.7136 55.5458C63.1579 55.9107 63.3859 56.3459 63.3973 56.8514C63.4099 57.3677 63.1388 57.9635 62.5841 58.6389L61.7448 59.6609L61.9847 59.858C62.275 60.0964 62.5516 60.1946 62.8144 60.1524C63.0782 60.1211 63.3537 59.9306 63.6407 59.5811C63.9035 59.2611 64.0394 58.9809 64.0485 58.7403C64.0635 58.5046 63.9948 58.3044 63.8424 58.1396L64.5139 57.3219C64.6878 57.4846 64.8232 57.6702 64.9199 57.8786C65.0117 58.0929 65.0561 58.3228 65.0529 58.5682C65.0498 58.8136 64.9932 59.0698 64.8832 59.3366C64.7743 59.6142 64.603 59.8952 64.3695 60.1796C63.8683 60.7898 63.3647 61.1252 62.8586 61.1858C62.3476 61.2523 61.8226 61.0641 61.2834 60.6213L58.3951 58.2493L58.906 57.6272L59.6528 58.0768L59.6674 58.0591C59.4725 57.2938 59.6329 56.5972 60.1487 55.9691ZM60.8044 56.6565C60.6536 56.8402 60.5421 57.0363 60.47 57.2449C60.3989 57.4643 60.368 57.6771 60.3774 57.8832C60.3877 58.1 60.4373 58.2994 60.5259 58.4814C60.6157 58.6741 60.7435 58.8386 60.9094 58.9749L61.0693 59.1062L61.8722 58.1287C62.2128 57.7139 62.3801 57.3652 62.3742 57.0826C62.3741 56.8047 62.2616 56.5734 62.0364 56.3885C61.8587 56.2425 61.6624 56.1855 61.4477 56.2175C61.2281 56.2554 61.0136 56.4017 60.8044 56.6565Z" fill="white"/>
<path d="M58.5796 59.4073L58.1218 59.7552C58.1262 59.9637 58.1536 60.1644 58.2039 60.3573C58.2527 60.5609 58.3284 60.7682 58.4309 60.9792C58.532 61.2009 58.6692 61.4384 58.8425 61.6919C59.0144 61.9561 59.2279 62.256 59.483 62.5917L60.5268 63.9651L57.2306 66.4701L54.3221 62.6428L53.7727 63.0603L52.2976 61.1192L53.085 60.5208L53.9895 61.7111L57.2216 59.2549L56.3171 58.0646L57.1045 57.4662L58.5796 59.4073ZM55.1461 62.0166L57.4841 65.093L59.1688 63.8127L58.6956 63.1901C58.4683 62.891 58.2703 62.6178 58.1016 62.3705C57.9375 62.1292 57.7966 61.8994 57.6786 61.6808C57.5654 61.4684 57.4705 61.2613 57.3941 61.0593C57.3223 60.8635 57.2643 60.6669 57.2201 60.4693L57.2062 60.451L55.1461 62.0166Z" fill="white"/>
<path d="M51.0316 63.1774C51.6246 62.9072 52.1347 62.8433 52.5618 62.9857C52.982 63.1313 53.3017 63.4448 53.521 63.9262C53.7594 64.4495 53.7725 64.9406 53.5603 65.3995C53.3443 65.8686 52.8386 66.2843 52.0433 66.6466L50.8398 67.1948L50.9685 67.4774C51.1242 67.8193 51.3293 68.0291 51.5838 68.107C51.8345 68.1949 52.1657 68.1452 52.5773 67.9577C52.9541 67.786 53.1995 67.5942 53.3135 67.3822C53.4307 67.1772 53.4572 66.9671 53.3929 66.7521L54.3557 66.3135C54.4403 66.5361 54.4802 66.7623 54.4753 66.992C54.4634 67.2248 54.402 67.4508 54.2912 67.6698C54.1803 67.8888 54.0168 68.0938 53.8006 68.285C53.5806 68.4863 53.3031 68.6633 52.9683 68.8158C52.2496 69.1432 51.6498 69.2227 51.1687 69.0543C50.6806 68.8891 50.292 68.489 50.0028 67.8541L48.4534 64.4529L49.1859 64.1192L49.6586 64.8517L49.6795 64.8421C49.8413 64.0692 50.292 63.5143 51.0316 63.1774ZM51.3178 64.0832C51.1015 64.1817 50.9151 64.3088 50.7585 64.4643C50.5981 64.6301 50.4768 64.8075 50.3944 64.9967C50.3083 65.196 50.265 65.3968 50.2645 65.5992C50.2603 65.8118 50.3026 66.0158 50.3916 66.2111L50.4774 66.3995L51.6286 65.8751C52.117 65.6526 52.4207 65.4131 52.5398 65.1567C52.6621 64.9072 52.6628 64.65 52.542 64.3848C52.4467 64.1755 52.2955 64.038 52.0886 63.9721C51.8748 63.9095 51.6178 63.9465 51.3178 64.0832Z" fill="white"/>
<path d="M47.406 69.6571L49.2 69.248L49.4096 70.1674L44.8126 71.2156L44.603 70.2962L46.3969 69.8871L45.3284 65.2004L46.3375 64.9703L47.406 69.6571Z" fill="white"/>
<path d="M43.0851 71.3327L42.0506 71.3663L41.991 69.5272L40.8416 69.5645C40.0524 69.5901 39.4683 69.4364 39.0893 69.1035C38.7026 68.7709 38.4994 68.298 38.4795 67.685C38.4599 67.0797 38.6321 66.5947 38.9961 66.23C39.3604 65.873 39.9334 65.6819 40.7149 65.6565L42.8988 65.5858L43.0851 71.3327ZM41.9605 68.5847L41.8949 66.5618L40.803 66.5972C40.3355 66.6123 40.0088 66.7073 39.8227 66.8821C39.6366 67.0569 39.549 67.3129 39.5599 67.65C39.5706 67.9795 39.6783 68.2253 39.883 68.3874C40.0803 68.5575 40.4088 68.635 40.8685 68.6201L41.9605 68.5847Z" fill="white"/>
<path d="M33.6942 70.7247L31.536 70.1156C30.813 69.9115 30.3323 69.6245 30.0942 69.2546C29.8487 68.8826 29.7915 68.4642 29.9227 67.9993C29.9894 67.7632 30.1088 67.5659 30.281 67.4074C30.4511 67.2563 30.6645 67.1492 30.9213 67.0862L30.9275 67.0641C30.6731 66.8648 30.4996 66.6327 30.4072 66.3676C30.3052 66.1078 30.2949 65.834 30.3761 65.5463C30.5177 65.0445 30.7914 64.6956 31.1973 64.4995C31.5937 64.3086 32.1534 64.3152 32.8765 64.5193L35.2561 65.1909L33.6942 70.7247ZM30.9787 68.2376C30.9183 68.4516 30.9489 68.6395 31.0706 68.8013C31.1827 68.9684 31.4417 69.1092 31.8475 69.2237L32.9543 69.5361L33.3447 68.1526L32.238 67.8402C31.8322 67.7257 31.5388 67.7066 31.3579 67.783C31.1676 67.8647 31.0412 68.0163 30.9787 68.2376ZM31.4008 65.8952C31.3342 66.1313 31.3606 66.334 31.4802 66.5031C31.5976 66.6797 31.8556 66.8242 32.254 66.9366L33.5821 67.3115L34.0038 65.8173L32.6757 65.4425C32.2773 65.33 31.9829 65.3147 31.7925 65.3964C31.6001 65.4855 31.4695 65.6517 31.4008 65.8952Z" fill="white"/>
<path d="M28.0131 62.2994C28.7304 62.6975 29.1796 63.223 29.3609 63.876C29.5354 64.5253 29.4031 65.2454 28.9641 66.0364L28.8078 66.3179C28.3725 67.1022 27.8299 67.5902 27.1799 67.7818C26.5261 67.9802 25.844 67.8822 25.1334 67.4878C24.4162 67.0897 23.9703 66.566 23.7958 65.9167C23.6146 65.2637 23.7435 64.5418 24.1825 63.7508L24.3388 63.4692C24.7741 62.6849 25.3186 62.1936 25.9723 61.9953C26.6223 61.8036 27.3026 61.905 28.0131 62.2994ZM27.5555 63.1239C27.1332 62.8895 26.7288 62.836 26.3424 62.9635C25.9456 63.094 25.5927 63.4374 25.2839 63.9938L25.1277 64.2754C24.8226 64.825 24.7196 65.3028 24.8188 65.7086C24.9113 66.1106 25.1687 66.4289 25.5911 66.6633C26.0134 66.8977 26.423 66.9496 26.8198 66.8191C27.2062 66.6917 27.5538 66.3497 27.8626 65.7933L28.0189 65.5118C28.324 64.9621 28.4303 64.4862 28.3378 64.0842C28.2386 63.6784 27.9778 63.3583 27.5555 63.1239Z" fill="white"/>
<path d="M21.0663 64.726L17.5754 61.5567L21.4404 57.2994L22.2067 57.9951L18.9755 61.5542L20.9338 63.3321L24.165 59.7731L24.9313 60.4688L21.0663 64.726Z" fill="white"/>
<path d="M15.8666 59.5051L15.4165 58.8377L16.0196 58.2922L16.0067 58.2731C15.5897 58.2307 15.2426 58.1273 14.9653 57.963C14.6837 57.7922 14.4271 57.5353 14.1956 57.192C14.0027 56.906 13.8778 56.6111 13.8209 56.3074C13.7576 56.0079 13.7666 55.7059 13.8479 55.4014C13.9228 55.1011 14.0765 54.8079 14.3088 54.5218C14.5305 54.2335 14.8353 53.9586 15.223 53.6971L15.4899 53.5171C15.8713 53.2599 16.2403 53.0803 16.597 52.9785C16.9473 52.8809 17.2789 52.8515 17.5917 52.8902C17.9045 52.9289 18.191 53.0315 18.4513 53.1981C18.7053 53.369 18.9266 53.5943 19.1152 53.8739C19.3339 54.1981 19.4716 54.5121 19.5285 54.8158C19.5812 55.1132 19.5617 55.4408 19.47 55.7985L19.4829 55.8176L21.9618 54.1457L22.5405 55.0038L15.8666 59.5051ZM18.4942 54.6396C18.2327 54.2519 17.9008 54.0272 17.4986 53.9656C17.09 53.9082 16.622 54.0575 16.0944 54.4133L15.8274 54.5933C15.3126 54.9406 15.0074 55.3175 14.9117 55.7242C14.8055 56.1288 14.881 56.5217 15.1382 56.9031C15.3997 57.2908 15.7347 57.5133 16.1433 57.5707C16.5455 57.6323 17.0104 57.4852 17.5379 57.1294L17.8049 56.9494C18.3197 56.6021 18.6303 56.2262 18.7366 55.8216C18.8322 55.415 18.7514 55.0209 18.4942 54.6396Z" fill="white"/>
<path d="M16.6627 48.922C16.95 49.6904 16.9507 50.3818 16.6647 50.9962C16.3761 51.6034 15.808 52.0654 14.9607 52.3822L14.659 52.4949C13.8188 52.8091 13.0893 52.8281 12.4704 52.552C11.8444 52.2786 11.3891 51.7613 11.1045 51.0001C10.8172 50.2317 10.8179 49.5439 11.1065 48.9367C11.3925 48.3223 11.9592 47.8567 12.8066 47.5399L13.1082 47.4272C13.9484 47.113 14.6815 47.0927 15.3075 47.3661C15.9264 47.6422 16.3781 48.1608 16.6627 48.922ZM15.7794 49.2523C15.6103 48.7998 15.3374 48.4967 14.9607 48.3429C14.5741 48.1846 14.0828 48.2169 13.4867 48.4397L13.1851 48.5525C12.5962 48.7726 12.2079 49.0692 12.0199 49.4423C11.8294 49.8082 11.8186 50.2174 11.9878 50.6698C12.1569 51.1222 12.4348 51.4276 12.8214 51.5859C13.1981 51.7397 13.6845 51.7052 14.2805 51.4824L14.5821 51.3696C15.171 51.1495 15.5607 50.8565 15.7513 50.4905C15.9392 50.1174 15.9486 49.7047 15.7794 49.2523Z" fill="white"/>
<path d="M15.2886 43.3549C15.3951 44.1218 15.2407 44.7663 14.8255 45.2884C14.4093 45.8028 13.7341 46.1248 12.8001 46.2544L12.4811 46.2987C12.0483 46.3588 11.6564 46.3512 11.3054 46.2761C10.9544 46.201 10.6464 46.0734 10.3815 45.8935C10.1155 45.7059 9.90072 45.4687 9.73707 45.1818C9.57236 44.8873 9.46366 44.5502 9.41097 44.1705C9.36144 43.8136 9.36707 43.4916 9.42785 43.2045C9.47999 42.9109 9.57209 42.6543 9.70416 42.4347C9.83624 42.2152 10.004 42.0293 10.2073 41.8773C10.4107 41.7252 10.6345 41.609 10.8788 41.5287L11.0274 42.5994C10.7959 42.7167 10.6109 42.8894 10.4723 43.1176C10.3327 43.3382 10.2876 43.627 10.3371 43.9839C10.4003 44.4396 10.599 44.7835 10.9331 45.0158C11.2586 45.2415 11.725 45.3123 12.3326 45.228L12.6515 45.1837C13.3122 45.092 13.7759 44.8922 14.0428 44.5843C14.3086 44.2687 14.4099 43.8832 14.3467 43.4275C14.2972 43.0706 14.1714 42.8055 13.9693 42.6323C13.7586 42.4526 13.4994 42.3415 13.1916 42.2991L13.043 41.2283C13.3303 41.2349 13.6001 41.2826 13.8524 41.3714C14.0971 41.4613 14.3204 41.5929 14.5225 41.7661C14.717 41.9403 14.883 42.1611 15.0208 42.4284C15.1498 42.6891 15.2391 42.9979 15.2886 43.3549Z" fill="white"/>
<path d="M13.88 35.7698C13.8449 35.9738 13.774 36.16 13.6673 36.3283C13.5618 36.4891 13.4332 36.6265 13.2813 36.7404C13.1233 36.8455 12.9508 36.9208 12.764 36.9665C12.5697 37.0109 12.3705 37.0155 12.1665 36.9805C11.9625 36.9454 11.7801 36.8751 11.6193 36.7697C11.451 36.6629 11.3136 36.5343 11.2073 36.3838C11.0947 36.2244 11.0155 36.0513 10.9698 35.8645C10.9255 35.6702 10.9208 35.471 10.9559 35.267C10.991 35.063 11.0612 34.8806 11.1667 34.7198C11.2734 34.5515 11.4058 34.4148 11.5639 34.3097C11.7157 34.1958 11.8888 34.1166 12.0831 34.0723C12.2699 34.0266 12.4653 34.0213 12.6693 34.0564C12.8733 34.0914 13.0595 34.1623 13.2278 34.2691C13.3886 34.3745 13.5253 34.5069 13.638 34.6663C13.7443 34.8169 13.8197 34.9893 13.8641 35.1836C13.9098 35.3704 13.9151 35.5658 13.88 35.7698Z" fill="white"/>
<path d="M40.4395 25C31.926 25 25 31.0977 25 38.5937C25 41.7603 26.2559 44.8286 28.5414 47.2606C28.9938 49.1218 28.4448 51.0936 27.0824 52.453C26.5128 53.0214 26.9156 54 27.7246 54C30.3126 54 32.8075 52.9884 34.6612 51.2043C36.4953 51.8574 38.4359 52.1875 40.4395 52.1875C48.9529 52.1875 56 46.0898 56 38.5937C56 31.0977 48.9529 25 40.4395 25ZM33.2949 41.3125C31.7925 41.3125 30.5703 40.0929 30.5703 38.5937C30.5703 37.0946 31.7925 35.875 33.2949 35.875C34.7973 35.875 36.0195 37.0946 36.0195 38.5937C36.0195 40.0929 34.7973 41.3125 33.2949 41.3125ZM40.5605 41.3125C39.0581 41.3125 37.8359 40.0929 37.8359 38.5937C37.8359 37.0946 39.0581 35.875 40.5605 35.875C42.063 35.875 43.2852 37.0946 43.2852 38.5937C43.2852 40.0929 42.063 41.3125 40.5605 41.3125ZM47.8262 41.3125C46.3238 41.3125 45.1016 40.0929 45.1016 38.5937C45.1016 37.0946 46.3238 35.875 47.8262 35.875C49.3286 35.875 50.5508 37.0946 50.5508 38.5937C50.5508 40.0929 49.3286 41.3125 47.8262 41.3125Z" fill="white"/>
</svg>
