<svg width="432" height="369" viewBox="0 0 432 369" fill="none" xmlns="http://www.w3.org/2000/svg">
<path d="M334.4 165.44C329.903 169.942 323.803 172.474 317.44 172.48H283.52C277.155 172.48 271.05 169.951 266.549 165.45C262.049 160.95 259.52 154.845 259.52 148.48V114.56C259.526 108.197 262.058 102.096 266.56 97.5999L331.68 32.3199L328 31.9999H40C29.3913 31.9999 19.2172 36.2142 11.7157 43.7156C4.21427 51.2171 0 61.3912 0 71.9999V280C0 290.609 4.21427 300.783 11.7157 308.284C19.2172 315.786 29.3913 320 40 320H47.84L73.12 364C73.7949 365.235 74.7898 366.266 76.0004 366.984C77.2109 367.702 78.5925 368.081 80 368.081C81.4075 368.081 82.7891 367.702 83.9996 366.984C85.2102 366.266 86.2051 365.235 86.88 364L112.16 320H328C338.609 320 348.783 315.786 356.284 308.284C363.786 300.783 368 290.609 368 280V131.84L334.4 165.44ZM72 104H200C202.122 104 204.157 104.843 205.657 106.343C207.157 107.843 208 109.878 208 112C208 114.122 207.157 116.156 205.657 117.657C204.157 119.157 202.122 120 200 120H72C69.8783 120 67.8434 119.157 66.3431 117.657C64.8429 116.156 64 114.122 64 112C64 109.878 64.8429 107.843 66.3431 106.343C67.8434 104.843 69.8783 104 72 104ZM72 168H200C202.122 168 204.157 168.843 205.657 170.343C207.157 171.843 208 173.878 208 176C208 178.122 207.157 180.156 205.657 181.657C204.157 183.157 202.122 184 200 184H72C69.8783 184 67.8434 183.157 66.3431 181.657C64.8429 180.156 64 178.122 64 176C64 173.878 64.8429 171.843 66.3431 170.343C67.8434 168.843 69.8783 168 72 168ZM296 248H72C69.8783 248 67.8434 247.157 66.3431 245.657C64.8429 244.156 64 242.122 64 240C64 237.878 64.8429 235.843 66.3431 234.343C67.8434 232.843 69.8783 232 72 232H296C298.122 232 300.157 232.843 301.657 234.343C303.157 235.843 304 237.878 304 240C304 242.122 303.157 244.156 301.657 245.657C300.157 247.157 298.122 248 296 248ZM422.56 9.43989C428.52 15.4355 431.865 23.5459 431.865 31.9999C431.865 40.4538 428.52 48.5643 422.56 54.5599L323.2 154.08C322.455 154.853 321.56 155.465 320.569 155.878C319.578 156.29 318.513 156.495 317.44 156.48H283.52C281.411 156.439 279.4 155.583 277.908 154.091C276.417 152.6 275.561 150.589 275.52 148.48V114.56C275.504 113.487 275.709 112.422 276.122 111.431C276.535 110.44 277.147 109.545 277.92 108.8L377.44 9.43989C383.436 3.47986 391.546 0.134521 400 0.134521C408.454 0.134521 416.564 3.47986 422.56 9.43989Z" fill="#fff"/>
</svg>
