<svg width="81" height="81" viewBox="0 0 81 81" fill="none" xmlns="http://www.w3.org/2000/svg">
<circle cx="40.5" cy="40.5" r="40.5" fill="#D24500"/>
<g clip-path="url(#clip0_96_9)">
<path d="M62.5398 37.1492L41.7052 16.3041C41.6083 16.2074 41.4934 16.1308 41.3668 16.0786C41.2403 16.0264 41.1048 15.9997 40.9679 16C40.8309 16.0001 40.6953 16.0272 40.5688 16.0797C40.4423 16.1322 40.3274 16.2092 40.2306 16.3062L19.4584 37.1492C19.1605 37.447 19.0731 37.8947 19.2335 38.2843C19.3125 38.4743 19.4461 38.6366 19.6174 38.7508C19.7886 38.865 19.9898 38.9258 20.1956 38.9257H31.6501V64.9588C31.6501 65.5336 32.1167 66.0001 32.6915 66.0001H49.3526C49.9274 66.0001 50.394 65.5336 50.394 64.9588V38.9256H61.8047C62.2254 38.9256 62.6044 38.6715 62.7669 38.2821C62.9293 37.8927 62.8376 37.447 62.5398 37.1492Z" fill="white"/>
</g>
<defs>
<clipPath id="clip0_96_9">
<rect width="50" height="50" fill="white" transform="translate(16 16)"/>
</clipPath>
</defs>
</svg>
