<svg width="294" height="173" viewBox="0 0 294 173" fill="none" xmlns="http://www.w3.org/2000/svg">
<path d="M243.967 98.9267C239.214 92.924 240.574 90.2534 243.967 84.8877C244.028 84.8265 283.267 30.6061 287.309 12.2182L287.334 12.206C289.343 5.50499 287.334 0.580322 277.619 0.580322H245.474C237.291 0.580322 233.518 4.80672 231.496 9.53538C231.496 9.53538 215.13 48.7122 191.976 74.1074C184.504 81.4454 181.049 83.7975 176.97 83.7975C174.961 83.7975 171.837 81.4454 171.837 74.7444V12.206C171.837 4.1697 169.546 0.580322 162.771 0.580322H112.226C107.093 0.580322 104.043 4.32895 104.043 7.82032C104.043 15.4401 115.62 17.1919 116.82 38.6301V85.145C116.82 95.3374 114.97 97.2117 110.866 97.2117C99.939 97.2117 73.4168 57.8756 57.6995 12.8552C54.5266 4.12069 51.4273 0.592572 43.1827 0.592572H11.0254C1.84981 0.592572 0 4.81897 0 9.54763C0 17.9024 10.9274 59.4436 50.8148 114.326C77.3982 151.787 114.835 172.086 148.892 172.086C169.362 172.086 171.861 167.578 171.861 159.824C171.861 124.028 170.011 120.647 180.265 120.647C185.018 120.647 193.201 122.999 212.312 141.068C234.155 162.494 237.744 172.086 249.97 172.086H282.115C291.278 172.086 295.921 167.578 293.251 158.684C287.138 139.978 245.829 101.499 243.967 98.9267Z" fill="#ffffff"/>
</svg>
