<svg width="200" height="200" viewBox="0 0 200 200" fill="none" xmlns="http://www.w3.org/2000/svg">
<g clip-path="url(#clip0_17_27)">
<path d="M100.025 0H99.975C44.8375 0 0 44.85 0 100C0 121.875 7.05 142.15 19.0375 158.613L6.575 195.763L45.0125 183.475C60.825 193.95 79.6875 200 100.025 200C155.162 200 200 155.137 200 100C200 44.8625 155.162 0 100.025 0ZM158.212 141.212C155.8 148.025 146.225 153.675 138.587 155.325C133.362 156.437 126.537 157.325 103.562 147.8C74.175 135.625 55.25 105.762 53.775 103.825C52.3625 101.887 41.9 88.0125 41.9 73.6625C41.9 59.3125 49.1875 52.325 52.125 49.325C54.5375 46.8625 58.525 45.7375 62.35 45.7375C63.5875 45.7375 64.7 45.8 65.7 45.85C68.6375 45.975 70.1125 46.15 72.05 50.7875C74.4625 56.6 80.3375 70.95 81.0375 72.425C81.75 73.9 82.4625 75.9 81.4625 77.8375C80.525 79.8375 79.7 80.725 78.225 82.425C76.75 84.125 75.35 85.425 73.875 87.25C72.525 88.8375 71 90.5375 72.7 93.475C74.4 96.35 80.275 105.937 88.925 113.637C100.087 123.575 109.137 126.75 112.375 128.1C114.787 129.1 117.662 128.863 119.425 126.988C121.662 124.575 124.425 120.575 127.237 116.638C129.237 113.813 131.763 113.462 134.413 114.462C137.113 115.4 151.4 122.462 154.338 123.925C157.275 125.4 159.212 126.1 159.925 127.338C160.625 128.575 160.625 134.387 158.212 141.212Z" fill="#ffffff"/>
</g>
<defs>
<clipPath id="clip0_17_27">
<rect width="200" height="200" fill="white"/>
</clipPath>
</defs>
</svg>
